<?xml version="1.0" encoding="UTF-8"?><svg id="Réteg_1" xmlns="http://www.w3.org/2000/svg" viewBox="0 0 221.52 221.47"><defs><style>.cls-1{fill:#fff;}</style></defs><path class="cls-1" d="m110.76,17.03v.07C80.18-4.56,49.54-5.36,18.9,13.55c-1.1.67-2.21,1.37-3.31,2.1-.74,1.1-1.44,2.21-2.11,3.31-18.91,30.61-18.11,61.25,3.51,91.79-21.62,30.57-22.42,61.18-3.51,91.82.67,1.1,1.37,2.21,2.11,3.31,1.1.74,2.21,1.44,3.31,2.1,30.64,18.91,61.28,18.11,91.86-3.54v-.03c30.57,21.65,61.22,22.45,91.86,3.54,1.1-.67,2.21-1.37,3.31-2.1.74-1.1,1.44-2.21,2.11-3.31,18.91-30.64,18.11-61.25-3.51-91.82,21.62-30.57,22.42-61.18,3.51-91.82-.67-1.1-1.37-2.21-2.11-3.31-1.1-.74-2.21-1.44-3.31-2.11-30.64-18.91-61.28-18.11-91.86,3.54Zm-77.52,30.84c-7.62-4.24-8.72-14.5-5.35-19.91,5.41-3.37,15.67-2.27,19.92,5.35,2.67,4.81,2.41,10.63.37,14.94-4.31,2.04-10.12,2.31-14.94-.37Zm-2.14,51.49c-6.72-3.04-7.32-17.58,2.14-22.86,8.92-4.98,21.22.2,21.28,7.99.1,9.86-16.37,18.04-23.42,14.87Zm2.14,45.68c-9.46-5.28-8.85-19.81-2.14-22.86,7.05-3.17,23.52,5.01,23.42,14.87-.07,7.79-12.36,12.96-21.28,7.99Zm-5.35,48.55c-3.37-5.41-2.27-15.67,5.35-19.91,4.81-2.67,10.63-2.41,14.94-.37,2.04,4.31,2.31,10.12-.37,14.94-4.24,7.62-14.5,8.72-19.92,5.35Zm48.55-5.35c-4.98-8.92.2-21.22,7.99-21.29,9.86-.1,18.04,16.37,14.87,23.42-3.04,6.72-17.58,7.32-22.86-2.14Zm111.84-14.6c7.62,4.24,8.72,14.5,5.35,19.92-5.41,3.37-15.67,2.27-19.92-5.35-2.67-4.81-2.41-10.63-.37-14.94,4.31-2.04,10.12-2.31,14.94.37Zm-43.2,14.57c-5.28,9.46-19.81,8.85-22.86,2.14-3.17-7.05,5.01-23.52,14.87-23.42,7.79.07,12.96,12.36,7.99,21.29Zm45.34-66.06c6.72,3.04,7.32,17.58-2.14,22.86-8.92,4.98-21.22-.2-21.28-7.99-.1-9.86,16.37-18.04,23.42-14.87Zm-2.14-45.71c9.46,5.28,8.85,19.81,2.14,22.86-7.05,3.17-23.52-5.01-23.42-14.87.07-7.79,12.36-12.96,21.28-7.99Zm-27.6-15.6c.03.43.03.87.03,1.3,0,9.89-5.41,18.08-12.5,19.58v58.01c7.08,1.5,12.5,9.69,12.5,19.58,0,.43,0,.87-.03,1.3-.43.03-.87.03-1.3.03-9.89,0-18.08-5.41-19.58-12.5h-29.04v.03h-29.04c-1.5,7.08-9.69,12.5-19.58,12.5-.43,0-.87,0-1.3-.03-.03-.43-.03-.87-.03-1.3,0-9.89,5.41-18.08,12.5-19.58v-57.97c-7.08-1.5-12.5-9.69-12.5-19.58,0-.43,0-.87.03-1.3.43-.03.87-.03,1.3-.03,9.89,0,18.08,5.41,19.58,12.5h29.04v-.07h29.04c1.5-7.08,9.69-12.5,19.58-12.5.43,0,.87,0,1.3.03Zm-84.24-27.53c5.28-9.46,19.81-8.85,22.86-2.14,3.17,7.05-5.01,23.52-14.87,23.42-7.79-.07-12.96-12.36-7.99-21.29Zm60.65,21.22c-9.86.1-18.04-16.37-14.87-23.42,3.04-6.72,17.58-7.32,22.86,2.14,4.98,8.92-.2,21.22-7.99,21.29Zm51.19-6.72c-4.81,2.67-10.63,2.41-14.94.37-2.04-4.31-2.31-10.12.37-14.94,4.24-7.62,14.5-8.72,19.92-5.35,3.37,5.41,2.27,15.67-5.35,19.91Z"/></svg>