<?xml version="1.0" encoding="UTF-8"?><svg id="Réteg_1" xmlns="http://www.w3.org/2000/svg" viewBox="0 0 539.21 147.3"><defs><style>.cls-1{fill:none;}.cls-2{fill:#fff;}</style></defs><path class="cls-1" d="m96.56,127.91c0-7.51,5.75-6.23,12.31-14.86,3.19-4.31,4.46-9.91,4.79-21.57-.16-6.55-2.88-8.95-10.55-8.95h-40.25c-9.76,0-11.67,4.16-11.19,13.1v-.32c.48,9.11,1.76,13.9,4.63,17.74,6.56,8.63,12.31,7.35,12.31,14.86,0,4.16-3.84,7.03-9.74,7.03-6.4,0-12.31-1.28-19.18-1.28s-11.03,1.28-19.18,1.28c-5.91,0-9.74-2.88-9.74-7.03,0-7.51,5.75-6.23,12.31-14.86,3.99-5.28,4.94-17.26,4.94-30.68v-15.5c0-13.42-.95-25.4-4.94-30.68-6.56-8.63-10.71-8.94-10.71-14.22,0-4.79,3.83-7.67,9.74-7.67,4.79,0,10.86,1.28,17.58,1.28s11.02-1.28,17.58-1.28c5.91,0,9.74,2.88,9.74,7.67,0,5.28-4.15,5.59-10.71,14.22-3.2,4.31-4.48,9.59-4.79,21.57.16,7.35,2.88,9.43,11.34,9.43h40.1c8.95,0,10.86-3.68,10.55-13.1-.48-9.26-1.76-14.06-4.63-17.9-6.56-8.63-10.71-8.94-10.71-14.22,0-4.79,3.83-7.67,9.74-7.67,4.79,0,10.86,1.28,17.58,1.28s11.02-1.28,17.58-1.28c5.91,0,9.74,2.88,9.74,7.67,0,5.28-4.15,5.59-10.71,14.22-3.99,5.28-4.96,17.26-4.96,30.68v15.5c0,13.42.96,25.4,4.96,30.68,6.56,8.63,12.31,7.35,12.31,14.86,0,4.16-3.84,7.03-9.74,7.03-6.4,0-12.31-1.28-19.18-1.28s-11.03,1.28-19.18,1.28c-5.91,0-9.74-2.88-9.74-7.03Z"/><path class="cls-2" d="m45.03,95.31h19.01v.1c-2.39,0-4.22.03-4.22.06s1.83.06,4.22.06v.1h-19.01c-7.74-.11-7.6-.21,0-.32Zm5.47.21c-3.19.02-2.99.06-.72.07,2.38.01,7.95-.02,7.91-.05-.02-.03-4.18-.04-7.19-.03Zm-5.59-.05c-.12.01,3.28.03,5.09.02,1.78,0,1.56-.03.07-.04-1.68,0-5.02,0-5.16.02Zm4.86-.12c-2.27,0-2.47.06.72.07,3.01.02,7.17,0,7.19-.03.03-.03-5.53-.06-7.91-.05Z"/><path class="cls-2" d="m74.39,123.56l-27.06-1.9c1.19-.48,2.13-.98,2.58-1.61.11-.15.2-.31.25-.48l.07-.23c-.05-.16-.19-.42-.29-.63-.12-.22-.24-.44-.35-.67-.14-.26-.29-.52-.44-.78-.3-.52-.61-1.05-.93-1.59-2.53-4.31-4.91-7.51-7.46-7.69-1.01-4.52-1.26-8.32-1.48-12.01l18.98-1c2.08,2.51,3.73,4.9,5.04,6.72.65.91,1.2,1.66,1.64,2.21.44.56.73.91.93,1.26.05.09.11.18.14.27.07.1.03.13.15.32l.15.27.07.14.02.04.08.11.15.22c.42.56.84,1.09,1.38,1.57,1.02.99,1.95,1.99,2.98,2.96.48.49,1.01.97,1.41,1.47.38.51.75,1.01,1.1,1.5,1.25,1.99,1.69,3.85,1.66,5.35-.02,1.52-.31,2.77-.79,4.18Zm-19.98-16.91c1.27-1.29,1.66-2.88,1.5-4.36-.17-1.47-.93-2.82-2.1-3.23-1.23-.42-3.18.16-4.75,1.37-1.56,1.2-2.73,3.1-2.32,5.05.31,1.54,1.71,2.62,3.24,2.8,1.56.21,3.23-.43,4.43-1.64Zm6.67,1.47c-.16-.38-1.08-.37-2.18-.21-1.09.17-2.36.52-3.04,1.22-.67.68-.66,1.57-.25,2.22.42.65,1.21,1.01,1.96.78.88-.25,1.78-1.12,2.46-1.98.69-.85,1.2-1.64,1.05-2.02Zm5.46,12.15c.97-.44.65-1.69-.9-3.06-1.53-1.37-4.23-2.55-6.32-2.43-2.03.12-3.35,1.23-4.33,2.27-.94,1.07-1.52,1.94-1.05,2.38.59.55,2.85.68,5.7.91,1.41.1,2.92.2,4.22.21,1.29.02,2.13-.04,2.67-.28Z"/><path class="cls-2" d="m43.56,140.43l1.25-18.97,2.52.19h0c.63,1.26,1.32,2.39,2.16,3.21.82.82,1.8,1.34,2.39,1.28.59-.05.56-.73-.28-1.59-.81-.88-2.39-1.89-4.28-2.9l27.06,1.9c1.59,1.54,2.67,3.56,3.25,5.64.6,2.08.63,4.28.12,6.32-.49,2.06-1.45,3.89-2.67,5.41-1.22,1.54-2.74,2.75-4.5,3.67-1.76.91-3.75,1.51-6.12,1.75-2.36.24-5.07.02-7.8-.57-2.72-.57-5.42-1.42-7.88-2.38-.62-.24-1.22-.49-1.8-.74l-.86-.38-.41-.19-.2-.1-.12-.09c-.61-.47-1.22-.97-1.83-1.48Zm22.79-6.4c2.17.43,4.3-.63,5.06-2.37.38-.85.47-1.79.24-2.6-.22-.81-.69-1.49-1.24-1.9-.29-.22-.66-.37-1.04-.48-.19-.05-.39-.1-.59-.13-.28-.04-.58-.08-.88-.12-1.45-.18-3.01-.24-4.44-.27-1.42-.02-2.78-.02-3.81.04-1.05.06-1.79.18-2.04.54-.38.54.72,1.79,2.38,3.37.84.77,1.85,1.61,3.02,2.39.59.39,1.21.76,1.88,1.1.47.2.94.35,1.46.44Zm-.45,6.19c.84-.22.95-1.19.52-2.15-.42-.96-1.36-1.89-2.49-2.41-2.24-.93-4.42-.68-3.96.65.27.75,1.3,1.88,2.52,2.73,1.2.83,2.61,1.4,3.41,1.17Zm-17.89-4.17c.62,1.2,2.69,2.04,4.74,2.13,2.05.11,3.79-.65,3.73-2.2,0-.36-.1-.74-.25-1.12-.18-.42-.42-.86-.71-1.29-.57-.87-1.29-1.73-1.99-2.5-1.43-1.53-2.62-2.68-3.28-2.75-.82-.09-1.2,1.26-1.8,2.89-.54,1.64-1.11,3.58-.43,4.84Z"/><path class="cls-2" d="m5.71,134.05l26.26-12.34c-1.11,1.28-1.96,2.41-2.21,3.21-.28.8.03,1.26.63,1.2.59-.05,1.24-.59,1.53-1.38.16-.4.21-.86.24-1.37.37-.55.61-1.14.71-1.75,1.88-.18,3.92-.31,5.98-.33,2.05-.03,4.06.05,5.97.17l-1.25,18.97c-1.34.88-2.6,1.67-3.76,2.4-1.16.72-2.24,1.36-3.37,1.92-.56.28-1.14.54-1.74.78-.14.1-1,.27-1.64.42-.68.14-1.36.28-2.04.42-2.74.53-5.56.87-8.24.93-2.7.09-5.23-.19-7.35-.84-.5-.18-1.01-.37-1.51-.55-.48-.2-.89-.45-1.32-.68-.44-.22-.84-.47-1.2-.75-.38-.26-.74-.53-1.07-.84-1.35-1.19-2.44-2.59-3.23-4.18-.79-1.6-1.31-3.42-1.35-5.39Zm26.52,1.23c1.19,1.48,2.89,2.05,4.4,2.03,1.51-.03,2.89-.65,3.42-1.78.54-1.18.17-3.19-.89-4.86-1.05-1.68-2.86-3-4.7-2.83-.71.07-1.37.39-1.81.88-.24.47-.49,1.11-.69,1.85-.39,1.47-.67,3.3.28,4.71Zm-7.63,6.25c1.02.01,2.35-.89,3.19-2.03.86-1.13,1.27-2.48,1.04-3.37-.47-1.74-2.74-1.28-4.23.23-.81.86-1.38,2.11-1.43,3.18-.07,1.08.46,1.94,1.42,1.98Zm-11.53-6.66c-.51.94.44,2.2,2.21,2.63,1.75.48,4.27-.02,6.31-1.51.48-.35.91-.73,1.28-1.12.41-.43.76-.87,1.06-1.3.61-.87,1.06-1.72,1.39-2.47.63-1.5.96-2.59.31-2.63-.8-.05-3.19,1.23-6.18,2.63-1.47.7-3.04,1.47-4.38,2.22-.28.16-.55.32-.82.47-.19.11-.37.23-.52.35-.31.24-.54.48-.68.73Z"/><path class="cls-2" d="m20.02,102.54l18.66,3.61c-.39,2.04-.89,4.18-1.71,6.54-.38,1.15-.91,2.43-1.53,3.71-.35.67-.7,1.36-1.11,2.05-.45.7-.92,1.39-1.39,2.07-.61-.2-1.32-.2-2.04-.13-.17.01-.38.07-.53.07-.08-.09-.17-.17-.28-.21-.21-.1-.42-.17-.63-.22-.82-.21-1.65,0-2.11.39-.46.38-.36.79.47,1.02.8.25,2.33.31,4.17.26l-26.26,12.34c-1.77-1.15-3.1-2.75-3.96-4.46-.93-1.71-1.36-3.66-1.57-5.36-.17-1.72-.12-3.19.32-4.84.43-1.64,1.44-3.53,3.23-5.5,1.09-.96,2.03-1.96,3.4-2.82l1.93-1.32c.61-.43,1.21-.87,1.82-1.3.6-.44,1.27-.82,1.75-1.31.13-.12.26-.22.39-.36.13-.13.31-.33.32-.31l.31-.17c.09-.04.2-.1.26-.1l.14.04c.1.02.23.1.36.06.13,0,.3-.04.47-.07l.57-.27c.42-.16.85-.54,1.35-.83.95-.72,2.05-1.59,3.2-2.61Zm-6.94,18.3c-2.59.5-4.62,1.82-5.24,3.53-.67,1.7-.02,3.37,1.1,3.6.29.07.63.05,1-.03.19-.04.38-.1.58-.17.29-.11.58-.22.89-.33,1.47-.57,3.06-1.31,4.52-2.02,2.99-1.45,5.5-2.57,6.03-3.18.41-.5-.66-.84-2.3-1.22-.83-.17-1.82-.33-2.96-.39-.57-.03-1.18-.04-1.82,0-.58.03-1.17.1-1.79.22Zm-2.5-5.26c-.8.7-.51,1.68.45,2.29.94.63,2.41.97,3.83.89,1.41-.07,2.52-.48,3.11-.99.58-.53.69-1.22.16-1.79-.6-.64-1.94-1.14-3.49-1.26-1.56-.13-3.21.18-4.07.85Zm13.23-8.49c-1.23.15-2.22,1.2-2.71,2.35-.14.27-.21.58-.28.89-.08.29-.11.62-.11.97-.04.36-.05.76,0,1.18.02.45.07.93.24,1.34.62,1.58,2.27,2.38,3.72,2.9.36.13.71.23,1.03.31.16.04.32.06.46.1.08.01.12.05.21.04l.27-.06c.36-.09.71-.25,1.05-.48.35-.28.68-.65.95-1.06,1.38-2.18.77-4.58-.48-6.14-1.22-1.59-3.09-2.48-4.35-2.34Z"/><path class="cls-2" d="m21.38,70.4h19.01v9.99c-1.2.26-2.25,1.08-3.01,2.3-.76,1.24-1.23,2.84-1.26,4.61-.06,3.52,1.58,6.61,3.93,7.34-.23,3.65-.59,7.41-1.37,11.49l-18.66-3.61c-2.92-5.42-4.58-10.37-4.44-15.64.03-1.31.17-2.63.41-3.97.25-1.34.61-2.78,1.09-4.16.96-2.79,2.39-5.58,4.29-8.37Zm5.27,21.61c-3.25,1.67-3.44,6.36-1.37,7.66,1.12.68,3.13.54,4.94-.29,1.79-.82,3.33-2.35,3.44-4.14.17-2.85-3.93-4.8-7.01-3.22Zm-5.42-5.14c-.15,1.31,3.21,2.81,5.04,2.13,1.81-.7,1.63-3.16.15-3.77-1.67-.7-5.03.39-5.18,1.65Zm4.91-12.52c-2.27,1.05-2.47,6.05.72,7.87,3.01,1.72,7.17-.07,7.19-2.75.03-3.39-5.53-6.21-7.91-5.12Z"/><path class="cls-2" d="m18.14,40.77l16.48-9.46c1.6,2.81,2.36,5.15,3.02,7.39.65,2.24,1.04,4.29,1.38,6.29-2.25,1.04-3.57,4.45-3.31,8.07.27,3.63,2.18,6.51,4.58,7,.11,3.55.09,7.08.09,10.35h-19.01c-3.86-5.66-5.78-10.8-6.15-15.76-.18-2.47.03-4.86.57-7.17.27-1.18.6-2.27,1.02-3.42.39-1.06.86-2.23,1.33-3.28Zm8.56,17.87c-3.1,1.92-2.83,6.77-.57,7.82,2.38,1.1,7.96-1.74,7.85-5.26-.09-2.79-4.35-4.4-7.27-2.56Zm-5.86-4.58c-.02,1.26,3.45,2.46,5.22,1.61,1.74-.85,1.33-3.3-.22-3.74-1.75-.49-4.94.91-4.99,2.13Zm2.81-12.39c-.92.82-1.15,2.26-.77,3.68.36,1.44,1.35,2.9,3.05,3.58,1.6.64,3.38.43,4.71-.34,1.34-.76,2.2-2.12,1.95-3.6-.31-1.87-2.1-3.33-4.03-3.89-1.9-.58-3.96-.27-4.9.58Z"/><path class="cls-2" d="m17.37,8.43l14.66,19.14c-1.8-.9-3.49-1.58-4.75-1.71-1.24-.16-2.02.26-1.75.8.26.54,1.36.94,2.55,1.1,1.21.16,2.55.05,3.95-.18h0s0-.01-.03-.03c0,0-.02-.02,0,0l.06.08.12.15c.33.45.56.66,1.11,1.47.46.68.97,1.4,1.34,2.07l-16.48,9.46c-.29-.06-.59-.02-.85-.02l-.38.02c-.16-.02-.33-.06-.51-.12l-.52-.16-.13-.04-.21-.14c-.14-.1-.27-.19-.41-.27-.53-.34-1.11-.67-1.68-1.03-.58-.37-1.16-.74-1.73-1.11-.62-.39-1.24-.77-1.86-1.15-1.27-.78-2.43-1.65-3.61-2.55-2.2-1.82-3.77-3.77-4.72-5.59-.96-1.83-1.43-3.53-1.5-5.54-.29-4.05,1.36-8.69,4.68-11.59,3.29-2.94,7.88-3.99,12.65-3.06Zm-2.63,20.3c-1.25.77-.88,2.51.53,4.06.68.76,1.55,1.46,2.39,1.91.82.47,1.61.71,2.29.63,1.43-.18,2.67-1.77,3.7-3.16.98-1.43,1.84-2.51,1.24-3.08-.48-.46-2.18-.7-4.34-.9-1.07-.09-2.23-.14-3.29-.08-.53.03-1.03.09-1.48.19-.4.1-.75.24-1.03.43Zm-8.85-5.01c.07.83,1.19,1.69,2.56,2.2,1.36.52,2.95.69,3.71.44.78-.27.69-.86.36-1.59-.36-.72-.91-1.58-1.68-2.07-.88-.56-2.11-.77-3.15-.57-1.05.19-1.89.81-1.81,1.59Zm10.61-10.21c-1.4-.63-3.5-.31-4.77,1.07-1.33,1.32-1.51,3.57-.22,5.06.29.35.62.65,1.01.9.62.34,1.26.62,1.9.86,1.28.48,2.57.79,3.72,1.01,2.33.41,4.11.56,4.53.05.52-.64-.65-2.34-1.93-4.32-.66-.97-1.4-2.01-2.21-2.94-.18-.2-.36-.4-.54-.59-.14-.15-.3-.3-.46-.43-.32-.27-.67-.51-1.04-.66Z"/><path class="cls-2" d="m59.04,7.95l-11.69,19.59-.9.09c-.82-2.33-4.18-3.81-8.07-3.9-1.94-.04-3.68.29-5.05.94-.34.16-.66.34-.95.54-.19.09-.14.22-.2.33-.03.12-.05.24-.07.37-.08.5-.09,1.07-.08,1.67l-14.66-19.14c1.07-1.25,2.51-2.38,4.42-3.19,1.9-.82,4.25-1.27,6.79-1.49,1.27-.11,2.59-.18,3.94-.21l1.02-.02h.5s.24-.02.24-.02l.12-.02.94-.12c1.23-.14,2.38-.19,3.47-.16,1.09.03,2.15.13,3.27.31.56.09,1.13.2,1.73.33l.92.21c.09.02.12.04.27.05l.51.03.99.06c5.26.31,9.88,1.45,12.55,3.76Zm-25.31,6.19c-.66-1.65-2.98-2.66-5.05-2.93-2.1-.28-3.77.28-3.78,1.39-.02.6.35,1.36.95,2.27.6.92,1.37,1.92,2.11,2.84,1.53,1.85,2.67,3.36,3.48,3.43.34.03.64-.2.96-.61.25-.42.88-.98,1.2-1.66.71-1.36.84-3.15.13-4.72Zm5.08-5.31c-1.16-.14-2.7,3.18-2.08,5.02.64,1.83,3.14,1.66,3.7.14.62-1.7-.51-5-1.62-5.16Zm13.07,3.88c-.21-1.12-2.03-1.58-4.11-1.27-2.3.34-3.53,1.19-4.37,2.85-.74,1.56-.66,3.34.03,4.73.34.69.84,1.27,1.43,1.66.29.19.61.34.95.43.17.05.34.08.51.09.14.02.41,0,.45,0,.81-.07,1.7-1.57,2.92-3.4,1.15-1.83,2.46-3.96,2.2-5.1Z"/><path class="cls-2" d="m61.97,39.69l-15-11.67.38-.49c1.56.08,3.04.07,4.33-.2,1.28-.25,2.32-.84,2.36-1.44.06-.59-.83-.89-2.13-.57-1.3.3-2.9,1.16-4.56,2.22l11.69-19.59c2.46-.73,4.88-1.07,7.16-.9,2.27.17,4.4.81,6.27,1.91,1.89,1.08,3.47,2.68,4.66,4.56,1.16,1.89,1.86,4.02,2.11,6.17.12,1.08.11,2.16,0,3.17-.1,1.03-.3,1.95-.61,2.87-.62,1.79-1.68,3.55-3.35,5.37-1.6,1.81-4.14,3.59-6.62,5.04-1.19.67-2.4,1.35-3.63,2.05-.56.3-1.12.6-1.69.91-.26.14-.54.3-.81.46l-.55.13Zm4.94-22.21c.94-1.54.23-3.5-1.32-4.44-1.52-1-3.67-.99-5.04-.15-.36.22-.69.49-.99.81-.32.33-.51.6-.87,1.1-.65.92-1.21,1.93-1.71,2.89-.94,1.92-1.81,3.52-1.12,3.98.56.35,2.43-.05,4.79-.75,1.17-.36,2.45-.82,3.68-1.43.61-.31,1.21-.65,1.77-1.04.33-.28.6-.6.81-.96Zm6.75,3.79c.02-.91-.91-1.6-2.01-1.78-1.13-.19-2.39.1-3.17.8-.76.7-1.1,1.62-1.14,2.4-.05.78.16,1.44.83,1.63.74.2,2.11-.07,3.3-.65.58-.3,1.12-.68,1.52-1.09.38-.42.63-.88.66-1.31Zm-12.52,12.13c1.5.06,3.63-1.17,4.85-2.69,1.21-1.51,1.37-3.04.17-3.68-.29-.16-.62-.26-1.01-.32-.51-.05-1.06-.06-1.64-.04-1.16.04-2.41.21-3.56.39-2.31.41-4.14.78-4.63,1.23-.62.56.39,1.43,1.54,2.62,1.19,1.14,2.66,2.46,4.29,2.5Z"/><path class="cls-2" d="m60.25,60.14l-11.52,16.37c-2.67-1.48-4.97-3.76-6.53-6.39-1.55-2.65-2.5-5.64-2.83-8.88,1.04-.8,2.13-2.61,2.82-4.72.38-1.02.76-2.02,1-3.15.26-.95.42-1.71.5-2.67.14-1.85-.11-3.65-.65-5.17-.26-.77-.6-1.47-1.02-2.04-.4-.59-.88-1.06-1.43-1.36.46-2.21,1.13-4.65,2.22-7.17.54-1.25,1.19-2.52,1.92-3.71.37-.59.73-1.18,1.15-1.76.2-.27.43-.62.6-.83l.49-.63,15,11.67c-.04.82.14,1.35.29,1.92.14.56.31,1.06.48,1.54.35.94.68,1.79.93,2.72.5,1.85.69,4.03.49,6.41-.05.59-.11,1.21-.22,1.82-.03.2-.04.17-.07.24l-.07.15c-.05.1-.11.2-.17.31-.25.1-.62.21-1.09.58-.46.35-1.02.92-1.5,1.76-.48.84-.79,1.89-.8,3Zm-6.74-13.52c1.71-.63,2.73-1.99,3.19-3.28.44-1.29.37-2.62-.42-3.56-.85-.97-2.75-1.63-4.78-1.26-2,.34-4.02,1.82-4.47,3.83-.37,1.58.47,3.02,1.77,3.83,1.32.82,3.08,1.04,4.71.45Zm5.01,5.37c.21-1.22-3.03-2.9-4.9-2.38-1.87.55-1.82,3.04-.36,3.72,1.64.76,5.04-.15,5.26-1.34Zm-3.96,10.53c.75-1.23.9-2.59.69-3.68-.25-1.09-.98-2.05-2.54-2.72-1.49-.61-3.29-.68-4.71.19-1.4.82-2.54,2.69-2.27,4.65.32,2.49,2.37,3.89,4.29,3.91.98.03,1.9-.22,2.64-.63.36-.19.78-.51,1.1-.8.33-.3.58-.61.8-.93Z"/><path class="cls-2" d="m88.87,60.56l1.23,18.97h-10.73c-.58-2.38-3.53-4.2-7.1-4.2-3.56,0-6.64,1.83-7.38,4.22h-2.68s-.34,0-.34,0h-.17s-.3-.01-.3-.01l-1.24-.06c-.83-.04-1.66-.07-2.46-.2-1.63-.17-3.2-.5-4.72-.94-.75-.24-1.5-.47-2.19-.81l-1.06-.47-1.01-.55,11.52-16.37c1.24-.67,2.12-1.45,2.71-2.14.3-.35.52-.67.7-.97l.12-.22s0-.07.08-.1l.25-.1c.34-.13.68-.26,1.01-.38,2.69-.96,5.29-1.43,7.87-1.42,5.17.02,10.27,1.95,15.88,5.75Zm-21.16,5.47c-.8-1.6-2.41-2.34-3.98-2.41-.19,0-.4,0-.58,0-.14.01-.28.03-.42.06-.28.06-.56.17-.83.3-.54.26-1.08.68-1.49,1.22-.87,1.14-1.34,3.1-.56,4.83.38.89,1.07,1.69,2.03,2.27.55.3.83.51,1.25.67.4.15.82.24,1.26.23,2.81-.02,4.84-4.17,3.31-7.18Zm5.23-5.59c-1.29-.12-2.86,3.28-2.2,5.09.67,1.78,3.13,1.56,3.77.07.71-1.68-.33-5.02-1.57-5.16Zm12.34,4.86c-1.15-2.27-5.95-2.47-7.78.72-1.74,3.01,0,7.15,2.81,7.17,3.56.03,6.19-5.51,4.98-7.9Z"/><path class="cls-2" d="m106.87,54.47l19-.55c.1,3.05-.07,6.53-.73,9.65-.71,3.13-1.97,6.03-3.92,8.46-1.2-.39-2.91.09-4.97.72-2.05.66-4.48,1.36-7.14,1.95-1.34.26-2.6.6-3.81.86-.3.08-.6.16-.89.24-.16.05-.27.08-.34.12l-.26.11c-.34.15-.65.32-.94.51-1.16.75-1.91,1.81-2.04,3h-10.73s-1.23-18.96-1.23-18.96c2.55-1.94,5.04-3.38,7.53-4.33,1.25-.48,2.5-.83,3.76-1.07.32-.06.63-.11.95-.15.09-.04.02-.08.04-.11,0-.06-.02-.08-.02-.08-.03-.02.3.6,1.35.91.51.15,1.14.2,1.88.05.74-.15,1.58-.5,2.51-1.3Zm-5.92,11.57c-2.24-3.19-7.02-2.99-7.88-.72-.9,2.39,2.44,7.92,6,7.89,2.8-.03,4.01-4.16,1.87-7.17Zm2.47-5.68c-.32-.02-.35.82-.35,1.89.02,1.07.11,2.37.66,3.26.54.9,1.45,1.2,2.2,1.1.37-.07.69-.25.89-.5.2-.26.28-.62.2-1.01-.17-.88-1.02-2.03-1.8-2.99-.79-.94-1.49-1.74-1.8-1.76Zm8.15-2.65c-1.15.16-1.85.98-2.11,2.09-.24,1.13-.28,2.67.24,4.52.13.44.32.89.51,1.29.16.36.37.71.61,1.04.48.64,1.14,1.2,1.88,1.52,1.47.66,3.43.31,4.44-1.35.62-1.03.79-2.3.56-3.51-.2-1.2-.77-2.33-1.49-3.21-1.45-1.78-3.44-2.52-4.65-2.39Z"/><path class="cls-2" d="m92.03,24.71l25.8,2.86c-1.15.49-2.08,1.02-2.52,1.67-.12.15-.18.34-.27.48.05.31.27.79.44,1.18.18.4.51,1.01.79,1.51.28.53.59,1.06.89,1.61,2.46,4.36,4.75,7.52,7.31,7.73.48,2.23.76,4.29.97,6.25.09.97.19,1.94.25,2.87l.1,1.44.08,1.6-19,.55c-1.02-1.06-1.95-2.38-2.79-3.5-.76-1.09-1.5-2.14-2.22-3.16-.64-.93-1.19-1.73-1.63-2.31-.44-.6-.73-.96-.93-1.32-.09-.18-.19-.37-.24-.56-.05-.13-.25-.43-.36-.64l-.09-.18-.28-.42-.6-.84c-.87-1.08-1.63-2.19-2.47-3.24-.85-1.05-1.64-2.1-2.27-3.15-1.32-2.09-1.91-4.15-1.88-5.84-.01-1.72.34-3.12.91-4.59Zm18.8,18.2c-1.29,1.27-1.7,2.87-1.54,4.35.16,1.47.9,2.84,2.08,3.25,1.24.42,3.18-.15,4.76-1.35,1.56-1.19,2.75-3.07,2.37-5.01-.3-1.53-1.67-2.62-3.21-2.82-1.55-.23-3.23.38-4.45,1.58Zm-6.65-1.6c.15.38,1.08.39,2.18.26,1.1-.15,2.37-.48,3.06-1.16.68-.67.7-1.57.29-2.22-.39-.66-1.18-1.04-1.95-.81-.86.24-1.79,1.1-2.5,1.93-.71.83-1.23,1.62-1.09,2Zm-4.69-12.75c-.96.46-.68,1.9.81,3.42,1.49,1.5,3.89,2.81,5.86,2.72,1.92-.09,3.25-1.27,4.2-2.34.92-1.1,1.51-2.02,1.07-2.5-.54-.6-2.67-.81-5.36-1.17-1.33-.16-2.75-.31-3.99-.37-1.23-.06-2.05-.02-2.59.24Z"/><path class="cls-2" d="m123.87,8.93l-.61,19c-1-.03-1.99-.08-2.94-.15l-1.42-.11-1.07-.09h0c-.39-1.24-.86-2.36-1.56-3.18-.67-.82-1.55-1.36-2.15-1.33-.59.02-.66.66.01,1.53.65.88,2.03,1.92,3.69,2.99l-25.8-2.86c-1.48-1.67-2.35-3.82-2.69-5.97-.36-2.16-.14-4.39.56-6.41,1.45-4.06,4.43-7.08,8.36-8.64,1.96-.79,4.24-1.23,6.79-1.23,2.55-.01,5.36.48,8.05,1.21,1.35.36,2.67.78,3.94,1.21.62.22,1.24.44,1.87.67l.89.34c.18.1.31.2.47.31,1.21.83,2.38,1.74,3.6,2.72Zm-22.6,5.8c-2.14-.61-4.36.28-5.33,1.93-1.02,1.63-.69,3.66.41,4.52.28.23.61.41.98.54.18.06.38.12.58.16.27.05.55.1.84.16,1.38.24,2.82.35,4.22.44,2.78.13,5.18.32,5.73-.28.43-.5-.44-1.74-1.81-3.32-.7-.78-1.55-1.64-2.56-2.44-.51-.4-1.05-.79-1.65-1.14-.44-.23-.9-.42-1.42-.56Zm1.15-6.23c-.89.17-1.14,1.14-.81,2.15.31,1.01,1.15,2.02,2.23,2.63,2.14,1.11,4.31.97,4.05-.43-.16-.79-1.03-1.99-2.15-2.93-1.1-.94-2.47-1.58-3.32-1.42Zm17.47,4.95c-.22-.59-.6-1.06-1.44-1.43-.79-.37-1.81-.62-2.84-.69-2.07-.17-4.03.46-4.23,2.03-.25,1.41.95,3.4,2.04,4.91,1.14,1.54,2.13,2.68,2.78,2.77.82.11,1.47-1.21,2.42-2.81,1.11-1.59,1.72-3.54,1.27-4.77Z"/><path class="cls-2" d="m159.27,20.22l-26.12,7.32c1.35-1.22,2.42-2.35,2.83-3.19.43-.84.21-1.33-.38-1.29-.59.03-1.34.57-1.78,1.38-.47.81-.63,1.9-.67,3.1l-.83.08c-.96.09-1.95.17-2.96.23-2.01.12-4.09.14-6.1.08l.61-19c1.27-.93,2.44-1.77,3.57-2.55.57-.39,1.13-.75,1.69-1.1.29-.17.57-.34.85-.5l.43-.24.22-.12.11-.06.24-.07c5.1-1.56,11.11-2.79,15.97-2.08,4.83.72,8.21,2.91,10.54,6.11,1.15,1.59,1.98,3.51,2.34,5.57.35,2.07.18,4.27-.57,6.33Zm-23.63-6.58c-.34-.76-1.04-1.28-1.94-1.57-.45-.15-.94-.24-1.46-.29-.25-.02-.53-.04-.77-.04-.2,0-.39,0-.59,0-1.53.09-2.89.77-3.36,1.92-.48,1.2-.03,3.19,1.11,4.81.57.82,1.3,1.53,2.12,2.02.77.49,1.93.72,2.16.68.65-.08,1.32-1.22,2.05-2.73.68-1.5,1.32-3.38.68-4.82Zm8.51-5.87c-.93-.15-2.36.65-3.39,1.74-1.04,1.08-1.7,2.44-1.65,3.32.12,1.76,2.47,1.33,4.13.01.9-.76,1.62-1.9,1.85-2.95.25-1.05-.07-1.98-.94-2.13Zm9.35,9.66c.76-.98.29-2.83-1.3-3.85-1.54-1.07-3.99-1.2-6.1-.05-.5.26-.95.57-1.36.9-.49.42-.92.85-1.31,1.28-.78.86-1.39,1.73-1.87,2.5-.93,1.56-1.46,2.73-.86,2.98.74.31,3.27-.5,6.23-1.22,1.47-.38,3.02-.81,4.39-1.29.29-.11.57-.21.83-.31.19-.07.37-.16.54-.25.33-.18.61-.41.8-.67Z"/><path class="cls-2" d="m144.43,51.46l-18.9-2.05c.22-1.91.47-3.84.85-5.88.36-2.01.88-4.17,1.62-6.47,1.28,0,2.6-.75,4.03-2.1.33-.32.72-.71,1.11-1.12.4-.41.74-.86,1.2-1.33.42-.47.85-.95,1.28-1.45.17-.18.33-.36.5-.54l.37-.43c.35-.44.33-1.09-.26-1.54-.57-.47-1.7-.78-3.1-1.02l26.12-7.32c1.15,1.53,1.81,3.3,2.22,4.88.36,1.59.52,3.18.13,5.08-.4,1.88-1.41,4.05-3.24,6.14-.84,1.05-1.87,2.07-2.81,3.11-.89,1.08-1.9,2.06-2.79,3.18-.65.82-.87,1.05-.84.94-.06-.08-.17.02-.38.11-.4.33-1.03.9-1.73,1.71-1.43,1.56-3.24,3.74-5.41,6.08Zm3.06-19.7c2.44-.18,4.83-1.66,5.95-3.08,1.17-1.41,1.24-2.76.28-3.12-.26-.1-.59-.13-.99-.1-.2.01-.41.04-.64.07-.28.05-.58.1-.88.16-1.36.27-2.93.65-4.39,1.02-2.97.76-5.41,1.24-5.98,1.8-.46.45.3,1.12,1.47,1.9,1.23.75,2.84,1.52,5.16,1.34Zm.66,7.63c.74-.86.81-2.08.27-3.09-.53-1-1.64-1.74-2.74-1.86-1.09-.11-1.97.28-2.44.93-.47.63-.61,1.49-.12,2.13.53.73,1.66,1.3,2.65,1.72.5.21.94.41,1.38.43.44.02.79-.04,1-.26Zm-7.93,7.76c1.2-.32,2.05-1.6,2.34-3.02.29-1.42.02-3.02-1.09-4.42-1.07-1.33-2.65-2.19-4.22-2.13-1.57.03-3.09,1.02-3.55,2.56-.61,1.97.43,3.98,1.89,5.3,1.46,1.34,3.39,2.04,4.63,1.71Z"/><path class="cls-2" d="m143.77,84.15l-19.01.13v-10.08c2.38-.52,4.21-3.33,4.21-6.75,0-3.46-1.76-6.45-4.13-7.08.1-3.56.29-7.18.69-10.97l18.9,2.05c3.3,5.5,5.11,10.58,5.09,15.99-.01,5.56-1.96,11.21-5.74,16.7Zm-5.44-21.6c3.2-1.77,3.21-6.56,1.04-7.75-1.14-.62-3.17-.35-4.91.56-1.75.91-3.21,2.46-3.25,4.22-.06,2.8,4.09,4.63,7.12,2.97Zm5.55,5.05c.12-1.36-3.27-2.77-5.08-2.04-1.79.75-1.56,3.19-.07,3.8,1.68.69,5.02-.45,5.16-1.76Zm-4.86,12.65c2.27-1.05,2.47-6.05-.72-7.87-3.01-1.71-7.17.07-7.19,2.75-.03,3.39,5.53,6.21,7.91,5.12Z"/><path class="cls-2" d="m151.06,112.73l-17.92,8.93h0s.05.08-.01,0l-.27-.34-.58-.72c-.47-.65-.95-1.36-1.39-2.05-1.7-2.83-2.53-5.23-3.23-7.5,1.05-.69,1.72-2.08,2.15-3.66.39-1.62.54-3.44.26-5.35-.52-3.75-2.5-6.59-4.94-7.03-.24-3.66-.33-7.21-.35-10.71l19.01-.13c3.92,5.38,6.01,10.48,6.62,15.01.31,2.25.27,4.35-.12,6.11-.05.25-.1.42-.16.62-.06.18-.13.45-.21.59-.07.17-.16.34-.26.52l-.28.49c-.13.16-.14.43-.12.76-.09.2.25.95.45,1.46.51,1.06,1.01,2.05,1.38,3.02Zm-12.31-16.83c3-2.04,2.6-6.8.33-7.81-2.4-1.05-7.93,1.92-7.69,5.51.19,2.85,4.51,4.27,7.37,2.3Zm6.08,4.18c-.04-1.21-3.59-2.18-5.29-1.26-1.7.94-1.12,3.37.45,3.69,1.77.35,4.87-1.28,4.84-2.43Zm-1.29,11.77c.65-1.08.59-2.19.06-3.43-.55-1.2-1.69-2.45-3.44-2.95-1.65-.46-3.41-.11-4.65.82-1.25.91-1.95,2.44-1.44,4.02.6,1.99,2.87,3.41,4.95,3.52,2.11.14,3.85-.89,4.52-1.97Z"/><path class="cls-2" d="m144.62,141.39l-11.48-19.74c1.67,1.16,3.29,2.15,4.69,2.6,1.39.48,2.5.32,2.54-.29.03-.59-.87-1.32-2.26-1.72-1.39-.42-3.14-.54-4.98-.6l17.92-8.93c1.33.49,2.84,1.02,4.13,1.66.65.31,1.38.65,1.98.99.6.34,1.19.7,1.78,1.06,2.22,1.45,3.86,2.94,5.03,4.42,1.17,1.49,1.96,3.12,2.34,5.13.47,2.01.39,4.21-.06,6.27-.51,2.06-1.49,4.09-2.9,5.69-1.38,1.63-3.1,2.85-5.04,3.65-3.87,1.62-8.63,1.47-13.7-.21Zm10.04-17.57c.63-.32.93-.87.93-1.47-.02-.59-.31-1.24-.84-1.85-1.04-1.23-3.09-2.35-4.92-2.43-.94-.05-1.95.18-2.82.5-.86.32-1.69.75-2.41,1.14-1.42.84-2.63,1.41-1.98,1.94.52.42,2.54.98,5.06,1.64,1.26.31,2.65.6,3.99.75.67.07,1.33.11,1.94.09.4-.04.73-.15,1.04-.31Zm6.15,6.9c.24-.85-.54-1.98-1.57-2.75-1.04-.78-2.42-1.22-3.26-1.03-.9.2-1.17.9-1.24,1.69-.06.79.1,1.69.64,2.27.62.66,1.82,1.07,2.98,1.07,1.14,0,2.21-.45,2.45-1.26Zm-14.66,5.84c1.4.95,3.56,1.18,5.16.46,1.62-.67,2.54-2.29,1.82-3.74-.17-.34-.38-.63-.69-.93-.55-.43-1.15-.82-1.78-1.17-1.26-.72-2.61-1.3-3.86-1.79-2.52-.96-4.52-1.6-5.15-1.38-.78.29.05,1.84.95,3.7.47.91,1.02,1.91,1.65,2.83.35.5.56.79.88,1.14.31.33.65.64,1.01.88Z"/><path class="cls-2" d="m102.68,140.97l15.09-19.27c-.02.6-.02,1.17.05,1.67.03.25.08.49.15.71.02.05,0,.11.06.16l.23.14c.16.09.32.17.49.25,1.38.63,3.16.94,5.13.89,3.92-.1,7.12-1.62,7.9-3.98l1.35.11,11.48,19.74c-2.75,2.18-7.48,3.16-12.76,3.58l-.48.05c-.15.02-.36.02-.41.05l-.49.12-.95.22c-.62.14-1.22.25-1.8.34-1.16.18-2.25.28-3.31.31-1.07.02-2.17-.03-3.4-.16l-.47-.05-.24-.03-.12-.02h-.25c-.68-.01-1.36-.03-2.04-.04-1.34-.04-2.66-.11-3.91-.25-2.52-.27-4.83-.78-6.78-1.51-1.97-.72-3.44-1.86-4.53-3.03Zm26.27-6.06c.4.82.99,1.45,1.68,1.9.34.23.71.4,1.09.54.49.15,1.01.26,1.53.32,2.09.28,3.93-.17,4.16-1.29.27-1.16-.99-3.27-2.12-5.08-.57-.9-1.11-1.73-1.58-2.33-.23-.3-.45-.55-.66-.72-.11-.09-.21-.16-.31-.21-.06-.03-.11-.05-.17-.06-.05-.01-.2-.03-.3-.04-1.41-.11-2.68.85-3.35,2.24-.67,1.39-.74,3.18.02,4.72Zm-4.81,5.5c1.15.09,2.52-3.29,1.84-5.11-.72-1.81-3.21-1.52-3.69.03-.55,1.72.74,4.97,1.86,5.08Zm-13.72-3.76c0,1.13,1.67,1.68,3.76,1.43,2.07-.25,4.37-1.27,5.11-2.94,1.55-3.18-1.3-7.08-2.2-7-.81.07-1.97,1.58-3.53,3.41-.75.92-1.54,1.9-2.15,2.82-.61.91-1,1.68-.99,2.28Z"/><path class="cls-2" d="m103.05,109.7l14.73,12.01h0c-1.63-.12-3.19-.16-4.57.06-1.35.19-2.5.72-2.6,1.31-.12.58.71.93,2.1.67,1.39-.24,3.18-1.04,5.06-2.04l-15.09,19.27c-4.88,1.19-9.43.54-12.89-1.91-1.74-1.2-3.16-2.9-4.13-4.82-.97-1.93-1.44-4.01-1.46-6.11-.01-1.04.12-2.08.25-3.04.18-.96.45-1.84.78-2.66.73-1.63,1.76-3.11,3.38-4.7,1.64-1.6,4.06-3.25,6.77-4.6,1.4-.66,2.87-1.25,4.12-1.83,1.28-.57,2.56-1.05,3.55-1.61Zm-6.96,21.3c-1.11,1.5-.57,3.51.87,4.58,1.41,1.11,3.53,1.25,4.99.51.38-.19.74-.43,1.07-.72.17-.14.32-.29.47-.45.18-.19.36-.39.55-.6.82-.92,1.57-1.94,2.24-2.91,1.29-1.95,2.44-3.57,1.79-4.09-.53-.4-2.54-.09-5.07.49-1.28.31-2.66.71-4.02,1.28-.68.28-1.36.61-2,.99-.36.26-.63.55-.89.91Zm-6.16-4.15c-.05.44.13.84.44,1.16.35.32.84.55,1.37.67,1.07.25,2.32.03,3.21-.62.87-.65,1.29-1.55,1.43-2.32.14-.77,0-1.42-.65-1.62-.75-.23-2.15-.02-3.38.5-1.25.5-2.27,1.39-2.42,2.22Zm13.57-10.88c-1.65-.11-3.92,1.03-5.17,2.37-1.26,1.33-1.5,2.66-.33,3.29.29.15.61.26,1,.33.53.07,1.11.09,1.73.09,1.22,0,2.55-.12,3.77-.26,2.45-.31,4.41-.58,4.95-.97.68-.48-.31-1.28-1.47-2.41-.59-.54-1.27-1.12-2-1.58-.74-.46-1.61-.83-2.47-.86Z"/><path class="cls-2" d="m106.78,89.57l6.73-17.78c1.83.66,4.05,1.87,5.99,3.58,2,1.75,3.51,4,4.48,6.08.22.5.43,1.01.62,1.52.2.52.31.94.45,1.41.29.97.43,1.75.58,2.59.14.83.2,1.5.28,2.26l.06,1,.05,1.25c-1.22.75-2.3,1.44-3.11,2.7-.82,1.25-1.35,2.87-1.51,4.75-.15,1.86.08,3.66.6,5.21.53,1.53,1.31,2.84,2.42,3.43-.49,2.22-1.18,4.64-2.31,7.15-.57,1.25-1.21,2.51-1.97,3.7-.36.6-.79,1.21-1.21,1.8-.42.58-.77.99-1.17,1.48l-14.73-12.01c-.02-.35-.04-.69-.07-1.03-.07-.3-.15-.57-.22-.84-.15-.56-.31-1.06-.47-1.53-.33-.94-.66-1.8-.9-2.74-.48-1.85-.64-3.99-.44-6.36.11-1.17.3-2.41.6-3.66.16-.62.32-1.28.53-1.91.1-.14.19-.09.29-.14.1-.14.21-.34.31-.43.44-.55.93-.55,1.9-.33.47.1,1.07.14,1.49-.05.11-.05.21-.11.31-.18.07-.07.14-.15.2-.25.16-.19.16-.42.19-.67Zm4.77,13.37c-1.72.62-2.75,1.97-3.22,3.25-.45,1.29-.41,2.61.37,3.57.81.97,2.75,1.67,4.76,1.32,2.01-.31,4.04-1.77,4.52-3.78.39-1.58-.44-3.03-1.73-3.86-1.3-.84-3.07-1.07-4.7-.5Zm-4.97-5.4c-.21,1.22,3,2.91,4.88,2.41,1.87-.53,1.84-3.03.38-3.71-1.64-.78-5.03.13-5.27,1.3Zm4.08-10.78c-.73.98-.99,1.76-.74,2.91.06.29.15.61.29.91.12.34.28.64.5.9.19.26.42.62.71.94.28.32.62.6,1.01.85,1.47.91,3.26.99,4.7.46.72-.26,1.35-.67,1.81-1.19.11-.13.22-.27.31-.41.09-.18.17-.38.24-.61.11-.43.15-.96.13-1.36-.02-.53-.19-1.13-.4-1.64-.23-.54-.57-1.07-.94-1.5-.42-.48-.87-.87-1.37-1.18-.52-.33-1.05-.55-1.57-.68-2.22-.57-3.95.65-4.68,1.6Z"/><path class="cls-2" d="m76.17,89.16l-1.22-18.99h10.28c.64,2.38,3.58,4.21,7.05,4.21,3.46,0,6.31-1.83,6.83-4.22h2.57s1.29,0,1.29,0l1.69.03c1.19.04,2.47.14,3.91.35.7.1,1.54.28,2.29.44.42.11.87.24,1.3.37.43.13.85.25,1.35.46l-6.73,17.78c-.65.78-1.43,1.5-2.36,2.17-.22.16-.44.32-.7.49-.27.16-.44.31-.77.46-.68.3-1.36.57-2.04.81-2.71.96-5.41,1.43-8.12,1.42-5.42-.02-10.89-1.95-16.63-5.75Zm21.25-5.47c.93,1.6,2.62,2.34,4.22,2.41,1.66.05,2.89-.53,3.49-1.61.59-1.15.44-3.16-.61-4.91-.25-.43-.56-.84-.9-1.21-.36-.38-.73-.71-1.08-.98-.73-.55-1.56-.89-2.42-.89-2.73.02-4.45,4.18-2.69,7.19Zm-4.92,5.59c1.34.12,2.7-3.28,1.91-5.09-.79-1.78-3.23-1.56-3.79-.07-.63,1.68.59,5.02,1.88,5.16Zm-12.72-4.86c1.17,2.27,6.11,2.47,7.8-.72,1.61-3.01-.32-7.16-3.05-7.18-3.46-.03-5.99,5.52-4.76,7.91Z"/><path class="cls-2" d="m58.27,95.27l-18.98,1.02c-.14-3.24-.07-6.62.58-9.77.69-3.14,1.95-6.04,3.89-8.51.59.18,1.34.16,2.18,0,.81-.18,1.79-.43,2.8-.78,2.07-.67,4.49-1.41,7.14-2.07.65-.2,1.31-.32,1.95-.47.64-.14,1.24-.37,1.85-.49,1.16-.28,2.54-.69,2.91-1.04,1.15-.76,1.91-1.81,2.07-3h10.28s1.22,18.98,1.22,18.98c-2.62,1.94-5.23,3.38-7.87,4.33-1.32.48-2.64.83-3.98,1.07-.48.06-.31.11-.34.15v.11c.02.06.03.08.03.08,0,0-.06-.13-.27-.32-.21-.19-.58-.42-1.09-.57-1.02-.27-2.56-.21-4.38,1.25Zm5.77-11.59c2.11,3.19,7.02,2.99,7.9.72.93-2.38-2.31-7.93-5.77-7.9-2.73.02-4.12,4.17-2.13,7.18Zm-2.36,5.73c.32,0,.34-.83.33-1.91-.03-1.08-.13-2.4-.68-3.26-.54-.84-1.46-1.21-2.2-1.03-.75.12-1.25.76-1.08,1.53.18.87,1.04,2.01,1.82,2.95.8.94,1.49,1.69,1.81,1.72Zm-8.16,2.76c1.15-.18,1.85-1.01,2.11-2.11.25-1.13.31-2.64-.24-4.48-.14-.43-.32-.87-.52-1.28-.17-.36-.38-.71-.62-1.03-.49-.64-1.16-1.19-1.89-1.49-1.48-.65-3.45-.27-4.46,1.39-1.28,2.11-.54,4.98.95,6.68,1.47,1.76,3.47,2.47,4.68,2.32Z"/><path class="cls-1" d="m168.85,74.54c0-34.19,29.25-61.84,65.68-61.84s65.68,26.21,65.68,61.84-29.25,61.84-65.68,61.84-65.68-26.2-65.68-61.84Zm71.11,42.5c18.21,0,30.51-14.38,30.51-33.23,0-26.53-16.29-54.97-41.39-54.97-18.21,0-30.51,14.22-30.51,33.08,0,26.52,16.29,55.12,41.39,55.12Z"/><path class="cls-2" d="m260.2,98.7l16.59,9.27c-2.16,3.78-4.83,7.39-8.16,10.44-1.04-.61-2.6-.7-4.24-.35-1.6.41-3.47,1.02-5.22,2.14-1.84.94-3.3,2.26-4.44,3.44-1.12,1.22-1.81,2.64-1.8,3.84-4.29,1.32-8.67,1.85-12.96,1.93v-19.01c1.05-1.06,2.01-1.87,2.84-2.73.83-.88,1.61-1.53,2.28-2.26.34-.35.69-.62,1.01-.91.31-.32.62-.6.93-.84.16-.12.32-.23.48-.33.15-.13.29-.25.45-.37.3-.22.62-.41.96-.56.3-.21.62-.39.97-.54.17-.07.35-.14.54-.2.17-.08.35-.17.53-.24.37-.15.76-.27,1.2-.37.4-.14.82-.29,1.29-.41l.73-.17c.24-.07.48-.15.73-.22.5-.15,1.04-.29,1.62-.42.57-.17,1.15-.35,1.74-.53.62-.18,1.3-.36,1.93-.61Zm-9.72,15.3c-.67-.62-1.38-.92-2.1-1.14-.73-.22-1.44-.24-2.09-.1-1.31.24-2.47.96-2.81,2.19-.35,1.26.19,3.18,1.44,4.7.62.76,1.42,1.41,2.32,1.83.89.41,1.87.47,2.8.22,1.49-.35,2.33-1.87,2.38-3.39.06-1.54-.67-3.18-1.93-4.31Zm1.34-6.76c-.46.18-.52,1.11-.35,2.22.18,1.1.59,2.35,1.29,3.01.69.65,1.55.66,2.18.3.6-.42.97-1.17.78-1.93-.21-.87-1.01-1.84-1.83-2.57-.83-.73-1.66-1.23-2.08-1.02Zm10.66-3.26c-1.22-.3-2.46.31-3.29,1.34-.45.49-.79,1.12-.96,1.85-.16.74-.26,1.5-.06,2.39.35,1.66,1.41,3.11,2.77,3.83,1.34.73,3.06.74,4.13-.37,1.44-1.33,1.48-3.65.78-5.47-.67-1.82-2.15-3.29-3.37-3.57Z"/><path class="cls-2" d="m262.76,72.38l18.68-3.53c.68,3.64,1.13,7.32,1.31,11.04-2.34.74-4.03,3.7-4.26,7.58-.04.96-.09,1.89.02,2.77.08.88.33,1.71.54,2.47.46,1.51,1.27,2.74,2.36,3.34-1.04,4.06-2.43,8.13-4.62,11.92l-16.59-9.27c-.17-.67-.33-1.33-.49-1.98-.14-.62-.36-1.26-.49-1.83-.26-1.14-.58-2.24-.77-3.25-.07-.49-.19-1-.27-1.48-.08-.49-.13-.96-.14-1.41-.12-.95-.1-1.85-.02-2.77.02-.47.06-.93.15-1.39.04-.23.09-.47.15-.7l.15-.79c.24-1.08.54-2.18.95-3.32.79-2.28,1.92-4.7,3.35-7.4Zm5.84,18.89c-3.39,1.08-4.34,4.83-2.73,6.59.91.91,2.87,1.38,4.83,1.05,2.01-.3,3.77-1.53,4.32-3.34.34-1.44-.45-2.86-1.72-3.68-1.27-.84-3.04-1.1-4.69-.62Zm-4.97-4.99c-.06.54.64,1.15,1.67,1.63,1.01.47,2.28.8,3.22.57.91-.24,1.45-.94,1.44-1.67.01-.73-.39-1.47-1.12-1.76-1.66-.65-5.04.25-5.21,1.24Zm4.37-11.2c-2.05,1.29-1.9,5.56,1.29,7.18,1.52.76,3.31.75,4.72.16,1.42-.59,2.43-1.78,2.34-3.16-.09-1.75-1.63-3.21-3.43-3.97-1.8-.77-3.82-.87-4.93-.21Z"/><path class="cls-2" d="m251.28,46.9l14.59-12.19c2.53,3.03,4.71,6.23,6.6,9.53-.89.85-1.36,2.19-1.41,3.69-.08,1.51.27,3.19.99,4.85,1.46,3.28,4.13,5.5,6.59,5.32,1.18,3.52,2.11,7.11,2.79,10.75l-18.68,3.53c-4.71-3.95-7.76-7.37-9.48-11.26-1.71-3.92-2.05-8.26-2-14.21Zm13.96,13.9c-1.2,1.34-1.44,3.01-1.08,4.41.33,1.4,1.28,2.55,2.48,2.75,1.27.21,3.12-.62,4.52-1.99,1.37-1.35,2.31-3.28,1.74-4.94-.42-1.32-1.81-2.05-3.33-2.09-1.52-.04-3.2.6-4.34,1.86Zm-6.86-2.09c.36,1.06,3.96.97,5.39-.34,1.41-1.33.23-3.38-1.36-3.23-1.79.17-4.34,2.53-4.04,3.58Zm-1.27-12.01c-.62,1.04-.39,2.49.43,3.65.39.59.94,1.12,1.63,1.49.66.38,1.46.62,2.37.62,1.71-.01,3.31-.82,4.29-1.99.97-1.15,1.38-2.7.64-3.9-.88-1.55-2.97-2.14-4.89-2-1.97.16-3.79,1.03-4.46,2.13Z"/><path class="cls-2" d="m229.09,35.47v-19.01c4.32,0,8.71.64,12.88,1.91-.02,1.26.68,2.56,1.77,3.77.54.62,1.19,1.21,1.93,1.75.72.57,1.53,1.09,2.42,1.54,3.48,1.82,7.07,2.37,9.1.89,3.27,2.53,6.15,5.38,8.68,8.41l-14.59,12.19c-5.93-1-9.85-1.71-12.79-3.32-3-1.53-5.17-4.23-9.4-8.11Zm18.48.55c-.13.9,0,1.72.27,2.41.27.71.68,1.33,1.19,1.8.99.97,2.36,1.42,3.5.99,1.19-.48,2.37-2.12,2.86-4.04.46-1.88.18-4.07-1.28-5.22-1.13-.92-2.78-.77-4.04.04-1.31.84-2.26,2.33-2.49,4.02Zm-6.54,2.53c.42.31,1.28-.14,2.13-.89.84-.74,1.67-1.78,1.83-2.72.16-.93-.3-1.64-.95-1.99-.67-.3-1.5-.23-2.05.33-1.23,1.27-1.75,4.74-.97,5.26Zm-8.44-7.61c.35,1.15,1.5,1.97,2.82,2.18.66.15,1.39.09,2.11-.1.72-.18,1.45-.56,2.11-1.18,1.25-1.14,1.93-2.78,1.87-4.34-.06-1.51-.91-2.94-2.37-3.34-1.85-.54-3.86.55-5.09,2.05-1.26,1.56-1.8,3.5-1.46,4.73Z"/><path class="cls-2" d="m208.83,47.13l-16.59-9.27c2.16-3.79,4.84-7.41,8.19-10.46,1.04.61,2.6.7,4.24.36,1.61-.4,3.48-1.01,5.23-2.12,1.84-.94,3.3-2.25,4.45-3.42,1.12-1.22,1.82-2.63,1.81-3.84,4.29-1.31,8.65-1.83,12.93-1.91v19.01c-1.04,1.06-2.01,1.87-2.85,2.72-.83.88-1.62,1.52-2.29,2.26-.34.35-.69.62-1.02.91-.31.32-.62.6-.94.84-.16.12-.32.22-.48.33-.15.13-.3.25-.45.36-.3.22-.62.41-.96.56-.3.21-.63.39-.97.53-.17.07-.35.14-.54.2-.17.08-.34.16-.53.24-.37.15-.76.27-1.2.36-.4.15-.82.29-1.28.4l-.73.17c-.24.07-.48.15-.72.22-.5.15-1.04.28-1.62.42-.57.17-1.15.35-1.74.53-.63.18-1.29.36-1.93.61Zm9.74-15.27c.67.62,1.37.93,2.1,1.14.73.22,1.44.25,2.1.11,1.31-.24,2.48-.96,2.82-2.19.35-1.26-.19-3.18-1.44-4.7-.62-.76-1.42-1.41-2.31-1.83-.89-.41-1.86-.47-2.79-.23-1.49.35-2.33,1.87-2.38,3.38-.06,1.54.66,3.18,1.92,4.32Zm-1.37,6.76c.46-.18.52-1.11.35-2.22-.17-1.1-.59-2.35-1.28-3.01-.69-.65-1.55-.66-2.18-.31-.6.41-.97,1.16-.79,1.93.21.87,1.01,1.84,1.83,2.58.83.73,1.65,1.23,2.07,1.03Zm-10.66,3.23c1.21.29,2.47-.3,3.29-1.34.45-.49.79-1.11.96-1.85.16-.75.26-1.5.07-2.39-.35-1.66-1.4-3.11-2.76-3.83-1.34-.73-3.06-.75-4.13.37-1.45,1.33-1.49,3.66-.79,5.47.66,1.82,2.15,3.29,3.37,3.58Z"/><path class="cls-2" d="m206.32,73.45l-18.67,3.55c-.69-3.63-1.14-7.32-1.33-11.04,2.35-.75,4.01-3.69,4.25-7.58.02-.96.09-1.89-.03-2.77-.09-.88-.32-1.71-.55-2.47-.46-1.51-1.27-2.74-2.36-3.34,1.02-4.07,2.42-8.14,4.62-11.95l16.59,9.27c.17.67.33,1.33.49,1.97.15.62.36,1.26.5,1.83.26,1.13.6,2.24.78,3.24.17.99.42,1.99.42,2.89.15.96.09,1.85.03,2.77-.02.46-.07.93-.15,1.39-.04.23-.09.47-.15.7-.04.27-.09.54-.14.81-.24,1.08-.53,2.18-.95,3.32-.78,2.28-1.91,4.7-3.34,7.41Zm-5.88-18.88c3.4-1.08,4.32-4.84,2.72-6.59-.91-.91-2.87-1.38-4.83-1.04-2.01.3-3.76,1.54-4.31,3.35-.32,1.44.46,2.86,1.73,3.68,1.27.83,3.05,1.09,4.69.6Zm4.99,4.98c.06-.54-.66-1.15-1.68-1.63-1.01-.47-2.28-.8-3.22-.56-1.92.47-1.79,2.86-.31,3.44,1.66.64,5.04-.27,5.21-1.25Zm-4.35,11.21c2.06-1.29,1.89-5.56-1.31-7.18-1.52-.76-3.31-.75-4.72-.15-1.42.59-2.42,1.78-2.34,3.16.1,1.75,1.63,3.21,3.44,3.96,1.8.76,3.81.86,4.93.2Z"/><path class="cls-2" d="m217.8,98.95l-14.6,12.17c-2.52-3.03-4.7-6.23-6.59-9.53,1.78-1.74,1.86-5.24.42-8.53-1.46-3.28-4.12-5.5-6.59-5.31-1.18-3.52-2.11-7.1-2.8-10.74l18.67-3.55c4.72,3.95,7.77,7.37,9.49,11.27,1.71,3.93,2.05,8.27,2,14.23Zm-13.96-13.91c1.2-1.34,1.44-3.02,1.07-4.41-.33-1.4-1.29-2.55-2.49-2.75-1.27-.2-3.12.63-4.52,2-1.37,1.35-2.31,3.28-1.74,4.94.41,1.32,1.81,2.05,3.33,2.09,1.52.04,3.2-.6,4.34-1.86Zm6.86,2.09c-.36-1.06-3.97-.97-5.39.34-1.41,1.33-.23,3.38,1.36,3.23,1.79-.18,4.34-2.53,4.04-3.58Zm1.27,12.02c.62-1.04.4-2.49-.43-3.65-.39-.6-.94-1.12-1.63-1.49-.67-.38-1.46-.62-2.37-.62-1.71.01-3.31.82-4.29,1.99-.97,1.15-1.38,2.7-.65,3.9.87,1.55,2.97,2.14,4.89,2,1.96-.15,3.79-1.03,4.46-2.12Z"/><path class="cls-2" d="m239.97,110.42v19.01c-4.33,0-8.73-.64-12.9-1.92.03-1.26-.67-2.57-1.76-3.78-.54-.62-1.19-1.22-1.93-1.75-.72-.58-1.53-1.09-2.42-1.54-3.48-1.83-7.06-2.39-9.1-.9-3.27-2.54-6.14-5.39-8.66-8.42l14.6-12.17c5.93,1.01,9.85,1.74,12.79,3.35,2.99,1.54,5.15,4.24,9.38,8.12Zm-18.46-.58c.13-.9.01-1.72-.27-2.41-.27-.71-.67-1.34-1.19-1.8-.99-.97-2.36-1.43-3.49-1-1.2.48-2.38,2.11-2.86,4.03-.46,1.88-.19,4.07,1.27,5.22,1.13.93,2.77.78,4.04-.03,1.31-.84,2.27-2.33,2.5-4.01Zm6.54-2.51c-.42-.31-1.28.14-2.13.88-.85.74-1.67,1.77-1.84,2.71-.16.93.3,1.64.94,1.99.67.3,1.5.23,2.05-.33,1.23-1.27,1.76-4.74.98-5.26Zm8.42,7.62c-.35-1.15-1.49-1.97-2.82-2.18-.66-.15-1.39-.09-2.11.09-.72.18-1.45.55-2.11,1.17-1.25,1.14-1.94,2.78-1.88,4.34.06,1.51.9,2.94,2.36,3.35,1.85.54,3.86-.54,5.09-2.04,1.26-1.56,1.81-3.5,1.46-4.73Z"/><path class="cls-2" d="m172.49,39.3l16.06,10.17c-1.44,2.23-2.63,4.6-3.66,7.02-2.35-.59-5.02.97-5.84,3.84-.23.7-.28,1.41-.23,2.08.06.68.19,1.31.47,1.88.56,1.15,1.47,1.99,2.61,2.39-.43,2.59-.65,5.22-.67,7.86h-19.01c-3.83-6.18-4.86-13.49-2.89-19.96.91-3.25,2.63-6.26,4.83-8.88,2.25-2.6,5.07-4.8,8.32-6.4Zm-3.58,23.29c-1.74.59-2.83,2.25-3.09,3.94-.33,1.68.24,3.35,1.3,3.95,1.14.64,3.16.29,4.92-.51,1.73-.82,3.28-2.03,3.47-3.53.17-1.18-.64-2.35-1.94-3.17-1.29-.81-3.03-1.24-4.67-.68Zm-4.11-6.59c-.6,1.46,2.39,3.81,4.32,3.46,1.87-.33,2.4-2.66,1.15-3.74-1.37-1.22-4.92-1.12-5.47.27Zm9.65-10.65c-1.26-.08-2.57,1.05-3.23,2.63-.7,1.56-.64,3.56.48,4.97,1.11,1.36,2.81,1.93,4.32,1.94,1.5,0,2.88-.53,3.34-1.63.65-1.36-.02-3.24-1.04-4.85-1.04-1.61-2.56-2.98-3.87-3.06Z"/><path class="cls-2" d="m199.41,14.65l8.84,16.83c-2.41,1.24-4.69,2.71-6.87,4.3-1.73-1.7-4.85-1.71-7.06.34-1.12.98-1.73,2.3-1.9,3.54-.14,1.27.18,2.48.93,3.43-1.76,2.01-3.37,4.14-4.8,6.38l-16.06-10.17c.04-7.28,3.03-13.93,7.99-18.36,2.44-2.27,5.41-3.92,8.61-5.03,3.23-1.05,6.72-1.53,10.33-1.26Zm-14.93,18.1c-1.79-.42-3.58.41-4.7,1.7-1.16,1.25-1.57,2.96-1,4.03.62,1.15,2.52,1.93,4.43,2.19.96.13,1.92.12,2.76-.06.86-.16,1.59-.51,2.07-1.1.77-.92.71-2.35.04-3.73-.67-1.37-1.92-2.65-3.61-3.04Zm-.07-7.75c-1.26.93.06,4.48,1.89,5.2,1.77.7,3.43-1.02,2.92-2.59-.55-1.75-3.62-3.51-4.81-2.62Zm13.69-4.15c-2.11-1.5-6.75,1.47-6.22,5.14.25,1.74,1.41,3.1,2.7,3.88,1.29.76,2.75,1.02,3.72.3,1.27-.86,1.66-2.81,1.59-4.72-.08-1.92-.7-3.87-1.8-4.59Z"/><path class="cls-2" d="m234.71,6.08l-.04,19.01c-2.76.03-5.5.19-8.22.56-.72-2.31-3.47-3.76-6.43-3.08-2.94.74-4.72,3.28-4.3,5.66-2.57.9-5.06,2-7.47,3.24l-8.84-16.83c3.61-6.31,9.4-10.49,15.79-12.04,6.41-1.5,13.42-.34,19.5,3.48Zm-21.68,8.8c-1.37-1.27-3.31-1.37-4.92-.83-1.61.55-2.82,1.78-2.84,3.01-.02,1.32,1.23,2.92,2.77,4.1,1.55,1.16,3.36,1.89,4.8,1.37,1.13-.46,1.78-1.71,1.86-3.24.08-1.51-.39-3.24-1.68-4.42Zm3.66-6.83c-1.52.25-2.09,3.95-.85,5.48.61.76,1.48.93,2.23.72.76-.19,1.42-.77,1.57-1.56.36-1.8-1.49-4.82-2.95-4.64Zm13.96,2.89c-.59-1.08-2.23-1.63-3.9-1.38-.84.13-1.68.44-2.39.92-.71.49-1.28,1.2-1.61,2.06-.61,1.63-.25,3.39.52,4.7.78,1.32,1.93,2.14,3.14,2.03.77-.08,1.46-.52,2.08-1.13.62-.6,1.16-1.41,1.57-2.28.83-1.75,1.2-3.77.58-4.92Z"/><path class="cls-2" d="m269.97,14.52l-8.73,16.88c-2.41-1.23-4.89-2.34-7.49-3.19.19-1.22-.14-2.43-.91-3.45-.76-1.05-1.98-1.82-3.45-2.2-2.96-.68-5.72.79-6.44,3.09-2.74-.35-5.51-.55-8.29-.57l.04-19.01c6.06-3.84,13.01-5.03,19.4-3.5,6.37,1.55,12.18,5.7,15.87,11.94Zm-23.34-1.98c-1.28-3.55-6.74-3.82-7.89-1.59-.62,1.15-.26,3.17.57,4.91.42.87.96,1.67,1.58,2.28.62.63,1.32,1.05,2.09,1.13,1.22.11,2.37-.71,3.15-2.04.76-1.31,1.12-3.07.51-4.7Zm6.34-4.43c-1.46-.48-3.65,2.59-3.22,4.51.2.96.9,1.48,1.67,1.65.76.17,1.61-.05,2.1-.69,1.13-1.45.84-4.97-.55-5.46Zm11.17,8.87c-.02-1.27-1.26-2.43-2.86-3.01-1.62-.51-3.55-.42-4.92.86-1.28,1.18-1.75,2.92-1.65,4.43.1,1.51.75,2.79,1.89,3.23,1.45.5,3.25-.21,4.8-1.4,1.54-1.19,2.76-2.78,2.74-4.11Z"/><path class="cls-2" d="m296.93,39.25l-16.16,10c-1.39-2.23-2.95-4.37-4.7-6.36,1.54-1.85,1.28-4.92-.93-6.95-.56-.49-1.16-.87-1.78-1.14-.64-.25-1.3-.38-1.92-.4-1.25-.06-2.46.41-3.33,1.25-2.15-1.59-4.45-3.02-6.86-4.24l8.73-16.88c3.63-.35,7.11.13,10.36,1.17,3.22,1.09,6.17,2.8,8.63,5.07,4.93,4.52,7.96,11.19,7.96,18.49Zm-19.35-13.42c.27-1.84-.76-3.5-2.13-4.52-1.38-.99-3.06-1.33-4.11-.6-1.09.74-1.7,2.69-1.77,4.6-.08,1.96.36,3.84,1.6,4.72.99.69,2.43.45,3.72-.31,1.29-.78,2.45-2.15,2.69-3.89Zm7.72-.79c-1.08-1.12-4.45.46-5.01,2.36-.57,1.86,1.36,3.28,2.83,2.68,1.69-.69,3.18-3.94,2.18-5.05Zm5.35,13.32c.61-1.09.15-2.75-.97-4.05-.57-.63-1.29-1.17-2.09-1.51-.81-.32-1.72-.42-2.61-.21-1.69.39-2.95,1.67-3.62,3.03-.68,1.38-.73,2.78.01,3.72.99,1.15,2.9,1.41,4.83,1.17,1.93-.26,3.79-1,4.45-2.16Z"/><path class="cls-2" d="m306.83,74.54h-19.01c-.03-2.69-.23-5.36-.63-7.99,1.14-.39,2.06-1.23,2.62-2.38.3-.57.44-1.21.5-1.88.04-.67.03-1.4-.2-2.1-.21-.7-.52-1.35-.9-1.9-.41-.54-.9-1-1.42-1.34-1.03-.7-2.29-.93-3.47-.67-.97-2.44-2.16-4.8-3.56-7.03l16.16-10c3.31,1.59,6.06,3.86,8.3,6.48,2.18,2.65,3.79,5.71,4.68,8.96,1.81,6.5.7,13.71-3.07,19.85Zm-9.29-21.61c1.2-1.42,1.19-3.38.57-4.97-.66-1.58-1.92-2.75-3.2-2.67-1.32.06-2.85,1.42-3.9,3.01-1.1,1.63-1.7,3.44-1.12,4.84.47,1.1,1.82,1.65,3.32,1.68,1.51.01,3.22-.53,4.34-1.88Zm6.97,3.44c-.32-1.54-4.01-1.99-5.5-.67-1.47,1.28-.59,3.51.97,3.78,1.79.32,4.8-1.64,4.53-3.12Zm-2.57,14.12c2.24-1.17,1.88-6.7-1.72-7.9-1.64-.57-3.38-.16-4.68.63-1.31.81-2.1,1.96-1.97,3.16.09.76.52,1.44,1.16,2.04.61.6,1.41,1.13,2.29,1.53,1.75.81,3.77,1.17,4.92.53Z"/><path class="cls-2" d="m296.57,109.78l-16.06-10.17c1.44-2.23,2.63-4.6,3.66-7.02,2.35.59,5.02-.97,5.84-3.84.23-.7.28-1.41.23-2.08-.06-.68-.19-1.31-.47-1.88-.56-1.15-1.47-1.99-2.61-2.39.43-2.59.65-5.22.67-7.86h19.01c3.83,6.18,4.86,13.49,2.89,19.96-.91,3.25-2.63,6.26-4.83,8.89-2.25,2.6-5.07,4.8-8.32,6.4Zm3.58-23.29c1.74-.59,2.83-2.25,3.09-3.94.33-1.68-.24-3.35-1.3-3.95-1.14-.64-3.16-.29-4.92.51-1.73.82-3.28,2.03-3.47,3.53-.17,1.18.64,2.35,1.94,3.17,1.29.81,3.03,1.24,4.67.68Zm4.11,6.59c.6-1.46-2.39-3.81-4.32-3.46-1.87.33-2.4,2.66-1.15,3.74,1.37,1.22,4.92,1.12,5.47-.27Zm-9.65,10.65c1.26.08,2.57-1.05,3.23-2.63.7-1.56.64-3.56-.48-4.97-1.11-1.36-2.81-1.93-4.32-1.94-1.5,0-2.88.53-3.34,1.63-.65,1.36.02,3.24,1.04,4.85,1.04,1.61,2.56,2.98,3.87,3.06Z"/><path class="cls-2" d="m269.64,134.43l-8.84-16.83c2.41-1.24,4.69-2.71,6.87-4.3,1.73,1.7,4.85,1.71,7.06-.34,1.12-.98,1.73-2.3,1.9-3.54.14-1.27-.18-2.48-.93-3.43,1.76-2.01,3.37-4.14,4.8-6.38l16.06,10.17c-.04,7.28-3.03,13.93-7.99,18.36-2.44,2.27-5.41,3.92-8.61,5.03-3.23,1.05-6.72,1.53-10.33,1.26Zm14.94-18.1c1.79.42,3.58-.41,4.7-1.7,1.16-1.25,1.57-2.96,1-4.03-.62-1.15-2.52-1.93-4.43-2.19-.96-.13-1.92-.12-2.76.06-.86.16-1.59.51-2.07,1.1-.77.92-.71,2.35-.04,3.73.67,1.37,1.92,2.65,3.61,3.04Zm.07,7.75c1.26-.93-.06-4.48-1.89-5.2-1.77-.7-3.43,1.02-2.92,2.59.55,1.75,3.62,3.51,4.81,2.62Zm-13.69,4.15c2.11,1.5,6.75-1.47,6.22-5.14-.25-1.74-1.41-3.1-2.7-3.88-1.29-.76-2.75-1.02-3.72-.3-1.27.86-1.66,2.8-1.59,4.72.08,1.92.7,3.87,1.8,4.59Z"/><path class="cls-2" d="m234.35,143l.04-19.01c2.76-.03,5.5-.19,8.22-.56.72,2.31,3.47,3.76,6.43,3.08,2.94-.74,4.72-3.28,4.3-5.66,2.57-.9,5.06-2,7.47-3.24l8.84,16.83c-3.61,6.31-9.4,10.49-15.79,12.04-6.41,1.5-13.42.34-19.5-3.48Zm21.68-8.8c1.37,1.27,3.31,1.37,4.92.83,1.61-.55,2.82-1.78,2.84-3.01.02-1.32-1.23-2.92-2.77-4.1-1.55-1.16-3.36-1.89-4.8-1.37-1.13.46-1.78,1.71-1.87,3.24-.08,1.51.39,3.24,1.68,4.42Zm-3.67,6.83c1.52-.25,2.09-3.95.85-5.48-.61-.76-1.48-.93-2.23-.72-.76.18-1.42.77-1.57,1.56-.36,1.8,1.49,4.82,2.95,4.64Zm-13.96-2.89c.59,1.08,2.23,1.63,3.9,1.38.84-.13,1.68-.44,2.39-.92.71-.49,1.28-1.2,1.61-2.06.61-1.63.25-3.39-.52-4.7-.77-1.32-1.93-2.14-3.14-2.03-.77.08-1.46.52-2.08,1.13-.62.6-1.16,1.41-1.57,2.28-.83,1.75-1.2,3.77-.58,4.92Z"/><path class="cls-2" d="m199.08,134.56l8.73-16.88c2.41,1.23,4.89,2.34,7.49,3.19-.19,1.22.14,2.43.91,3.45.76,1.05,1.98,1.82,3.45,2.2,2.96.68,5.72-.79,6.44-3.09,2.74.35,5.51.55,8.29.57l-.04,19.01c-6.06,3.84-13.01,5.03-19.4,3.5-6.37-1.55-12.18-5.7-15.87-11.94Zm23.34,1.98c1.28,3.55,6.74,3.82,7.89,1.59.62-1.15.26-3.17-.57-4.91-.42-.87-.96-1.67-1.58-2.28-.62-.63-1.32-1.05-2.09-1.13-1.22-.11-2.37.71-3.15,2.04-.76,1.31-1.12,3.07-.51,4.7Zm-6.34,4.43c1.46.48,3.65-2.59,3.22-4.51-.2-.96-.9-1.48-1.67-1.65-.76-.17-1.61.05-2.1.69-1.13,1.45-.84,4.97.55,5.46Zm-11.17-8.87c.02,1.27,1.26,2.43,2.86,3.01,1.62.51,3.55.42,4.92-.86,1.28-1.18,1.75-2.92,1.65-4.43-.1-1.51-.75-2.79-1.89-3.23-1.45-.5-3.25.21-4.8,1.4-1.54,1.19-2.76,2.78-2.74,4.11Z"/><path class="cls-2" d="m172.13,109.83l16.16-10c1.39,2.23,2.95,4.37,4.7,6.36-1.54,1.85-1.28,4.92.93,6.95.56.49,1.16.87,1.78,1.14.64.25,1.3.38,1.92.4,1.25.06,2.46-.41,3.33-1.25,2.15,1.59,4.45,3.02,6.86,4.24l-8.73,16.88c-3.63.35-7.11-.13-10.36-1.17-3.22-1.09-6.17-2.8-8.63-5.07-4.93-4.52-7.96-11.19-7.96-18.49Zm19.35,13.42c-.27,1.84.76,3.5,2.13,4.52,1.38.99,3.06,1.33,4.11.6,1.09-.74,1.7-2.69,1.77-4.6.08-1.96-.36-3.84-1.6-4.72-.99-.69-2.43-.45-3.72.31-1.29.78-2.45,2.15-2.69,3.89Zm-7.72.79c1.08,1.12,4.45-.46,5.01-2.36.57-1.86-1.36-3.28-2.83-2.68-1.69.69-3.18,3.94-2.18,5.05Zm-5.35-13.32c-.61,1.09-.15,2.75.97,4.05.57.63,1.29,1.17,2.09,1.51.81.32,1.72.42,2.61.21,1.69-.39,2.95-1.67,3.62-3.03.68-1.38.73-2.78-.01-3.72-.99-1.15-2.9-1.41-4.83-1.17-1.93.26-3.79,1-4.45,2.16Z"/><path class="cls-2" d="m162.23,74.54h19.01c.03,2.69.23,5.36.63,7.99-1.14.39-2.06,1.23-2.62,2.38-.3.57-.44,1.21-.5,1.88-.04.67-.03,1.4.2,2.1.21.7.52,1.35.9,1.9.41.54.9,1,1.42,1.34,1.03.7,2.29.93,3.47.67.97,2.44,2.16,4.8,3.56,7.03l-16.16,10c-3.31-1.59-6.06-3.86-8.3-6.48-2.18-2.65-3.79-5.71-4.68-8.96-1.81-6.5-.7-13.71,3.07-19.85Zm9.29,21.61c-1.2,1.42-1.19,3.38-.57,4.97.66,1.58,1.92,2.75,3.2,2.67,1.32-.06,2.85-1.42,3.9-3.01,1.1-1.63,1.7-3.44,1.12-4.84-.47-1.1-1.82-1.65-3.32-1.68-1.51-.01-3.22.53-4.34,1.88Zm-6.97-3.44c.32,1.54,4.01,1.99,5.5.67,1.47-1.28.59-3.51-.97-3.78-1.79-.32-4.8,1.64-4.53,3.12Zm2.57-14.12c-2.24,1.17-1.88,6.7,1.72,7.9,1.64.57,3.38.16,4.68-.63,1.31-.81,2.1-1.96,1.97-3.16-.09-.76-.52-1.44-1.16-2.04-.61-.6-1.41-1.13-2.29-1.53-1.75-.81-3.77-1.17-4.92-.53Z"/><path class="cls-1" d="m356.36,133.66c-13.1,0-27.01,1.28-35.15,1.28-5.91,0-9.74-2.88-9.74-7.03,0-7.51,5.75-6.23,12.31-14.86,3.99-5.28,4.94-17.26,4.94-30.68v-15.5c0-13.42-.95-25.4-4.94-30.68-6.56-8.63-10.71-8.94-10.71-14.22,0-4.79,3.83-7.67,9.74-7.67,4.79,0,10.86,1.28,17.58,1.28s11.02-1.28,17.58-1.28c5.91,0,9.74,2.88,9.74,7.67,0,5.28-4.15,5.59-10.71,14.22-3.99,5.28-4.96,17.26-4.96,30.68v25.09c0,15.81.81,27.8,15.51,27.8,12.78,0,20.61-7.67,30.03-23.65,4.96-8.47,8.31-13.74,13.58-12.62,5.59,1.12,7.35,15.5,5.75,31.15-1.59,15.5-7.99,20.45-16.44,20.45s-31.16-1.44-44.1-1.44Z"/><path class="cls-2" d="m317.97,141.04l14.36-18.9h0c.01.3.01.59.06.87.15.27.33.53.54.77.42.49.95.91,1.57,1.26,1.25.69,2.85,1.07,4.58.98,3.46-.18,6.29-2.11,6.74-4.52,3.47-.13,6.97-.22,10.54-.22v19.01c-5.43,3.88-10.7,5.99-16.25,6.25-1.39.07-2.79.01-4.2-.16-.7-.08-1.42-.2-2.14-.34-.11-.04-.51-.06-.84-.1l-1.01-.1c-.66-.08-1.31-.16-1.98-.24-2.59-.36-5.01-.87-7.09-1.58-.53-.16-1.02-.37-1.47-.61-.46-.23-.9-.46-1.32-.69-.8-.51-1.49-1.09-2.08-1.67Zm26.53-5.95c1.97,3.1,6.9,2.75,7.92.48,1.08-2.4-1.9-7.93-5.4-7.77-2.76.12-4.37,4.35-2.51,7.29Zm-4.82,5.82c1.37.06,2.65-3.42,1.8-5.18-.85-1.75-3.3-1.4-3.83.12-.61,1.72.71,4.99,2.03,5.06Zm-13.94-4.2c.05,1.13,1.81,1.7,3.94,1.54,1.05-.08,2.15-.34,3.06-.78.49-.22.76-.48,1.08-.8.3-.31.56-.67.77-1.08.78-1.55.67-3.34.03-4.72-.32-.69-.78-1.29-1.32-1.7-.24-.21-.65-.36-.75-.48-.16-.11-.33-.17-.5-.17-.82.03-1.92,1.46-3.39,3.22-1.41,1.76-3,3.81-2.91,4.98Z"/><path class="cls-2" d="m317.96,109.69l14.73,12.01-.36.44c-1.6-.16-3.14-.23-4.5-.03-1.34.17-2.46.7-2.55,1.3-.11.59.71.95,2.1.71,1.38-.22,3.12-1,4.95-1.98l-14.36,18.9c-4.96,1.2-9.61.63-13.13-1.82-1.77-1.2-3.21-2.91-4.23-4.86-.99-1.96-1.48-4.09-1.49-6.24-.01-2.15.35-4.2,1.07-5.87.38-.84.84-1.65,1.39-2.43.31-.4.62-.79.96-1.19.38-.41.76-.81,1.16-1.2,1.68-1.62,4.18-3.25,6.93-4.57.69-.3,1.39-.61,2.1-.92l1.03-.43.94-.44c.62-.29,1.23-.56,1.83-.81.16-.08.28-.1.47-.23.17-.1.39-.26.43-.24l.53-.1Zm-6.89,21.48c-1.07,1.48-.5,3.5.98,4.53,1.44,1.09,3.59,1.22,5.06.45.38-.19.74-.44,1.07-.73.36-.31.56-.54,1-1.04.78-.91,1.47-1.86,2.1-2.81,1.2-1.88,2.28-3.46,1.61-3.96-.54-.39-2.52-.1-5.03.46-1.25.29-2.63.69-3.96,1.23-.67.27-1.32.59-1.94.95-.36.26-.63.55-.89.91Zm-6.24-4.26c-.04.45.1.86.45,1.19.35.33.84.57,1.37.7,1.06.26,2.33.06,3.21-.59.89-.65,1.26-1.55,1.41-2.33.12-.78-.03-1.45-.68-1.67-.74-.25-2.13-.06-3.36.46-1.25.49-2.26,1.39-2.39,2.24Zm13.62-10.98c-1.6-.14-3.9.98-5.19,2.33-1.3,1.35-1.58,2.72-.42,3.41.28.17.6.28.98.36.52.08,1.09.12,1.7.12,1.21.02,2.52-.07,3.72-.19,2.42-.28,4.36-.52,4.9-.91.69-.48-.26-1.33-1.38-2.52-1.13-1.12-2.58-2.48-4.31-2.6Z"/><path class="cls-2" d="m322.08,81.13h19.01c0,3.4-.03,7.01-.19,10.62-2.41.47-4.36,3.37-4.73,7.09-.18,1.86.02,3.66.54,5.16.5,1.52,1.34,2.73,2.43,3.32-.46,2.11-1.05,4.34-2,6.79l-.82,1.9c-.33.67-.7,1.36-1.08,2.05-.4.7-.9,1.41-1.37,2.09-.5.73-.83,1.07-1.21,1.55l-14.73-12.01c-.01-.37-.02-.73-.07-1.03-.11-.26-.22-.5-.32-.71-.11-.23-.22-.45-.33-.67-.1-.21-.2-.42-.3-.69-.36-.89-.68-1.99-.89-3-.45-2.14-.57-4.44-.31-6.85.51-4.83,2.55-10.03,6.34-15.61Zm4.18,21.59c-1.74.61-2.76,2.03-3.23,3.38-.43,1.38-.35,2.72.49,3.65.89.96,2.8,1.53,4.82,1.09,1.02-.22,1.95-.66,2.78-1.33.76-.64,1.4-1.52,1.59-2.47.37-1.54-.47-2.95-1.75-3.79-1.31-.84-3.07-1.1-4.7-.52Zm-4.89-5.55c-.24,1.23,2.95,3.01,4.84,2.52,1.88-.52,1.9-3.03.45-3.74-1.63-.81-5.03.04-5.29,1.22Zm5.45-12.09c-2.27,1.05-2.59,5.9.47,7.89,2.9,1.91,7.19.36,7.31-2.48.16-3.58-5.4-6.49-7.79-5.41Z"/><path class="cls-2" d="m321.02,48.43l18.78-2.93c.61,3.99.9,7.72,1.07,11.36-2.37.69-4.05,3.76-4.02,7.31.03,3.59,1.84,6.33,4.24,6.88v10.08h-19.01c-1.94-2.81-3.38-5.62-4.33-8.44-.96-2.79-1.42-5.7-1.43-8.32-.05-5.36,1.7-10.44,4.71-15.95Zm6.53,20.79c-3.19,1.83-2.99,6.88-.72,7.94,2.38,1.1,7.95-1.74,7.91-5.16-.02-2.7-4.18-4.5-7.19-2.77Zm-5.6-5.04c-.11,1.33,3.3,2.76,5.1,2,1.79-.76,1.53-3.24.03-3.81-1.69-.65-5.02.54-5.13,1.82Zm4.25-12.63c-2.11,1.26-2,6.04,1.23,7.77,3.06,1.63,7.18-.29,7.06-3.14-.08-1.79-1.59-3.35-3.36-4.21-1.78-.88-3.79-1.08-4.93-.42Z"/><path class="cls-2" d="m307.91,15.63l24.82,11.95c-1.65,0-3.01.09-3.72.4-.73.29-.82.81-.42,1.25.2.22.49.38.82.45.16.03.35.05.51.02.03-.09.25.06.43.15.18.1.37.18.55.27.18.08.38.17.59.28.23.13.45.27.67.4.44.25.87.46,1.29.64.84.35,1.52.51,2.18.44,1.45,2.73,2.27,5.15,2.85,7.34.6,2.22,1.01,4.3,1.31,6.28l-18.78,2.93c-1.14-1.1-2.21-2.09-3.16-2.96-.47-.44-.94-.8-1.35-1.16-.43-.28-.81-.65-1.15-.79-.17-.08-.33-.22-.47-.24l-.36-.06c-.1,0-.19.06-.25.08-.05,0-.01.07-.13-.01-.08-.04-.21-.16-.31-.24-.11-.1-.2-.17-.33-.28-.27-.3-.51-.57-.75-.81-.49-.51-1.03-.99-1.54-1.5-.52-.5-1-1.02-1.54-1.52l-1.61-1.51c-2.07-2.02-3.91-4.23-4.63-6.26-.8-2.03-.98-3.79-.84-5.49.16-1.69.56-3.55,1.45-5.37.89-1.78,2.13-3.44,3.85-4.68Zm14.95,21.29c-.79,1.64-.86,3.02-.44,4.33.41,1.3,1.36,2.46,2.56,2.7,1.27.23,3.14-.58,4.49-2.07,1.33-1.47,2.17-3.69,1.17-5.81-.79-1.68-2.7-2.6-4.21-2.22-1.51.37-2.89,1.51-3.59,3.07Zm-9.25-1.94c.72.81,2.34,1.24,3.68,1.17,1.38-.07,2.6-.64,3.12-1.44,1.02-1.61-.7-3.11-2.91-3.22-1.21-.04-2.58.36-3.43,1.04-.84.67-1.13,1.67-.45,2.45Zm-2.38-13.11c-1.17.24-1.7,1.97-.89,3.58.79,1.58,2.82,3.06,5.38,3.59,1.19.25,2.34.27,3.37.17,1.02-.1,1.9-.31,2.64-.53,1.45-.48,2.41-.91,1.97-1.4-.29-.32-1.03-.69-2.08-1.18-1.19-.57-2.47-1.19-3.74-1.8-1.41-.67-2.84-1.38-4.22-1.91-.29-.11-.57-.21-.85-.32-.2-.07-.39-.13-.58-.17-.37-.08-.71-.1-1-.02Z"/><path class="cls-2" d="m345.51,8.69l1.83,18.92c-3.86.4-8.25.45-12.1.16-.11-.61-.39-1.19-.79-1.73-.2-.27-.43-.53-.69-.78-.13-.12-.27-.24-.41-.36l-.22-.17c-.09-.06-.15-.11-.14-.16-.24-.78-.84-1.3-1.43-1.37-.59-.07-.95.36-.75,1.16.18.79.92,1.93,1.92,3.21l-24.82-11.95c-.03-2.08.5-4.04,1.37-5.74.86-1.72,2.06-3.19,3.54-4.42,1.5-1.22,3.28-2.19,5.49-2.81,2.19-.63,4.81-.81,7.58-.62,2.76.18,5.61.66,8.36,1.18l.5.09.24.05.12.04.46.15.9.32c.59.22,1.18.47,1.75.74,2.29,1.06,4.53,2.45,7.3,4.08Zm-21.85,4.55c-1.92-1.55-4.45-2.01-6.24-1.5-1.82.48-2.82,1.81-2.32,2.83.12.26.34.51.64.75.15.12.32.24.5.35.25.15.51.31.78.47,1.27.75,2.72,1.44,4.11,2.14,2.82,1.34,5.08,2.6,5.89,2.52.65-.06.43-1.14-.06-2.64-.26-.74-.63-1.59-1.16-2.46-.27-.43-.58-.87-.95-1.31-.35-.4-.74-.79-1.19-1.14Zm4.01-5.39c-1.08-.15-1.88.65-2.03,1.7-.16,1.08.26,2.38,1.06,3.33,1.62,1.88,3.75,1.92,4.32.48.29-.82.08-2.1-.57-3.24-.63-1.13-1.75-2.13-2.78-2.27Zm14.44,5.82c-.56-1.11-1.98-1.7-3.5-1.69-1.52.02-3.22.63-4.27,2.15-1.02,1.42-1.03,3.22-.7,4.67.45,1.47,1.56,2.61,3.03,2.7,1.86.12,3.65-1.24,4.66-2.95,1.03-1.7,1.34-3.71.77-4.88Z"/><path class="cls-2" d="m371.74,29.21l-23.68-1.67c1.87-.73,3.51-1.52,4.47-2.37.97-.84,1.15-1.65.59-1.86-.56-.21-1.6.21-2.52,1.02-.94.8-1.76,1.94-2.54,3.21l-.71.07-1.83-18.92.45-.41c.05-.06.18-.14.32-.21l.4-.22c.54-.29,1.1-.57,1.68-.85,1.16-.56,2.38-1.09,3.66-1.57,2.54-.94,5.29-1.68,7.92-1.97,5.32-.54,9.63.67,12.94,3.29,1.62,1.34,3,3.02,3.96,5.01.95,1.99,1.45,4.23,1.38,6.44-.05,2.21-.63,4.46-1.74,6.26-1.08,1.82-2.7,3.31-4.74,4.73Zm-12.95-15.94c.14-1.46-1.45-2.39-3.46-2.4-2.01-.02-4.16.83-4.92,2.05-.83,1.29-.48,3.24-.14,4.9.41,1.65.63,3.02,1.46,2.96.67-.04,2-1.17,3.61-2.68.79-.75,1.61-1.6,2.28-2.47.33-.43.63-.87.86-1.31.17-.36.27-.71.3-1.07Zm9.7-2.58c-.68-.53-2.12-.36-3.42.26-1.3.59-2.46,1.62-2.75,2.39-.29.8.19,1.27.94,1.56.75.29,1.78.42,2.67.19,1-.27,1.98-1.04,2.54-1.96.56-.9.67-1.94.03-2.45Zm.15,14.85c.74-.3,1.43-.85,1.92-1.59.45-.75.73-1.69.63-2.62-.08-1.88-1.52-3.58-3.46-3.66-.45-.03-.89.02-1.33.13-.66.23-1.3.51-1.91.82-1.22.63-2.32,1.38-3.26,2.09-1.88,1.46-3.22,2.7-3.15,3.36.1.82,2.17,1.13,4.4,1.51,1.14.17,2.32.29,3.52.32.27,0,.53,0,.78,0,.21,0,.42-.02.64-.05.43-.05.84-.15,1.22-.31Z"/><path class="cls-2" d="m358.8,59.17l-18.99-.72c.14-3.62.38-7.31.89-11.21,2.49-.34,4.59-3.15,5.74-7.26.27-1.02.54-2.1.68-3.13.23-1.09.29-2.09.45-3.16.06-.52.1-1.04.12-1.53.05-.5.08-.98.07-1.42-.03-.87-.12-1.72-.51-2.18l.8-1.01,23.68,1.67c.04.4.09.8.09,1.23-.02.43-.05.88-.09,1.34-.2.94-.42,1.93-.94,2.94-.44,1.03-1.07,2.06-1.73,3.12-.64,1.07-1.29,2.19-2,3.32l-.53.92c-.1.22-.1.31-.16.47-.09.28-.23.59-.09.6.07.08.12.12.16.18.05.09.08.18.09.27.05.47-.1,1.09-.33,1.96-.48,1.67-1.36,3.82-2.58,6.13-1.23,2.33-2.82,4.84-4.82,7.47Zm-1.69-21.02c1.86-.02,2.88-.22,4.58-2.07.71-.78,1.3-1.6,1.6-2.31.29-.72.25-1.32-.16-1.73-.88-.85-3.46-.99-5.66-1.07-1.1-.03-2.12-.03-2.9.02-.79.08-1.3.13-1.62.57-.24.3-.39.61-.52.97-.14.39-.25.87-.27,1.29-.07.86.21,1.67.67,2.31.91,1.31,2.58,1.98,4.27,2.01Zm3.63,5.99c.2-.52-.43-1.26-1.3-1.94-.89-.68-2.05-1.31-3.02-1.28-1.96.05-2.41,2.6-1.06,3.48,1.5,1,4.98.65,5.38-.27Zm-6.49,10.92c1.18-.44,1.88-1.87,1.98-3.42.09-1.56-.43-3.26-1.86-4.4-1.36-1.08-3.11-1.41-4.61-1.04-1.49.36-2.73,1.44-2.9,2.88-.24,1.84,1,3.62,2.61,4.76,1.6,1.15,3.57,1.69,4.78,1.23Z"/><path class="cls-2" d="m358.67,92.67l-19.01.05v-10.11c2.39-.52,4.22-3.36,4.22-6.81s-1.83-6.28-4.22-6.8l.02-5.18c.02-1.77.06-3.56.13-5.37l18.99.72c1.83,2.77,3.24,5.44,4.2,8.18.96,2.81,1.43,5.63,1.42,8.44-.02,5.62-1.96,11.28-5.75,16.88Zm-5.48-21.84c1.6-.91,2.34-2.64,2.41-4.26.07-1.6-.53-3.11-1.65-3.65-1.18-.57-3.17-.18-4.87.82-1.7.98-3.09,2.62-3.07,4.32.02,2.7,4.18,4.5,7.19,2.77Zm5.59,5.12c.12-1.38-3.28-2.83-5.09-2.07-1.78.77-1.56,3.23-.07,3.84,1.68.7,5.02-.45,5.16-1.78Zm-4.86,12.76c2.27-1.06,2.47-6.1-.72-7.94-3.01-1.73-7.17.07-7.19,2.77-.03,3.42,5.53,6.27,7.91,5.16Z"/><path class="cls-2" d="m366.02,113.04l-1.75,18.93c-.6-.02-1.37-.15-2.1-.28-.73-.13-1.46-.26-2.19-.42-.35-.06-.75-.18-1.15-.31l-1.2-.39c-.79-.28-1.59-.54-2.35-.9-1.48-.77-3.02-1.49-4.31-2.55-.66-.51-1.34-1.02-1.95-1.58-.59-.59-1.17-1.2-1.73-1.82.5-1.16.35-3.1-.13-5.27-.18-1.09-.41-2.27-.73-3.47-.16-1.08-.49-2.24-.78-3.34-1.17-4.35-3.11-7.32-5.6-7.8-.35-4.03-.37-7.66-.39-11.13l19.01-.05c1.93,2.77,3.43,5.39,4.53,7.74,1.09,2.36,1.85,4.39,2.23,5.72.03.21.08.32.12.45.03.13.05.27.06.41,0,.2,0,.16-.02.22-.02.05-.06.1-.11.17-.19.19-.46.47-.63.93-.37.99-.65,2.58,1.17,4.72Zm-12.29-8.6c.75-.55,1.24-1.23,1.57-1.97.34-.75.49-1.55.47-2.32,0-1.56-.67-3.02-1.81-3.52-2.39-1.06-7.97,1.87-7.67,5.65.09,1.45,1.32,2.63,2.78,3.04,1.48.43,3.25.15,4.65-.87Zm6.3,3.31c-.06-.51-.98-.82-2.11-.96-1.12-.14-2.42-.08-3.24.47-.8.53-.98,1.39-.77,2.14.22.75.92,1.31,1.69,1.31.89,0,2.01-.58,2.92-1.22.91-.65,1.58-1.28,1.52-1.75Zm2.15,9.32c-.06-1.2-.8-2.14-1.72-2.79-1-.57-2.25-1.06-4.05-.9-.85.09-1.69.31-2.39.68-.72.38-1.35.93-1.74,1.61-.4.68-.59,1.51-.51,2.39.05.9.54,1.72,1.21,2.46.41.49.99.78,1.54,1.03.57.23,1.13.41,1.72.45,1.21.04,2.33-.24,3.23-.74,1.88-1.12,2.75-2.94,2.71-4.2Z"/><path class="cls-2" d="m387.49,99.66l15.66,10.77c-2.17,3.14-4.58,6.34-7.63,9.48-1.13-.59-2.54-.55-4.22-.09-1.64.47-3.44,1.39-5.31,2.63-.94.62-1.78,1.3-2.61,1.94-.8.67-1.52,1.37-2.16,2.03-1.25,1.38-2.11,2.74-2.14,3.99-.62.19-1.23.39-1.85.55l-1.86.4c-1.25.29-2.46.41-3.69.56-1.24.16-2.39.14-3.59.2-1.2.03-2.55-.08-3.82-.15l1.75-18.93c.51-.43,1.01-.86,1.51-1.28.51-.44,1-.86,1.46-1.23.89-.8,1.64-1.51,2.26-2.16,1.25-1.3,2.09-2.2,3.36-3.02,1.25-.82,2.91-1.65,5.07-2.6,2.16-.93,4.78-2.04,7.82-3.1Zm-10.83,17.25c-.35-.29-.71-.51-1.08-.68-.37-.19-.75-.33-1.12-.43-.37-.09-.73-.13-1.09-.13-.37-.03-.72-.02-1.06.04-.67.14-1.33.34-1.86.69-.53.37-.96.85-1.18,1.41-.44,1.19.01,3.21,1.27,4.78.63.77,1.47,1.45,2.42,1.88.96.36,2.05.51,3.08.23.82-.25,1.49-.74,1.95-1.35.45-.64.69-1.42.73-2.19.07-1.56-.73-3.17-2.06-4.25Zm1.16-6.92c-.46.21-.45,1.21-.24,2.31.22,1.08.69,2.31,1.44,2.93,1.51,1.24,3.53-.39,3.03-1.95-.25-.87-1.13-1.78-2.02-2.43-.9-.67-1.77-1.03-2.22-.85Zm11.32-4.49c-1.24-.3-2.57.49-3.52,1.64-.92,1.2-1.49,2.79-1.05,4.58.4,1.66,1.56,3.03,2.99,3.65,1.45.64,3.06.45,4.18-.66.64-.71,1-1.64,1.11-2.6.09-.97-.09-2-.42-2.93-.66-1.86-2.01-3.38-3.28-3.68Z"/><path class="cls-2" d="m418.03,80.52l-13.02,27.11c.17-2.26.19-4.2-.05-5.34-.22-1.15-.66-1.47-1-.98-.34.49-.48,1.59-.29,2.73.18,1.16.69,2.36,1.34,3.58l-.28.44c-.49.78-1.05,1.57-1.58,2.36l-15.66-10.77c-.03-.68-.04-1.34-.04-1.98.03-.68-.1-1.14.26-2.28.52-2.01,1.21-4.25,2.01-6.46,1.57-4.51,3.82-9.02,6.45-11.89,2.63-2.91,5.38-4.38,8.1-4.79,1.37-.23,2.77-.23,4.28.01,1.51.22,3.09.84,4.58,1.59.58.38,1.16.77,1.7,1.2.52.47,1,.98,1.41,1.55.82,1.14,1.4,2.45,1.79,3.9Zm-19.31,11.49c-1.23-.97-2.83.09-3.96,1.86-1.13,1.76-1.71,3.9-1.12,5.07.61,1.26,2.56,1.9,4.24,2.4,1.71.44,3.04.89,3.45.17.33-.58.09-2.21-.33-4.25-.43-1.98-1.13-4.4-2.28-5.24Zm1.97-11.15c-.64.47-1.08,2.08-1.11,3.74-.05,1.69.28,3.38.79,4.13,1,1.48,2.2-.82,2.53-3.03.14-1.26-.04-2.65-.47-3.65-.43-1.02-1.11-1.6-1.72-1.18Zm12.3,1.35c-.07-.8-.59-1.54-1.4-1.97-1.01-.53-2.46-.62-3.69.1-1.24.69-2.22,2.04-2.75,3.71-.18.55-.29,1.1-.36,1.65-.07.79-.1,1.55-.1,2.28,0,1.45.12,2.77.27,3.9.34,2.25.69,3.78,1.3,3.55.59-.24,1.46-1.81,2.61-3.86.94-1.72,2.04-3.72,2.94-5.63.23-.48.44-.97.64-1.45l.14-.36.08-.18c.05-.12.1-.23.13-.35.16-.47.23-.94.19-1.39Z"/><path class="cls-2" d="m422.44,121.92l-18.54-4.19c.25-1.13.46-2.36.61-3.68.09-.61.16-1.4.23-2.14l.17-2.23c1.21-.15,2.31-.84,3.11-1.91.77-.25,1.25-.88,1.24-1.48,0-.6-.49-.94-1.26-.7-.77.21-1.82,1-2.99,2.05l13.02-27.11c2.94.48,5.82,1.97,8,5.32,1.09,1.65,1.97,3.73,2.61,6.1.62,2.39.98,5.05,1.11,7.8.14,2.75-.03,5.62-.35,8.38l-.07.52-.06.31-.13.58c-.1.38-.21.77-.31,1.16-.23.77-.49,1.53-.79,2.28-1.18,2.89-3.03,6.2-5.59,8.96Zm-4.07-23.99c1.4-2.03,1.75-4.75,1.35-6.63-.39-1.9-1.42-2.89-2.32-2.29-.24.16-.48.42-.73.78-.13.18-.25.38-.38.59-.15.27-.31.55-.48.84-.73,1.33-1.48,2.88-2.17,4.33-1.37,2.96-2.56,5.28-2.45,6.08.09.65,1.16.38,2.6-.17.72-.29,1.53-.7,2.33-1.27.4-.29.81-.62,1.2-1,.37-.37.72-.79,1.05-1.27Zm5.8,3.84c.04-1.09-.85-1.85-1.91-1.97-1.08-.13-2.35.35-3.21,1.2-1.69,1.7-1.48,3.83,0,4.34.84.25,2.1,0,3.16-.7,1.07-.68,1.93-1.83,1.96-2.87Zm-5.64,15.03c2.45-.8,3.13-6.1-.01-8.1-2.95-1.81-7.14-.25-7.34,2.27-.14,1.6,1.11,3.23,2.64,4.34,1.55,1.14,3.46,1.89,4.71,1.49Z"/><path class="cls-2" d="m389.84,141.43l.76-18.99c3.29.13,6.66.26,9.61.28.05.3.16.59.25.87.06.27.13.54.23.79.18.49.51.97.8,1.29.67.72,1.47.97,2.07.73.3-.11.47-.39.57-.66.06-.37.06-.66-.09-1.1-.25-.77-.96-1.69-1.88-2.4.43-.53,1.23-2.26,1.71-4.5l18.54,4.19c1.16,3.61,1.46,7.69-.08,12.09-.41,1.1-.85,2.19-1.54,3.28-.6,1.09-1.43,2.14-2.31,3.15-1.83,1.97-4.17,3.73-6.72,4.79-2.53,1.1-5.18,1.63-7.55,1.64-1.23.05-2.33-.08-3.45-.22-.31-.03-.49-.09-.68-.14l-.58-.16c-.39-.11-.78-.22-1.15-.35-2.98-1.02-5.76-2.56-8.52-4.57Zm21.86-9.56c1.86.45,3.81-.84,4.8-2.51,1-1.67,1.01-3.55.15-4.44-.95-.97-2.95-1.09-4.87-.91-.96.09-1.83.31-2.6.53-.37.12-.7.26-.96.45-.27.16-.5.33-.64.57-.46.71-.08,1.85.59,3.17.71,1.3,1.78,2.75,3.52,3.15Zm-2.39,8.28c.49-.19.91-.58,1.18-1.08.27-.51.39-1.15.38-1.76-.02-1.23-.62-2.39-1.47-2.93-.42-.26-.86-.37-1.27-.37-.42,0-.84.06-1.2.25-.72.36-1.36.95-1.49,1.8-.15.89.24,2.12,1,2.99.75.86,1.91,1.46,2.87,1.1Zm-15.29-3.32c.97,2.29,6.11,2.71,8.09-.64.79-1.61.42-3.37-.15-4.73-.28-.66-.66-1.29-1.06-1.71-.34-.41-.95-.69-1.59-.7-3.24-.08-6.32,5.35-5.3,7.78Z"/><path class="cls-2" d="m356.36,140.29v-19.01c3.59,0,7.03.09,10.47.2.46,2.41,3.28,4.33,6.74,4.46,3.45.14,6.38-1.57,7-3.93l10.04.43-.76,18.99c-5.81,3.64-11.52,5.27-17.09,5.04-5.58-.23-10.99-2.36-16.4-6.18Zm21.8-4.84c1.69,3.27,6.74,3.28,7.9,1.06,1.2-2.33-1.39-8.01-4.82-8.13-2.71-.09-4.68,3.98-3.08,7.06Zm-5.33,5.37c1.36.18,2.95-3.17,2.26-5-.69-1.81-3.16-1.68-3.83-.22-.76,1.65.26,5.04,1.57,5.22Zm-12.52-5.25c1.01,2.27,5.98,2.61,7.93-.51,1.83-2.95.19-7.17-2.55-7.27-3.48-.14-6.45,5.39-5.37,7.79Z"/><path class="cls-1" d="m441.9,127.91c0-7.51,5.75-6.23,12.31-14.86,3.99-5.28,4.79-5.28,4.79-13.1,0-8.63-7.83-22.85-16.3-37.87-13.26-23.48-28.44-19.65-33.71-30.2-2.24-4.48-.33-8.79,2.72-12.15,2.88-3.19,8.3-7.19,19.01-7.19,11.51,0,26.2,15.02,43.62,56.88.96,2.4,2.08,2.56,3.84.32,15.82-21.09,18.21-38.99,23.64-48.73,3.84-6.87,8.64-8.79,14.39-8.63,7.35.16,13.58,4.79,12.95,13.43-.81,10.06-13.91,27-43.78,59.44-6.08,6.71-3.2,20.77,2.07,27.8,6.56,8.63,12.31,7.35,12.31,14.86,0,4.16-3.84,7.03-9.74,7.03-4.63,0-13.58-1.28-19.18-1.28s-13.91,1.28-19.18,1.28c-5.91,0-9.74-2.88-9.74-7.03Z"/><path class="cls-2" d="m452.34,101.76l19,.52c-.02,1.63-.24,5.51-1.27,8.45-.51,1.53-1.2,2.98-2.04,4.36-.41.69-.88,1.37-1.34,2l-1,1.33c-1.12-.5-2.47-.49-3.72-.11-.16.05-.31.11-.47.17-.15.06-.37.21-.56.32-.35.19-.89.66-.91.52-.31.05-.6.19-.79.4-.4.41-.35.91.33,1.26.66.35,1.96.56,3.56.71l-27.67,8.1c-1.14-1.42-1.94-3.11-2.39-4.73-.47-1.63-.65-3.06-.61-4.54.07-1.48.44-3.17,1.59-5.05l.98-1.43c.43-.48.91-.96,1.37-1.44l.72-.72.86-.68,1.76-1.35c1.11-.91,2.27-1.78,3.36-2.68.46-.42,1.1-1.17,1.12-1.13l.25-.19.14-.1.2-.19c.55-.52,1.11-.99,1.66-1.41.24-.17.57-.42.76-.51.18-.06.44-.21.51-.13.5.15,1.17.21,1.95.05.39-.08.8-.21,1.23-.41.22-.04.45-.34.69-.58.24-.23.48-.52.72-.81Zm-5.63,17.03c-2.7.25-4.92,1.44-6,2.65-1.11,1.2-1.09,2.62-.06,2.99.26.09.59.11.98.08.19-.02.4-.05.62-.09.3-.06.6-.12.92-.19,1.5-.31,3.13-.79,4.7-1.21,1.43-.38,2.86-.76,4.19-1.11,1.15-.3,1.95-.53,2.28-.77.5-.37-.39-.87-1.74-1.45-1.41-.56-3.3-1.11-5.89-.9Zm-1.33-6.33c-.91.67-.97,1.75-.24,2.57.72.84,2.09,1.42,3.42,1.5,1.32.08,2.3-.31,2.84-.85.51-.58.65-1.37.28-2.05-.46-.78-1.49-1.45-2.74-1.71-1.24-.28-2.72-.12-3.56.54Zm11.4-7.17c-1.19.17-2.04.96-2.61,1.89-.45.82-1.03,2.73-.28,4.38.69,1.58,2.13,2.64,3.58,3.08.72.22,1.45.28,2.11.16.32-.06.64-.17.92-.34.14-.09.27-.17.4-.29.14-.14.28-.28.4-.45.29-.37.62-.98.78-1.52.18-.56.26-1.13.24-1.69-.03-1.13-.45-2.18-1.08-3.01-1.27-1.68-3.22-2.36-4.46-2.21Z"/><path class="cls-2" d="m442.26,74.93l16.7-9.07c1.59,2.93,3.17,5.91,4.7,9.03-1.9,1.55-2.27,4.92-.86,8.2.71,1.64,1.73,3.05,2.91,4.04,1.15,1.03,2.47,1.64,3.71,1.58.3,1.01.59,2.01.86,3.07l.37,1.67c.13.53.23,1.14.32,1.77.09.62.18,1.23.26,1.87.05.7.09,1.41.12,2.11.04.81.02,1.16.02,1.64l-.02,1.44-19-.52c-.46-.58-.92-1.24-1.34-1.83-.48-.37-.82-.59-1.25-.95-.82-.66-1.57-1.38-2.29-2.18-1.43-1.6-2.61-3.47-3.54-5.63-1.83-4.31-2.46-9.74-1.66-16.23Zm13.7,16.19c-.62.67-.98,1.43-1.14,2.19-.19.76-.18,1.52-.03,2.2.1.68.42,1.3.78,1.78.36.48.86.86,1.46,1.03,1.24.35,3.2-.15,4.7-1.48.38-.33.73-.71,1.03-1.13.29-.4.53-.84.71-1.3.38-.94.47-1.92.19-2.82-.41-1.46-1.83-2.22-3.34-2.31-1.54-.07-3.2.56-4.36,1.83Zm-6.9-2.3c.35,1.15,4.02,1.11,5.43-.21,1.38-1.33.24-3.45-1.37-3.36-1.8.1-4.4,2.45-4.06,3.57Zm-.83-12.81c-1.51,1.96.45,6.23,4.05,6.43,3.43.22,6.47-3.14,5.27-5.58-1.5-3.09-7.72-2.9-9.33-.85Z"/><path class="cls-2" d="m424.99,51.29l11.27-15.3c1.7,1.18,3.25,2.6,4.82,3.96,1.44,1.46,3,2.88,4.26,4.45-.7,1.03-.85,2.47-.56,3.99.26,1.55.86,3.23,1.98,4.76,1.02,1.56,2.26,2.77,3.61,3.52.34.19.67.35,1.01.48.32.11.63.18.95.22.63.08,1.25.04,1.83-.14,1.6,2.84,3.2,5.7,4.79,8.64l-16.7,9.07c-2.96-1.41-5.52-3.02-7.66-4.89-.54-.47-1.05-.95-1.53-1.45l-.7-.75c-.21-.2-.41-.4-.61-.61-.79-.81-1.44-1.72-2.02-2.61-2.41-3.6-3.32-7.55-4.73-13.34Zm16.51,11.05c-1.9,3.08.63,7.2,3.1,6.98,2.6-.22,6.14-5.32,4.48-8.2-.66-1.13-2.07-1.56-3.63-1.36-1.53.21-3.07,1.13-3.95,2.58Zm-7.18-.97c.54,1,4.07.34,5.25-1.23.56-.77.51-1.67.06-2.27-.46-.6-1.24-.95-2.01-.74-1.73.48-3.82,3.29-3.3,4.24Zm-3.67-11.61c-.35,1.14.17,2.55,1.22,3.51.55.46,1.17.9,1.9,1.16.73.26,1.57.34,2.47.16,1.7-.33,3.13-1.41,3.85-2.75.73-1.33.75-2.93-.2-4.05-1.24-1.39-3.49-1.6-5.33-1.08-1.93.57-3.51,1.83-3.91,3.05Z"/><path class="cls-2" d="m402.21,22.89l19.28,4.54c-1.12.59-2.02,1.21-2.44,1.91-.41.67-.33,1.35.2,1.67,1.85,1.12,5.55.86,7-1.07,3.08,1.55,6.7,3.58,10.01,6.05l-11.27,15.3c-4.44.28-7.79.57-11.85-.66-.52-.16-1.09-.38-1.62-.59-.53-.21-1.05-.43-1.68-.78l-.89-.49c-.36-.21-.73-.41-1.13-.68-.82-.56-1.62-1.16-2.38-1.79-.78-.62-1.46-1.32-2.11-2.05-.32-.36-.64-.73-.94-1.11l-.45-.57-.37-.62c-.48-.83-.94-1.66-1.38-2.48-.41-.84-.73-1.73-1.06-2.58-.68-2.5-.82-5.1-.3-7.53.56-2.44,1.72-4.69,3.37-6.46Zm16.32,18.31c.08,1.82,1.19,3.24,2.48,3.99,1.25.78,2.77.9,3.76.22,1.05-.74,1.8-2.63,1.79-4.61,0-1.93-.8-4.01-2.34-4.76-2.41-1.22-5.78,1.75-5.68,5.17Zm-7.47,2.28c1.59,1.09,4.39-1.27,4.6-3.21.09-.98-.38-1.7-1.06-2.08-.67-.39-1.54-.51-2.31-.13-.86.42-1.63,1.39-1.93,2.49-.3,1.09-.09,2.33.7,2.93Zm-4.92-15.22c-.69.39-1.16,1.27-1.16,2.36,0,1.07.4,2.34,1.25,3.27.55.56,1.08,1.11,1.81,1.38.7.29,1.43.42,2.15.34.88-.08,1.69-.5,2.37-1,.68-.51,1.21-1.1,1.66-1.69.91-1.22,1.41-2.15,1.13-2.73-.03-.04-.06-.09-.09-.12-.56-.58-2.25-.95-4.13-1.48-.95-.24-1.9-.48-2.81-.58-.88-.1-1.61-.06-2.19.26Z"/><path class="cls-2" d="m438.92,7.63l-7.1,17.63c-.13-.05-.25-.11-.37-.17-.11-.05-.18-.02-.27-.04-.08-.02-.16-.05-.23-.09-.06,0-.09.03-.13.02-.02,0-.04,0-.06-.02l-.03-.02h-.02s-.11,0-.11,0l-.84.02c-.57,0-1.08.07-1.62.09-.26-1.16-.94-2.17-1.86-2.78-.92-.62-2.09-.82-3.15-.48-1.06.34-1.73,1.19-1.89,2.16-.18.97.14,2.05.78,3.07l-.53.42-19.28-4.54c-.31-2.14-.11-4.45.63-6.72.37-1.13.85-2.27,1.45-3.37.29-.55.63-1.09.98-1.63.32-.52.8-1.1,1.07-1.5,2.59-3.52,6.39-6.08,10.24-7.35,3.87-1.29,7.78-1.37,11.31-.61.88.19,1.73.46,2.58.73l.78.25.86.3c.56.21,1.12.43,1.65.66,2.06,1.05,3.87,2.37,5.15,3.98Zm-23.31,7.41c-1.62-.89-3.66-.43-5.14.87-1.54,1.34-2.19,3.24-1.53,4.25.68,1.09,2.79,1.56,4.66,1.96.94.19,1.82.36,2.52.44.35.05.65.05.91.04.25-.02.55-.17.76-.34.68-.55.74-1.83.43-3.29-.32-1.44-1.08-3.08-2.62-3.94Zm2.95-7.44c-.83.23-1.37,1.28-1.43,2.48-.07,1.18.32,2.44,1.04,3.11,1.41,1.27,3.47.4,3.74-1.2.13-.9-.26-2.09-.93-3.03-.66-.92-1.63-1.55-2.42-1.37Zm14.5,3.26c-.2-.59-.73-1.08-1.49-1.42-.8-.38-1.6-.47-2.45-.42-.85.04-1.72.34-2.45.78-.74.49-1.34,1.15-1.67,2-.62,1.64-.22,3.39.48,4.7.35.65.79,1.22,1.26,1.61.47.38.98.59,1.52.56.68-.06,1.33-.4,1.94-.97.15-.14.3-.3.44-.46.14-.16.22-.32.34-.49.22-.34.45-.73.67-1.13.89-1.65,1.81-3.5,1.4-4.76Z"/><path class="cls-2" d="m464.06,33.57l-16.26,9.84-2.33-3.72-2.42-3.53c.84-.87,1.26-2.05,1.24-3.33-.01-.64-.14-1.3-.37-1.95-.23-.65-.62-1.22-1.08-1.78-.47-.54-1-1.01-1.58-1.32-.58-.29-1.19-.46-1.79-.53-.6-.07-1.19-.02-1.74.13-.56.17-1.08.49-1.54.87-1.68-1.58-3.33-2.56-4.37-3l7.1-17.63c.52-.05,1.04-.09,1.57-.12.52-.02.99.01,1.49.04.98.06,2.01.17,2.99.35.92.2,1.84.44,2.75.72.45.14.93.29,1.35.46.41.17.82.35,1.23.54.81.38,1.61.79,2.39,1.24.75.45,1.42.94,2.1,1.45.67.51,1.34,1.05,1.95,1.61.57.57,1.12,1.16,1.64,1.77,4.17,4.91,6.01,11.08,5.68,17.88Zm-17.5-14.1c.53-1.81-.37-3.53-1.62-4.69-1.33-1.12-3.07-1.53-4.1-.87-1.13.75-1.7,2.64-1.95,4.56-.21,1.92-.07,3.65.97,4.6.42.36.98.46,1.6.46.62,0,1.3-.18,1.98-.5,1.35-.65,2.67-1.87,3.12-3.55Zm7.65.03c-.89-1.22-4.37-.03-5.19,1.78-.82,1.78.86,3.38,2.42,2.91,1.76-.52,3.61-3.51,2.77-4.68Zm3.73,13.24c.7-1.06.36-2.65-.61-3.94-.48-.65-1.12-1.21-1.86-1.59-.77-.36-1.64-.53-2.54-.4-1.71.24-3.11,1.37-3.91,2.65-.82,1.3-1.01,2.66-.34,3.69.86,1.28,2.81,1.67,4.75,1.52,1.91-.13,3.81-.83,4.52-1.93Z"/><path class="cls-2" d="m475.5,55.81l-6.84,24.57-2.94-2.29-.74-.57-.37-.29-.18-.14-.09-.07-.08-.16-1.35-2.66-2.92-6.64c.66-1.48.81-3.75.58-6.13-.12-1.19-.35-2.41-.71-3.63-.18-.6-.41-1.25-.62-1.81-.12-.36-.26-.73-.44-1.09-1.38-2.9-4.28-4.33-6.59-3.62-.71-1.34-1.41-2.69-2.17-3.97-.75-1.28-1.46-2.62-2.24-3.86l16.26-9.84c2.54,1.15,4.73,2.55,6.71,4.12,1.9,1.59,3.51,3.36,4.86,5.29.64.97,1.2,1.97,1.7,3.02l.36.79.08.19h-.01s-.03.01-.03.01c-.05.01-.1.05-.17.12-.26.25-.7.87-1.11,2.28-.37,1.31-.75,3.33-.94,6.41Zm-10.51-9.34c1-1.52.88-3.36.19-4.79-.7-1.43-2.01-2.42-3.24-2.3-1.3.13-2.81,1.49-3.8,3.14-.99,1.65-1.48,3.57-.74,4.98,1.19,2.2,5.68,1.82,7.59-1.03Zm7.24,1.94c-.49-1.29-4.16-1.03-5.44.46-.63.73-.64,1.6-.29,2.27.35.67,1.07,1.16,1.83,1.02.87-.14,1.89-.9,2.74-1.59.2-.17.4-.34.59-.51.19-.14.33-.33.42-.55.2-.41.27-.79.16-1.1Zm.11,11.74c.3-1.33.33-2.59.15-3.5-.32-1.6-1.37-2.32-3.39-1.88-1.48.36-2.99,1.37-3.81,2.99-.84,1.59-.96,3.89-.16,5.71.59,1.34,1.47,2.15,2.36,2.33,1.11.21,2.22-.47,3.06-1.67.84-1.08,1.48-2.61,1.79-3.98Z"/><path class="cls-2" d="m484.17,46.97l17.19,8.11c-.37.81-.75,1.61-1.16,2.4l-.85,1.67c-.37.73-.74,1.46-1.13,2.15-1.58,2.77-3.21,5.5-4.84,8.2-1.02-.68-2.47-.45-3.94.37-.74.42-1.49.99-2.23,1.73-.78.55-1.57,1.23-2.35,2.11-.77.85-1.48,1.88-2.13,2.83-.63.66-1.2,1.4-1.71,2.15-1.01,1.52-1.78,3.1-2.01,4.56-.22.08-.44.19-.65.25-.21.03-.41.07-.62.09-.42.06-.87.08-1.37.1-.49,0-1.12,0-1.71-.07-.59-.07-1.04-.15-1.43-.23-.4-.1-.7-.13-1.06-.3l-1.16-.91-2.33-1.82,6.84-24.57c.63-.91,1.09-1.93,1.42-2.94.17-.53.33-1.04.49-1.55.17-.55.28-1.17.34-1.68.12-1.02.11-1.71.09-2.13-.02-.42-.06-.57-.06-.57,0,0,.19.68,1.02,1.19.41.25.99.46,1.76.52.19.02.39.03.61.03.32-.19.64-.38.97-.57.66-.37,1.34-.75,2.03-1.14Zm-4.81,18.95c-.35-1.02-.71-1.63-1.05-1.9-.33-.26-.7-.21-1.14.06-.22.13-.5.29-.77.36-.27.08-.48.1-.66.2-.34.18-.6.63-.85,1.47-.13.44-.25,1.01-.36,1.68-.05.35-.11.71-.16,1.08-.02.18-.05.37-.07.55-.01.13-.02.26-.03.4-.08,1.09-.09,2.4.08,3.63.16,1.21.56,2.45,1.42,3.01.83.53,1.56.54,2.24.16,1.09-.71,1.91-2.67,2.12-4.73.11-1.04.09-2.11-.04-3.07-.07-.48-.16-.92-.27-1.32-.13-.56-.28-1.11-.44-1.59Zm.49-11.29c-.18.16-.08,1.57.08,3.37.17,1.78.41,3.92.83,5,.83,2.15,2.2-.35,1.79-2.59-.21-1.29-.86-2.72-1.44-3.88-.59-1.14-1.09-2.05-1.27-1.91Zm7.01-2.35c-1.18-.16-2.15.37-2.64,1.36-.47,1.01-.56,2.67-.09,5.05.48,2.28,1.26,4.17,2.41,5.04,1.09.85,2.61.62,3.58-1.06.61-1.04.96-2.32,1.03-3.55.08-1.23-.13-2.43-.56-3.44-.85-2.03-2.49-3.2-3.72-3.4Z"/><path class="cls-2" d="m496.91,16.3l16.08,10.13c-.84,1.36-1.89,3.75-2.92,6.54-2.4-.44-5.01,1.4-6.15,4.57-1.13,3.15-.46,6.47,1.58,7.85-1.28,3.22-2.61,6.48-4.16,9.69l-17.19-8.11c-1.32-6.28-1.37-11.41.44-16.39.9-2.48,2.29-4.95,4.25-7.38,1.96-2.41,4.63-4.97,8.05-6.9Zm-3.38,22.54c-3.58.53-5.16,4.9-3.51,6.73.88.95,2.86,1.38,4.8,1.14,1.95-.23,3.81-1.16,4.43-2.75.97-2.53-2.33-5.61-5.73-5.11Zm-3.56-6.49c-.56,1.19,2.17,3.64,4.11,3.58,1.93-.07,2.52-2.38,1.31-3.44-1.36-1.2-4.87-1.29-5.43-.14Zm9.05-9.95c-1.23-.01-2.48,1.19-3,2.72-.55,1.54-.42,3.38.78,4.75,2.27,2.6,6.76,2.34,7.65.05.58-1.44-.2-3.23-1.35-4.73-1.17-1.51-2.77-2.79-4.08-2.79Z"/><path class="cls-2" d="m534.87,18.52l-18.06,6.34s.01,0,0,0c.55-1.07.91-2.08.84-2.89-.08-.79-.79-1.42-1.78-1.43-1.12-.02-1.85.55-2.07,1.38-.24.83.05,1.88.5,2.98-.05.02-.05-.01-.28.2-.21.2-.6.64-1.02,1.31l-16.08-10.13c.11-1.97.55-4,1.49-6.03.93-2.02,2.43-4.03,4.39-5.68,1.95-1.66,4.35-2.91,6.7-3.64,2.35-.74,4.69-.99,6.69-.94.5,0,1.12.06,1.67.1.56.05,1.13.12,1.71.24.59.12,1.14.22,1.74.39.61.18,1.22.37,1.82.58,2.48.92,4.8,2.31,6.67,4.06,3.75,3.52,5.68,8.55,5.07,13.15Zm-23.89-6.75c-1.3-1.33-3.65-1.31-5.37-.25-1.75,1.03-2.59,2.83-2.14,3.98.48,1.26,2.31,2.15,4.04,2.84.86.33,1.7.63,2.37.82.68.19,1.2.25,1.58.07.58-.29.8-1.47.91-2.94.06-1.47-.14-3.27-1.39-4.52Zm5.31-6.13c-.84-.08-1.74.76-2.2,1.86-.47,1.08-.51,2.41-.04,3.27.47.87,1.26,1.22,2.02,1.22.77.02,1.55-.38,1.96-1.06.46-.78.54-2.04.21-3.16-.32-1.11-1.08-2.02-1.94-2.13Zm12.12,10.56c.62-1.14-.19-3.03-1.88-4.15-1.68-1.14-4.05-1.31-5.46-.03-1.33,1.16-1.61,2.96-1.67,4.42-.02,1.48.11,2.61.66,2.93.69.39,2.18-.19,4-.73,1.77-.57,3.76-1.24,4.34-2.44Z"/><path class="cls-2" d="m521.56,53.6l-15.07-11.59c.92-1.2,1.86-2.41,2.7-3.6l1.3-1.8,1.2-1.78c2.23.98,5.19-.12,6.57-2.63.74-1.25.77-2.53.48-3.64-.42-1.05-1.23-1.86-2.31-2.38.15-.41.16-.65.29-.98.03-.12,0-.15.02-.22,0-.04.08-.17.04-.14h.01s18.06-6.34,18.06-6.34c.8.81,1.43,1.76,2.06,2.77.54,1.02,1.08,2.13,1.41,3.3.18.59.33,1.19.47,1.8.12.59.19,1.15.26,1.74.07.59.11,1.18.15,1.78.01.55,0,1.06-.02,1.59-.04,1.06-.13,2.17-.31,3.06-.17.93-.37,1.94-.63,2.79-.52,1.69-1.19,3.37-2,4.75-3.23,5.75-8.3,9.37-14.7,11.49Zm7.02-21.3c.9-.12,1.7-.55,2.35-1.16.64-.62,1.06-1.51,1.34-2.37.23-.91.2-1.9.03-2.67-.25-.81-.69-1.41-1.24-1.68-1.17-.57-3.18.14-4.88.79-.81.32-1.7.69-2.3,1.04-.56.33-1.11.81-1.24,1.36-.23.89.35,2.09,1.51,3.1,1.1,1,2.74,1.81,4.44,1.59Zm2.66,7.23c.41-.62.06-1.67-.67-2.57-.74-.91-1.84-1.64-2.81-1.7-1.93-.12-2.86,2-1.89,3.29,1.08,1.45,4.56,2.2,5.37.97Zm-11.12,8.09c1.21.26,2.6-.6,3.48-1.93.85-1.38,1.2-3.2.33-4.82-.82-1.53-2.36-2.45-3.83-2.77-1.45-.31-2.92-.05-3.61.96-1.74,2.51,1.08,7.98,3.63,8.55Z"/><path class="cls-2" d="m500.25,78.74l-14.14-12.7c2.12-2.37,4.25-4.74,6.33-7.13,2.11,1.2,5.29.39,7.4-2.09,2.12-2.47,2.42-5.69.87-7.59,2-2.4,3.93-4.81,5.78-7.21l15.07,11.59c-.35,6.77-2.49,12.38-6.11,16.56-3.62,4.21-8.73,7.06-15.19,8.58Zm9.75-19.52c3.58.7,6.56-3.26,5.41-5.48-1.23-2.31-7.22-3.63-9.25-1.15-1.6,1.97.48,5.97,3.85,6.63Zm1.06,7.39c.97-.95-.72-4.22-2.58-4.83-1.84-.59-3.2,1.35-2.45,2.77.84,1.61,4.09,2.95,5.03,2.05Zm-11.79,6.1c2.37.76,5.77-2.77,4.51-6.21-1.18-3.23-5.45-4.65-7.16-2.73-2.17,2.42.16,8.15,2.65,8.94Z"/><path class="cls-2" d="m489.15,100.65l-18.56,4.08c-.93-4.36-1.4-8.93-.6-14.19,1.25-.23,2.45-1.29,3.7-2.85,1.19-1.53,2.56-3.68,4.1-5.95.41-.55.8-1.1,1.16-1.64l.27-.41c.08-.12.23-.3.25-.36.1-.17.19-.33.27-.5.33-.67.56-1.37.67-2.05.22-1.36-.02-2.66-.73-3.65l6.44-7.1,14.14,12.7c-.38,3.31-1.14,6.31-2.27,8.96-.57,1.33-1.22,2.57-1.97,3.74-.37.58-.77,1.15-1.19,1.69-.09.12-.27.34-.19.26l.04.03s.02.02.01,0c-.01,0,0,0-.1-.05-.02.04-.19.02-.34.17-.31.25-.8.66-1.32,1.32-1.07,1.28-2.39,3.28-3.78,5.78Zm-.68-17.09c3.55.86,6.68-2.88,5.68-5.16-1.06-2.38-7-4.09-9.19-1.66-1.73,1.92.17,6,3.51,6.81Zm1.52,6.7c.25-.17-.24-.94-.86-1.85-.54-.98-1.36-2.02-2.28-2.35-.9-.37-1.63-.01-2.08.58-.39.63-.33,1.49.2,2.02.63.63,1.82,1.03,2.88,1.32,1.07.29,1.95.48,2.14.27Zm-6.04,7.86c.55-.29.93-.77,1.19-1.33.3-.56.39-1.21.4-1.87.02-.65-.17-1.35-.43-2-.15-.33-.34-.66-.59-.99-.23-.32-.5-.63-.83-.93-1.26-1.13-2.94-1.77-4.48-1.49-.76.13-1.52.49-2.07,1.04-.53.54-.93,1.28-1.05,2.12-.22,2.13,1.2,4.01,2.95,4.94,1.77.96,3.77,1.09,4.92.49Z"/><path class="cls-2" d="m506.11,130.29l-27.61-8.62c1.63-.13,2.96-.31,3.64-.65.7-.33.75-.81.35-1.22-.2-.2-.48-.35-.81-.4-.08-.01-.16-.02-.24-.02-.05,0-.05.05-.14-.01l-.29-.19c-.39-.25-.77-.43-1.17-.66-.79-.47-1.58-.82-2.33-1.03-.73-.2-1.39-.24-2.01-.1-2.46-4.19-3.94-8.3-4.91-12.66l18.56-4.08c2.35,1.67,4.39,3.02,5.98,4.04.38.29.78.44,1.09.68.34.2.59.28.86.48l.26.18.12.09.06.05s.03.02.1.1c.49.53.92.99,1.52,1.43,1.17.87,2.22,1.77,3.44,2.66l1.75,1.35c.56.46.99.95,1.47,1.43l.69.72c.24.24.36.48.54.72.33.48.67.96.95,1.43,1,1.86,1.28,3.47,1.31,4.95.02,1.47-.18,2.94-.69,4.6-.45,1.66-1.36,3.33-2.51,4.74Zm-18.07-18.41c.42-.81.58-1.57.62-2.33.01-.38-.03-.73-.1-1.07-.06-.36-.16-.69-.29-1.01-.53-1.25-1.55-2.24-2.77-2.34-1.29-.08-3.06.88-4.29,2.46-.6.79-1.04,1.72-1.23,2.7-.17.97-.05,1.99.42,2.88.41.7.99,1.21,1.7,1.49.73.29,1.52.35,2.27.2,1.52-.3,2.89-1.47,3.67-2.98Zm9.09,1.28c-.83-.71-2.39-1.05-3.76-.86-1.38.17-2.56.81-3.03,1.62-.95,1.64.71,3.04,3.01,2.94,1.24-.06,2.64-.55,3.47-1.29.41-.36.71-.79.78-1.21.06-.42-.09-.85-.47-1.19Zm4.01,11.64c1.01-.33,1.13-1.82.04-3.05-1.03-1.24-3.23-2.43-5.93-2.7-2.58-.25-4.56.28-5.98.8-1.4.55-2.3,1.02-1.81,1.4.62.47,3.31,1.06,6.46,2.02,1.54.47,3.23.95,4.69,1.31.31.07.62.14.91.21.22.05.42.08.62.1.39.04.73.02,1-.08Z"/><path class="cls-2" d="m470.66,140.29l-.09-19.01c2.15,0,4,.1,5.77.22l2.17.17h0c.16,1.22.44,2.3.97,3.11.51.81,1.29,1.33,1.86,1.37.57.04.73-.44.23-1.26-.48-.83-1.63-1.97-3.07-3.21l27.61,8.62c.67,1.99.69,4.08.29,5.96-.41,1.88-1.19,3.58-2.24,5.03-2.15,2.89-5.14,4.93-9.66,5.67-2.23.4-4.92.27-7.61-.12-2.7-.39-5.41-1.03-7.96-1.73-.62-.18-1.25-.37-1.88-.55l-.45-.14-.23-.12-.46-.26c-.61-.35-1.22-.72-1.81-1.12-1.19-.79-2.33-1.68-3.45-2.62Zm21.84-4.51c2.16,1.18,4.56,1.16,6.1.28,1.57-.85,2.14-2.47,1.44-3.41-.18-.25-.45-.47-.78-.65-.16-.09-.35-.18-.54-.26-.28-.11-.58-.23-.88-.35-1.47-.56-3.14-1.09-4.72-1.57-3.19-.93-5.84-1.89-6.58-1.65-.6.19.04,1.35,1.09,2.9.54.78,1.22,1.63,2.06,2.51.42.43.89.87,1.4,1.3.43.33.89.63,1.4.9Zm-1.7,5.65c.96,0,1.32-.92,1.07-1.96-.23-1.05-1.02-2.22-2.05-3.04-2.07-1.61-4.11-1.64-4.05-.15.06.84.75,2.13,1.76,3.22,1,1.09,2.35,1.95,3.26,1.94Zm-16.46-5.77c.22.58.66,1.05,1.25,1.38.29.17.62.3.97.39.18.05.36.09.54.11.19.03.48.05.72.07,2.02.11,4.09-.45,4.56-2.01.47-1.47-.35-3.34-1.16-4.84-.86-1.5-1.62-2.62-2.26-2.69-.21-.02-.41.04-.62.18-.21.14-.38.35-.83.59-.76.5-1.45,1.21-2,2.02-1.1,1.62-1.61,3.57-1.17,4.8Z"/><path class="cls-2" d="m435.46,129.79l27.67-8.1c-1.48,1.23-2.66,2.37-3.16,3.2-.52.83-.37,1.32.2,1.28.57-.03,1.36-.56,1.9-1.37.56-.81.86-1.9,1.06-3.12-1.46.15,3.56-.39,7.43-.41l.09,19.01c-1.1.97-2.25,1.88-3.44,2.69-.59.4-1.19.78-1.81,1.14l-.23.13-.12.06-.23.07-.92.29c-.64.19-1.27.37-1.89.56-5.07,1.41-11.04,2.52-15.46,1.61-2.23-.41-4.05-1.16-5.59-2.16-1.54-1.01-2.84-2.26-3.84-3.76-1.01-1.49-1.78-3.2-2.13-5.14-.36-1.91-.24-4.02.47-5.99Zm23.39,5.87c.42,1.57,2.46,2.14,4.48,2.02.25-.01.5-.04.74-.07.25-.04.49-.08.64-.12.35-.1.68-.23.97-.4.59-.34,1.04-.81,1.25-1.39.44-1.22-.09-3.18-1.2-4.79-.55-.8-1.26-1.52-2-2.01-.45-.52-.83-.83-1.25-.78-.63.07-1.43,1.19-2.33,2.7-.86,1.5-1.73,3.39-1.3,4.85Zm-8.89,5.69c.84.18,2.33-.61,3.43-1.66,1.15-1.07,1.96-2.42,2.03-3.31.13-1.77-2.2-1.33-3.95-.03-.96.74-1.78,1.86-2.13,2.88-.34,1-.21,1.96.62,2.11Zm-8.59-9.04c-.75.95-.22,2.61,1.32,3.52,1.5.95,3.9,1.01,6.07-.11.52-.27.98-.56,1.41-.88.53-.42,1.01-.85,1.44-1.28.87-.86,1.57-1.73,2.13-2.5,1.09-1.54,1.76-2.72,1.17-2.94-.74-.25-3.39.62-6.59,1.49-1.59.45-3.24.92-4.74,1.47-.3.11-.6.22-.88.33-.19.07-.37.16-.54.25-.33.18-.61.4-.79.64Z"/></svg>