<?xml version="1.0" encoding="UTF-8"?><svg id="Réteg_1" xmlns="http://www.w3.org/2000/svg" viewBox="0 0 232.97 219.93"><defs><style>.cls-1{fill:#fff;}</style></defs><path class="cls-1" d="m0,103.62l16.21-50.05c37.36,13.16,64.5,24.56,81.42,34.19-4.47-42.53-6.82-71.78-7.05-87.76h51.11c-.7,23.26-3.41,52.4-8.11,87.41,24.19-12.22,51.92-23.49,83.18-33.84l16.21,50.05c-29.85,9.87-59.1,16.45-87.76,19.74,14.32,12.46,34.54,34.66,60.62,66.61l-42.29,29.96c-13.63-18.56-29.73-43.82-48.29-75.78-17.4,33.13-32.67,58.39-45.82,75.78l-41.59-29.96c27.25-33.6,46.75-55.8,58.51-66.61-30.31-5.87-59.1-12.45-86.35-19.74Z"/></svg>