<?xml version="1.0" encoding="UTF-8"?><svg id="Réteg_1" xmlns="http://www.w3.org/2000/svg" viewBox="0 0 223.13 215.1"><defs><style>.cls-1{fill:none;}.cls-2{fill:#fff;}</style></defs><path class="cls-1" d="m20.03,94.26c-6.66-6.65-9.98-13.13-9.98-19.43,0-5.95,2.27-11.03,6.82-15.23s10.51-6.3,17.86-6.3c8.05.71,16.1,4.12,24.15,10.24,4.9,3.73,12.41,10.62,17.53,15.43,2.42,2.27,6.38.96,6.99-2.3l1.21-6.57c1.06-6.65,2.27-13.56,3.68-20.74,1.4-7.18,3.32-13.65,5.78-19.43,2.44-5.77,5.6-10.5,9.45-14.18s8.74-5.51,14.7-5.51c6.3,0,11.99,2.19,17.07,6.56,5.07,4.39,7.61,10.6,7.61,18.64,0,12.61-1.66,24.42-4.98,35.45-1.02,3.38-2,6.54-2.94,9.48-1.91,5.96,4.34,11.25,9.91,8.39,8.04-4.13,17.04-8.74,21.39-11.05,8.93-4.73,16.36-7.09,22.32-7.09,7.7,0,13.91,2.28,18.65,6.83,4.72,4.55,7.08,9.64,7.08,15.23,0,4.21-1.84,8.32-5.51,12.34-3.68,4.03-8.32,7.88-13.91,11.56-5.61,3.68-11.73,7.09-18.38,10.24-6.66,3.15-12.96,6.13-18.91,8.93l-4.43,2.1c-2.76,1.31-3.5,4.86-1.53,7.2,2.36,2.78,4.6,5.64,6.74,8.56,3.32,4.55,6.91,9.11,10.77,13.65,4.55,6.3,6.82,11.91,6.82,16.8,0,6.66-2.36,11.91-7.08,15.76-4.73,3.86-10.42,5.78-17.07,5.78-2.8,0-6.66-1.31-11.56-3.94s-9.98-6.04-15.22-10.24c-5.25-4.21-10.33-8.93-15.23-14.18-3.44-3.67-6.35-7.26-8.75-10.77-1.58-2.31-4.78-2.78-6.91-.97l-34.23,29.07c-7.01,4.21-13.48,6.3-19.43,6.3-7.01,0-12.78-2.18-17.33-6.56-4.55-4.37-6.82-9.54-6.82-15.49,0-2.8.96-6.04,2.89-9.71,1.92-3.68,4.81-7.26,8.66-10.77l32.46-27.61c1.27-1.08,1.01-3.08-.48-3.84-3.84-1.97-7.67-4.53-11.49-7.68-4.91-4.02-9.46-7.96-13.65-11.82l-14.7-13.13Z"/><path class="cls-2" d="m5.7,65.9l15.84,5.71c-.21.58-.36,1.2-.44,1.89-.05.34-.07.7-.08,1.09-.01.21,0,.35,0,.49,0,.14,0,.29.03.44-1.06.19-1.95.64-2.49,1.38-.54.73-.68,1.73-.29,2.71.38.98,1.25,1.71,2.2,2.03.97.33,2.05.25,3.02-.21.55.83,1.2,1.69,1.93,2.54.35.43.74.85,1.13,1.28.21.23.37.4.52.56l.48.5-11.56,12.24c-.81-.21-1.63-.47-2.41-.75-.74-.26-1.48-.54-2.19-.87-1.42-.67-2.78-1.48-4.03-2.49-2.5-1.97-4.62-4.68-5.96-8.01-1.34-3.3-1.83-7.3-1.03-11.11.79-3.55,2.62-6.92,5.32-9.4Zm6.96,20.79c-.81,1.44-.43,3.19.44,4.45.88,1.26,2.24,1.98,3.3,1.68,1.12-.33,2.15-1.8,2.76-3.4.58-1.6.81-3.29.06-4.31-.58-.81-1.79-1.01-3.1-.76-1.31.26-2.73.99-3.47,2.34Zm-6.68-2.31c.24.72,1.2,1.14,2.25,1.13,1.05,0,2.14-.38,2.71-1.05,1.06-1.31.16-3.15-1.27-3.31-.8-.08-1.84.33-2.62.98-.77.64-1.28,1.55-1.07,2.25Zm2.73-13.41c-1.08.31-1.85,1.79-1.81,3.42.02,1.65.9,3.39,2.45,3.94,1.46.54,3.01.09,4.14-.55,1.16-.67,1.95-1.49,1.92-2.31-.04-1.01-1.19-2.18-2.56-3.12-1.39-.94-3.01-1.72-4.15-1.38Z"/><path class="cls-2" d="m34.92,47.42l-.68,16.85h0s-.32,0-.32,0c-.26,0-.5.03-.76.04-.5.03-.99.07-1.45.14-.94.12-1.82.3-2.62.54-.41-.97-1.14-1.76-2.02-2.12-.88-.38-1.93-.36-2.81.17-1.79,1.08-1.86,3.53-.49,5.14-1.14,1.17-1.81,2.27-2.23,3.43l-15.84-5.71c-.54-3.61.23-7.47,1.89-10.65.41-.81.88-1.56,1.38-2.29.25-.36.51-.71.78-1.06.29-.35.59-.69.89-1.02,1.24-1.33,2.69-2.49,4.26-3.44,3.16-1.88,6.79-2.81,10.23-2.74,1.73.01,3.4.3,5,.76.8.24,1.58.51,2.34.85.77.32,1.4.72,2.45,1.12Zm-18.53,11.24c-1.56-.5-3.27.22-4.33,1.46-1.09,1.22-1.43,2.87-.81,3.79.66.99,2.41,1.43,4.08,1.59,1.68.14,3.23.07,3.99-.78.6-.67.53-1.88.03-3.1-.51-1.22-1.47-2.49-2.95-2.97Zm1.23-7.03c-.68.35-.96,1.38-.79,2.43.16,1.04.72,2.06,1.48,2.5,1.48.84,3.13-.37,3.09-1.78-.05-.81-.61-1.77-1.38-2.44-.76-.68-1.73-1.02-2.4-.71Zm13.42.18c-.57-.97-2.11-1.33-3.66-.95-1.54.36-2.99,1.54-3.27,3.15-.27,1.53.4,2.97,1.24,4,.86,1.01,1.87,1.64,2.77,1.41,1.14-.28,2.02-1.67,2.64-3.25.6-1.58.88-3.36.27-4.36Z"/><path class="cls-2" d="m64.83,60.76l-10.64,13.05c-1.04-.85-1.99-1.59-2.99-2.31-.99-.72-2-1.4-3.01-2.03.83-1.97-.18-4.53-2.52-5.66-2.34-1.14-4.84-.24-5.78,1.69-1.03-.35-2.06-.6-3.08-.83-.51-.1-1.02-.2-1.53-.27-.46-.09-1.24-.14-1.03-.13l.68-16.85c.24-.1.48-.17.72-.25.24-.08.51-.15.68-.23.38-.16.77-.32,1.15-.45.77-.26,1.57-.51,2.35-.67,1.59-.36,3.19-.51,4.77-.51,3.17.02,6.22.77,8.93,2.08,5.43,2.62,9.41,7.45,11.31,13.36Zm-19.68-6.12c-.27-1.61-1.6-2.78-3.07-3.22-1.47-.46-3.01-.2-3.65.71-.68.94-.56,2.76-.07,4.37.51,1.62,1.35,3.09,2.59,3.44.98.29,2.09-.29,2.97-1.3.87-1.02,1.5-2.48,1.23-4Zm6.35-2.67c-.58-.35-1.53.03-2.29.72-.76.69-1.35,1.69-1.36,2.57,0,1.72,1.98,2.44,3.09,1.54,1.26-1.01,1.71-4.15.56-4.83Zm7.88,9.87c.23-1.09-.58-2.36-1.85-3.15-1.27-.78-2.98-1.06-4.39-.24-1.34.77-2.09,2.17-2.31,3.49-.21,1.32.06,2.57.96,3.16,1.13.75,2.85.46,4.41-.25,1.55-.71,2.94-1.87,3.17-3.01Z"/><path class="cls-2" d="m78.81,69.14l10.88,17.8c-1.25,1.2-3.25,2.56-5.48,3.3-2.22.78-4.65.94-6.39.75-.2-.58-.54-1.18-.98-1.78-.44-.6-.94-1.15-1.6-1.82-.32-.32-.66-.63-1.01-.93-.36-.33-.76-.7-1.15-1.03-.2-.16-.4-.33-.61-.49-.21-.16-.43-.39-.64-.57-.44-.39-.89-.75-1.36-1.1-.19-.16-.37-.31-.54-.46-1.73-1.51-3.44-2.51-5.06-3.08-1.6-.57-3.11-.71-4.08-.23l-1.87-1.66-1.58-1.38c-1.05-.91-2.11-1.8-3.13-2.64l10.64-13.05c2.99.3,5.7.97,8.1,1.97.3.13.59.26.89.39.13.05.34.17.39.17l.11-.07c.13-.1.23-.19.3-.28.14-.17.18-.3.19-.32.02-.06-.13.4.31,1.9.23.72.68,1.63,1.35,2.48.67.86,1.54,1.62,2.34,2.15Zm-9.28,2.09c.11-.86.06-1.6-.09-2.2-.04-.27-.24-.63-.44-.93-.21-.3-.44-.59-.7-.83-1.04-.99-2.42-1.46-3.43-1-2.09.99-3.43,6.32-1.23,8.23.11.1.23.18.35.25.17.11.35.22.53.31.36.18.73.3,1.08.36.72.12,1.39,0,1.95-.35,1.13-.67,1.79-2.22,1.99-3.83Zm4.13-2.92c-.06-.08-.14-.07-.23,0-.25.2-.66.84-1.08,1.59-.41.75-.82,1.64-.87,2.49-.05.77.17,1.43.5,1.9.55.77,1.32.97,1.63.14.29-.74.32-2.22.3-3.51-.03-1.3-.07-2.38-.24-2.62Zm6.83,8.6c-.95-1.32-2.14-1.78-3.11-1.9-1.01-.08-1.58.04-2.06,1.55-.11.35-.2.75-.26,1.16-.06.35-.1.74-.11,1.15-.02.83.09,1.74.34,2.62.25.89.62,1.7,1.08,2.36.47.65.99,1.16,1.65,1.31.82.21,1.67-.05,2.33-.6.66-.55,1.13-1.37,1.34-2.26.23-.87.2-1.82.05-2.6l-.07-.29c-.03-.09-.09-.28-.14-.41-.1-.28-.21-.55-.32-.81-.23-.51-.46-.93-.71-1.29Z"/><path class="cls-2" d="m82.9,46.45l16.48,3.46c-.28,1.26-.52,2.7-.77,4.12l-.75,4.26c-2.16.06-4.18,2.18-4.7,5.11-.13.73-.15,1.44-.08,2.12l.03.25v.41c.02.28.04.55.05.83.04.54.1,1.07.18,1.59.32,2.05.95,3.85,1.84,4.82-.28,1.42-.5,2.92-.82,4.27l-1.55,3.09-3.1,6.17-10.88-17.8c-1.14-3.32-2.14-4.95-2.86-5.75-.36-.4-.64-.61-.85-.65-.05-.01-.1-.02-.13-.02h-.03s-.02.03-.01-.09l.04-.47c.06-.62.14-1.24.25-1.86.44-2.46,1.31-4.85,2.58-7.16.64-1.15,1.38-2.28,2.22-3.39.42-.55.87-1.1,1.34-1.64.49-.56,1-1.12,1.54-1.66Zm1.4,19.64c-1.48.24-2.27.92-2.5,1.86-.23.93.07,2.31.84,3.7.2.36.45.72.73,1.07.27.34.61.72.89.93.58.47,1.26.8,1.97.9.71.1,1.46-.02,2.14-.41.17-.1.33-.21.49-.34.16-.13.31-.27.4-.49.21-.42.38-.91.47-1.46.31-1.75-.3-3.6-1.4-4.62-1.09-1.06-2.65-1.36-4.04-1.14Zm-4.13-5.06c-.32,1.18,2.43,2.94,4.13,2.55,1.67-.4,1.85-2.54.65-3.3-1.36-.86-4.45-.38-4.77.75Zm6.2-10.27c-2.13.53-3.09,4.87-.58,6.95,2.36,1.96,6.26,1.06,6.69-1.23.54-2.9-3.87-6.27-6.1-5.72Z"/><path class="cls-2" d="m94.69,16.94l13.54,10.02c-1.26,1.7-2.38,3.62-3.36,5.71-1.03-.29-2.14-.15-3.11.43-.99.61-1.84,1.62-2.31,2.91-.96,2.59-.05,5.28,1.86,6.25-.74,2.5-1.38,5.06-1.93,7.66l-16.48-3.46c-2.3-5.74-2.47-11.55-.52-16.76.49-1.3,1.1-2.57,1.84-3.76.76-1.23,1.67-2.46,2.71-3.58,2.09-2.24,4.72-4.14,7.76-5.41Zm-4.41,20.34c-3.22.68-4.26,5.23-2.49,6.59.91.72,2.71.75,4.37.28,1.65-.47,3.17-1.41,3.54-2.77.59-2.11-2.41-4.72-5.41-4.11Zm-3.17-6c-.56,1.19,1.87,3.43,3.61,3.3,1.7-.13,2.26-2.18,1.24-3.18-1.15-1.13-4.29-1.26-4.85-.12Zm8.94-8.84c-1.11-.13-2.32.83-2.97,2.2-.65,1.37-.73,3.1.26,4.41.92,1.24,2.4,1.81,3.74,1.87,1.34.06,2.54-.38,3.01-1.31.6-1.18.11-2.82-.76-4.29-.86-1.46-2.13-2.75-3.29-2.88Z"/><path class="cls-2" d="m126.91,5.58l-4.7,16.17c-1.54-.45-3.19-.62-4.98-.52-.19-1.05-.72-1.96-1.5-2.53-.77-.57-1.78-.78-2.69-.47-.91.31-1.52,1.06-1.69,1.94-.18.88.08,1.86.63,2.77-.26.18-.51.39-.76.63-.1.08-.31.3-.49.46-.18.17-.35.36-.53.54-.7.73-1.36,1.53-1.98,2.38l-13.54-10.02c.15-1.64.5-3.26,1.03-4.8.26-.77.58-1.53.94-2.26.33-.7.83-1.5,1.39-2.26,2.2-3.03,5.57-5.43,9.18-6.62,3.62-1.21,7.38-1.26,10.67-.43,3.33.81,6.55,2.54,9.01,5.02Zm-20.63,6.76c-1.45-.78-3.31-.3-4.56.78-1.23,1.05-1.78,2.48-1.36,3.51.93,2.15,6.3,3.39,7.82,2.15.66-.53.72-1.69.46-2.98-.29-1.29-.98-2.73-2.36-3.46Zm2.71-6.67c-.77.19-1.27,1.17-1.33,2.22-.07,1.05.28,2.17.93,2.75,1.29,1.13,3.14.31,3.42-1.08.14-.8-.2-1.86-.81-2.68-.6-.83-1.48-1.37-2.21-1.2Zm13.12,3.17c-.33-1.06-1.78-1.8-3.38-1.76-1.58.02-3.25.82-3.89,2.33-.61,1.44-.28,2.99.31,4.18.61,1.18,1.45,2.02,2.39,2,1.2-.02,2.32-1.18,3.28-2.57.94-1.41,1.65-3.05,1.29-4.18Z"/><path class="cls-2" d="m148.65,32.07l-16.78,1.38c-.17-1.93-.56-3.6-1.17-4.91.93-.54,1.6-1.3,1.88-2.19.28-.88.1-1.86-.53-2.61-1.24-1.47-3.9-1.33-5.3.26-1.5-1.08-2.99-1.81-4.53-2.25l4.7-16.17c3.4-.8,7.05-.56,10.28.53,1.62.54,3.15,1.27,4.55,2.17.68.41,1.47,1.04,2.16,1.63.69.63,1.36,1.27,1.96,2,2.46,2.85,4.04,6.49,4.45,10.07.45,3.59-.24,7.07-1.65,10.1Zm-13.61-16.82c.24-1.61-.71-3.17-2.04-4.03-1.33-.88-2.95-1.03-3.8-.31-.9.75-1.19,2.55-1.14,4.22.06,1.7.4,3.27,1.4,3.93.79.53,1.99.29,3.13-.4,1.13-.69,2.21-1.86,2.44-3.4Zm7.13.03c-.46-.64-1.55-.73-2.54-.39-1,.33-1.9,1.06-2.21,1.88-.57,1.61.88,3.03,2.29,2.76.79-.17,1.66-.89,2.18-1.75.52-.85.73-1.9.28-2.5Zm1.76,13.5c.9-.67,1.11-2.27.53-3.79-.57-1.51-1.94-2.82-3.58-2.87-1.56-.05-2.89.85-3.77,1.82-.89,1-1.38,2.05-1.05,2.87.41,1.04,1.85,1.71,3.5,2.15,1.62.43,3.43.54,4.36-.18Z"/><path class="cls-2" d="m145.98,63.08l-16.47-3.5c.55-2.6,1.01-5.22,1.36-7.87,2.15-.11,4.09-2.22,4.33-5.06.25-2.83-1.27-5.26-3.38-5.76.06-1.35.09-2.7.11-4.05.02-1.49,0-2.38-.07-3.38l16.78-1.38c.47.68.94,1.4,1.32,2.12.19.36.38.73.56,1.1.17.33.33.66.5.99.64,1.3,1.14,2.62,1.52,3.95.76,2.66,1.02,5.35.78,8.01-.49,5.31-2.97,10.49-7.35,14.84Zm-2.25-20.07c2.93-1.45,2.87-6.05.84-6.97-2.11-.95-7.02,1.48-7.1,4.3-.06,2.24,3.49,4.02,6.25,2.67Zm4.61,4.93c.22-1.26-2.7-2.78-4.35-2.22-1.62.56-1.61,2.69-.35,3.37,1.42.77,4.47.05,4.7-1.16Zm-5.79,10.81c2.16-.54,3.06-5.08.42-7.02-2.48-1.81-6.3-.68-6.63,1.52-.22,1.41.78,2.89,2.1,3.99,1.33,1.1,2.97,1.8,4.11,1.51Z"/><path class="cls-2" d="m143.84,81.31l-11.15,16.78c-4.18-2.35-7.28-6.64-8.38-10.9.45-.43.83-1.02,1.21-1.69.18-.34.35-.7.51-1.09.06-.18.18-.4.3-.63.11-.23.22-.46.34-.69.87-1.89,1.57-3.97,1.87-6.15.01-.1.03-.2.04-.3.64-2.18.82-4.16.66-5.9-.08-.87-.25-1.66-.5-2.34-.11-.39-.32-.5-.52-.69-.2-.17-.42-.31-.66-.44.75-2.53,1.4-5.1,1.95-7.69l16.47,3.5c1.12,2.84,1.73,5.68,1.84,8.45.02.69.01,1.38-.02,2.06v.26s.01.05.02.07l.08.1.13.18c.16.22.23.35.19.5.04,0-.49.03-1.55.96-1.03.9-2.42,2.9-2.84,5.65Zm-5.23-9.18c.4-.1.76-.24,1.09-.39.32-.13.61-.36.87-.64.52-.54.91-1.21,1.13-1.91.45-1.39.24-2.86-.62-3.55-.91-.72-2.71-.75-4.37-.29-1.65.47-3.17,1.41-3.55,2.77-.08.27-.09.54-.06.82.03.28.13.51.21.91.19.7.58,1.29,1.11,1.71,1.05.84,2.68.97,4.2.58Zm4.18,3.24c.03-.05.02-.1,0-.14-.13-.25-.84-.48-1.71-.69-.87-.19-1.89-.33-2.73-.08-.8.24-1.33.79-1.58,1.36-.31.73-.12,1.42.64,1.46.76.05,2.07-.39,3.19-.82,1.12-.44,2.05-.84,2.19-1.09Zm-4.85,9.56c.83-1.41.97-2.78.71-3.7-.29-.94-.89-1.54-2.39-1.54-.35,0-.73.04-1.12.11-.34.05-.69.13-1.06.26-.73.25-1.5.65-2.2,1.2-.35.27-.7.59-.99.92-.27.32-.51.67-.7,1.02-.42.71-.51,1.49-.42,2.21.38,1.85,2.24,2.73,3.92,2.51.81-.07,1.64-.41,2.25-.83l.23-.16c.07-.06.21-.18.3-.26.21-.19.4-.38.58-.58.36-.39.66-.78.89-1.15Z"/><path class="cls-2" d="m162.73,72.95l7.87,14.89-7.87,4.06c-.69-.83-1.78-1.32-3.03-1.43-.62-.05-1.29-.01-1.97.13-.34.07-.68.17-1.02.29-.44.17-1.08.47-1.61.75-2.21,1.13-4.12,2.61-5.73,4.14-.8.71-1.52,1.49-2.1,2.21-.56.65-1,1.31-1.25,1.96l-.93.23-.46.12c-.15.02-.28.03-.42.04l-1.69.16c-1.11.07-2.15,0-3.27-.14-1.11-.14-2.23-.42-3.33-.79-.55-.18-1.1-.43-1.65-.64-.53-.26-1.06-.55-1.58-.83l11.15-16.78c2.55-1.77,3.71-3.9,4.11-5.05.22-.59.29-.98.3-1.22,0-.24-.04-.33-.04-.32,0,0,0,0,0,.02l.76-.32c.57-.23,1.15-.44,1.74-.62,1.19-.37,2.42-.65,3.7-.83,2.57-.37,5.33-.37,8.3,0Zm-14.24,12.81c-.7-1.23-1.54-1.54-2.41-1.16-.86.39-2.02,1.32-3,2.68-.25.37-.48.79-.69,1.24-.2.42-.43,1.04-.48,1.33-.16.71-.14,1.51.08,2.21.43,1.41,1.69,2.44,3.54,1.93.76-.27,1.48-.76,2.06-1.41.6-.7,1.04-1.52,1.29-2.34.52-1.65.26-3.32-.38-4.49Zm1.67-6.43c-.25.07-.26.89-.23,1.93.04,1.04.15,2.28.6,2.95.44.66,1.17.67,1.76.35.58-.32.99-.96.93-1.67-.07-.8-.67-1.74-1.39-2.43-.35-.35-.77-.61-1.08-.81-.26-.23-.45-.36-.58-.32Zm11.45-1.06c-1.76-1.36-5.74.5-5.85,3.74-.11,3.06,2.99,5.6,5.1,4.53,2.68-1.35,2.59-6.85.75-8.28Z"/><path class="cls-2" d="m194.37,65.16l-2.41,16.67c-.93-.14-1.92-.22-2.97-.22h-.39s-.29,0-.29,0c-.19,0-.39,0-.61.03-.42.02-.87.08-1.34.15-.3-1.03-.94-1.88-1.88-2.37-.93-.48-2.14-.62-3.37-.23-2.47.76-3.93,3.15-3.44,5.25-1.15.48-2.31,1.02-3.47,1.57-.58.29-1.16.57-1.75.88l-1.84.95-7.87-14.89c2.83-5.37,7.26-9.4,13.01-11.15,2.87-.88,6.1-1.19,9.49-.67,3.58.53,6.43,1.97,9.14,4.04Zm-19.86,7.61c-1.28-1.03-2.99-1.03-4.35-.47-1.37.56-2.37,1.66-2.33,2.77.03,1.16,1.18,2.56,2.59,3.52,1.42.96,3.1,1.53,4.36.96,1-.44,1.49-1.64,1.48-2.98-.02-1.34-.54-2.84-1.74-3.8Zm2.84-6.24c-1.36.3-1.64,3.6-.45,4.88,1.17,1.26,3.1.44,3.32-.95.25-1.6-1.56-4.21-2.87-3.93Zm12.78,2.47c-.22-.51-.69-.91-1.29-1.17-.61-.25-1.42-.37-2.2-.27-1.59.17-3.13,1.09-3.65,2.65-.5,1.46-.1,3,.59,4.14.71,1.14,1.68,1.89,2.63,1.79,1.21-.13,2.15-1.39,3.04-2.85.84-1.49,1.35-3.2.89-4.29Z"/><path class="cls-2" d="m219.85,88.48l-16.6,2.83c-.21-1.18-.67-2.31-1.57-3.6.81-.7,1.32-1.61,1.37-2.59.09-.97-.39-2.07-1.17-2.78-.78-.7-1.79-.95-2.72-.74-.94.21-1.76.83-2.35,1.72-1.37-.72-2.98-1.23-4.85-1.49l2.41-16.67c3.13-1.29,6.68-1.7,10.18-1.06,3.5.62,6.9,2.32,9.55,4.75.69.62,1.25,1.23,1.8,1.86.54.66,1.06,1.32,1.53,2.06.94,1.45,1.74,3.06,2.29,4.81,1.13,3.47,1.27,7.42.14,10.9Zm-16.04-14.97c.04-1.64-1.17-3.07-2.64-3.73-1.46-.68-3.09-.56-3.81.28-.77.88-.78,2.71-.46,4.35.33,1.67.92,3.15,1.94,3.64.82.38,1.91-.04,2.96-.87,1.02-.83,1.97-2.12,2.01-3.67Zm7.06-.84c-.52-.56-1.6-.5-2.53-.05-.94.44-1.76,1.29-1.97,2.13-.4,1.67,1.25,2.9,2.59,2.42,1.52-.56,2.94-3.4,1.92-4.5Zm3.85,12.87c.79-.81.69-2.48-.17-3.88-.85-1.4-2.42-2.4-4.04-2.16-1.54.23-2.7,1.32-3.39,2.45-.69,1.14-.95,2.31-.48,3.06.59.95,2.13,1.26,3.79,1.41,1.66.12,3.47-.02,4.28-.88Z"/><path class="cls-2" d="m203.11,117.99l-10.11-13.47c2.04-1.53,3.95-3.13,5.68-4.8.87.63,1.97.88,3.07.69.55-.08,1.12-.3,1.62-.57.47-.25.91-.6,1.24-1.03.67-.86.81-1.88.49-2.71-.31-.85-1.08-1.5-2.03-1.95.17-.48.27-.85.29-1.2.02-.09,0-.17.02-.26v-.47c-.03-.31-.06-.62-.11-.92l16.6-2.83c.55.72,1.06,1.5,1.49,2.31.23.41.42.82.6,1.24l.27.64.23.72c.58,1.94.8,4.04.64,6.07-.3,4.09-1.94,7.77-4.08,10.5-.54.69-1.11,1.34-1.7,1.91-.3.3-.6.58-.87.8-.28.24-.56.48-.85.7-1.17.91-2.42,1.69-3.75,2.33-2.66,1.29-5.6,2.06-8.71,2.29Zm10.45-17.95c1.65-.1,2.98-1.53,3.43-3.2.48-1.67.01-3.38-1-3.89-1.05-.55-2.8-.04-4.33.56-1.54.64-2.88,1.24-3.17,2.16-.23.73.3,1.74,1.23,2.69.92.93,2.28,1.79,3.83,1.68Zm1.39,6.98c.5-.55.37-1.62-.15-2.52-.52-.91-1.42-1.66-2.27-1.81-1.69-.27-2.8,1.47-2.21,2.76.35.73,1.24,1.4,2.19,1.75.95.35,1.96.34,2.45-.18Zm-11.57,5.41c1,.48,2.43,0,3.49-1.04,1.07-1.04,1.74-2.63,1.3-4.2-.42-1.49-1.6-2.55-2.83-3.09-1.23-.53-2.51-.56-3.3.17-1,.92-1.14,2.66-.83,4.35.32,1.68,1.11,3.3,2.16,3.8Z"/><path class="cls-2" d="m176.59,133.28l-7.21-15.22c2.73-1.28,5.09-2.41,7.55-3.69,1.35,1.69,4.21,2.03,6.71.62,2.49-1.42,3.65-4.04,2.87-6.06,2.32-1.45,4.46-2.87,6.5-4.41l10.11,13.47c-1.06,2.94-2.61,5.55-4.36,7.67-1.76,2.13-3.83,3.86-6.12,5.15-2.3,1.29-4.83,2.16-7.53,2.58-2.71.43-5.61.39-8.51-.11Zm14.89-13.33c2.85,1.61,6.63-1.05,6.24-3.26-.2-1.14-1.53-2.36-3.07-3.12-1.54-.76-3.29-1.07-4.5-.29-1.88,1.21-1.34,5.16,1.33,6.67Zm-1.44,6.58c1.16-.53.75-3.8-.65-4.83-1.38-1.02-3.13.21-2.97,1.62.18,1.6,2.51,3.7,3.62,3.21Zm-12.11,1.45c1.7,1.43,5.86-.45,5.95-3.72.07-3.07-3.05-5.55-5.06-4.54-2.55,1.28-2.65,6.76-.88,8.26Z"/><path class="cls-2" d="m158.4,143.81l-18.81-1.53c-.06-2.47.56-5.11,1.69-7.31.28-.55.58-1.08.91-1.57.16-.25.33-.49.5-.71.17-.23.32-.46.61-.65l3.04-2.4c1.01.37,2.4.34,3.93.04,1.2-.09,2.47-.3,3.75-.64.64-.17,1.29-.37,1.93-.6.32-.12.65-.24.97-.38.24-.11.49-.21.74-.32,2.71-1.28,4.26-3.8,3.77-5.91l7.95-3.76,7.21,15.22c-1.93,3.37-4.17,6.08-6.73,8.13-1.28,1.03-2.63,1.89-4.07,2.6-1.04.5-.64.28-.77.26-.05-.06-.14-.15-.29-.26-.33-.23-1-.59-2.19-.81-1.16-.21-2.78-.06-4.14.61Zm6.71-10.47c2.66,1.88,6.57-.17,6.54-2.38-.03-2.32-4.39-5.71-7.07-4.41-2.12,1.03-1.97,5.02.53,6.79Zm-1.93,6.38c1.14-.42.99-3.69-.3-4.85-1.26-1.15-3.21,0-2.91,1.31.16.75.89,1.63,1.56,2.36.34.36.66.68.92.91.29.21.39.4.73.27Zm-9.95.78c.72.03,1.4-.09,1.99-.27.6-.18,1.14-.37,1.57-.6.84-.45,1.18-1.33.82-2.69v-.05c-.45-1.5-1.7-2.99-3.63-3.54-1.29-.37-2.8-.17-3.94.58-.43.28-.78.6-1.05.93-.13.17-.26.34-.35.51-.06.19-.11.38-.14.56-.11.77.11,1.6.53,2.28.43.7,1.05,1.25,1.71,1.62.27.16.83.36,1.24.47.44.12.86.19,1.25.21Z"/><path class="cls-2" d="m173.08,162.78l-12.88,10.85c-1.97-2.34-3.91-4.72-5.8-7.14,1.37-1.69,1.07-4.69-.77-7.18-.46-.61-.98-1.19-1.52-1.56-.54-.38-1.11-.67-1.69-.86-.95-.13-2.83-.99-3.96-.72l-2.66-3.38c-.45-.56-.88-1.14-1.32-1.72-.23-.29-.42-.58-.58-.88l-.52-.89c-.32-.59-.53-1.18-.8-1.78-.2-.58-.35-1.14-.53-1.71-.27-1.09-.43-2.26-.46-3.5l18.81,1.53c1.27.65,2.55.9,3.45,1.04.93.14,1.57.11,2.1.09.26-.02.47-.05.64-.09l.12-.03s.02-.03.08,0l.19.16c.26.22.51.44.75.67.49.45.96.93,1.41,1.42.41.46.77.91,1.12,1.39,2.77,3.77,4.31,8.47,4.83,14.31Zm-15.47-11.84c.55-1.58.52-2.7-.07-3.53-.56-.81-1.72-1.39-3.13-1.56-.72-.08-1.6,0-2.33.22-.73.22-1.41.62-1.93,1.21-.49.58-.83,1.37-.76,2.25.05.87.42,1.83,1.11,2.69.54.68,1.24,1.18,1.95,1.46.18.07.37.13.53.16.15,0,.31,0,.47,0,.32-.02.65-.08.97-.17,1.3-.37,2.59-1.31,3.18-2.71Zm6.7.6c-.6-1-3.79-.23-4.68,1.25-.89,1.47.56,3.08,1.94,2.71,1.55-.42,3.32-2.99,2.75-3.96Zm3.34,11.29c.96-1.98-1.58-5.45-4.79-5-3.04.43-5.01,3.92-3.52,5.84,1.88,2.44,7.3,1.24,8.31-.85Z"/><path class="cls-2" d="m179.02,196.57l-14.96-7.73c.51-1,.87-2.28.95-3.98.54-.03,1.03-.16,1.49-.38.23-.11.44-.23.65-.38.2-.13.37-.23.54-.37.65-.54.96-1.45.7-2.44-.25-.99-.99-1.82-1.91-2.26-.91-.45-2.01-.52-3.02-.19-.45-.92-1-1.87-1.61-2.84-.3-.48-.63-.97-.96-1.46l-.4-.57h0s-.29-.35-.29-.35l12.88-10.85c.18.05.35.08.54.15l.71.36.65.41.53.26c.71.34,1.37.74,2.04,1.15,1.3.85,2.53,1.82,3.62,2.96,2.19,2.27,3.95,5.18,4.86,8.75.45,1.78.67,3.72.57,5.74-.03.51-.08,1.02-.14,1.52-.07.43-.16.85-.25,1.27-.19.85-.43,1.69-.74,2.53-1.19,3.34-3.45,6.57-6.45,8.69Zm-4.11-21.55c.97-1.32.86-3.12.15-4.46-.7-1.36-1.93-2.26-3.03-2.1-1.16.17-2.38,1.48-3.2,2.98-.8,1.51-1.24,3.16-.63,4.29.48.89,1.65,1.24,2.98,1.17,1.33-.09,2.83-.62,3.74-1.87Zm6.32,3.2c-.12-.77-1.06-1.31-2.08-1.44-1.04-.14-2.18.1-2.82.69-1.25,1.17-.56,3.09.81,3.47.78.2,1.88-.06,2.73-.6.86-.54,1.49-1.39,1.36-2.11Zm-4.54,12.91c1.11-.17,2.05-1.56,2.21-3.18.18-1.62-.46-3.34-1.88-4.16-1.36-.78-2.94-.56-4.18-.13-1.24.4-2.17,1.23-2.25,2.12-.11,1.15.9,2.33,2.16,3.47,1.24,1.09,2.79,2.08,3.94,1.88Z"/><path class="cls-2" d="m147.07,210.8l4.21-16.31c.31.08.58.13.62.13h.66c.98-.04,1.91-.14,2.78-.3.32,1.02.97,1.86,1.84,2.33.87.48,1.95.56,2.93.14.98-.42,1.65-1.26,1.88-2.2.24-.94.05-1.98-.48-2.9l.5-.39.4-.34c.12-.12.23-.23.36-.34.1-.12.21-.23.32-.34.4-.46.71-.92.98-1.43l14.96,7.73c.04,3.68-1.33,7.49-3.54,10.42-2.06,2.86-4.9,5.12-8.18,6.52-3.26,1.4-6.86,1.87-10.2,1.43-1.67-.22-3.3-.63-4.82-1.26-.35-.15-.95-.32-1.44-.52-.51-.21-1.01-.43-1.45-.68-.88-.5-1.64-1.06-2.3-1.67Zm20.26-8.56c1.48.73,3.24.31,4.5-.77,1.27-1.06,1.87-2.65,1.38-3.65-.5-1.06-2.19-1.76-3.8-2.16-1.65-.39-3.16-.58-4.03.13-.72.59-.83,1.77-.53,3.07.32,1.29,1.08,2.69,2.47,3.38Zm-2.17,6.75c.72-.23,1.11-1.24,1.08-2.27-.02-1.05-.43-2.14-1.11-2.69-1.35-1.06-3.15-.07-3.28,1.34-.05.81.39,1.84,1.05,2.59.66.77,1.57,1.25,2.25,1.02Zm-13.19-1.73c.48,1,1.97,1.54,3.53,1.31,1.56-.21,3.11-1.2,3.57-2.77.45-1.49-.05-3.01-.77-4.11-.74-1.11-1.69-1.84-2.63-1.71-1.19.17-2.22,1.45-3,2.96-.75,1.51-1.22,3.27-.7,4.32Z"/><path class="cls-2" d="m119.66,194.59l10.73-12.98c2.08,1.72,4.2,3.37,6.35,4.9-.91,1.96.04,4.64,2.41,6.12,2.36,1.49,5.13,1.12,6.44-.58,2.14,1.15,4.36,2.11,5.69,2.44l-4.21,16.31c-3.53.85-6.8.78-9.73.26-2.93-.53-5.53-1.55-7.87-3.03-4.66-2.95-8.02-7.6-9.81-13.45Zm18.87,7.27c.01,1.63,1.07,2.97,2.4,3.68,1.32.72,2.88.78,3.69.02.86-.79,1.11-2.59.95-4.27-.17-1.7-.74-3.3-1.96-3.92-1.89-.97-5.08,1.42-5.09,4.49Zm-6.52,1.88c1.04.79,3.74-1.12,3.96-2.85.23-1.7-1.67-2.66-2.85-1.86-1.34.9-2.1,3.95-1.11,4.72Zm-6.93-10.18c-.54,2.16,3.06,5.08,6.02,3.65,2.75-1.36,3.52-5.26,1.75-6.57-2.25-1.66-7.2.67-7.76,2.92Z"/><path class="cls-2" d="m99.28,173.91l10.39-14.25c.16.19.31.4.46.6.81,1.17,1.65,2.31,2.51,3.42l.92,1.17.59.72c.79.96,1.62,1.9,2.46,2.84-.65.86-.89,1.99-.71,3.17.2,1.19.8,2.42,1.81,3.44,2.01,2.05,4.84,2.49,6.6,1.22,1.97,1.86,4,3.65,6.08,5.36l-10.73,12.98c-6.06-.62-11.11-2.98-14.78-6.67-1.83-1.85-3.31-3.99-4.48-6.53-.57-1.26-1.05-2.6-1.42-4.01-.09-.35-.18-.71-.26-1.07-.08-.23.03-.22.05-.34l.1-.29c.13-.4.25-.87.35-1.41l.06-.35Zm15.66,9.96c-.82,3.17,2.7,6.12,4.73,5.19,2.1-.97,3.47-6.28,1.38-8.19-1.66-1.51-5.33.02-6.11,2.99Zm-6.73.3c.81.98,3.86-.25,4.5-1.86.63-1.59-1-2.97-2.33-2.46-1.5.58-2.94,3.37-2.18,4.32Zm-4.48-11.41c-1,2,1.9,5.65,5.09,4.87,2.99-.72,4.57-4.38,3.12-6.04-.93-1.07-2.69-1.26-4.39-.97-1.69.3-3.31,1.09-3.82,2.13Z"/><path class="cls-2" d="m83.84,181.96l-10.9-12.84,6.71-5.7c.86.66,2.03.9,3.26.73.31-.04.62-.11.94-.2.12-.02.41-.18.64-.3.24-.14.48-.27.72-.41.96-.57,1.92-1.25,2.87-2.06,1.88-1.66,3.61-3.12,4.95-4.33,1.35-1.24,2.58-2.28,2.98-3.38,2.58-.21,5.31.29,7.6,1.34,1.16.51,2.15,1.14,3.16,1.9,1.01.81,2.02,1.77,2.9,2.95l-10.39,14.25c-.87.27-1.48.65-1.94,1.11-.48.47-.84,1.07-1.03,1.59-.19.52-.23.96-.21,1.22.01.26.06.35.06.35,0,0-.01-.03-.05-.07l-.07-.07c.03-.06-.14.06-.27.14l-.4.24c-1.08.63-2.22,1.18-3.43,1.65-2.43.94-5.12,1.57-8.08,1.88Zm10.91-15.59c.81,1.26,1.86,1.75,2.83,2.07.98.26,1.87.32,2.55-.46.34-.4.7-1.18.91-2.05.21-.85.29-1.89.12-2.91-.16-1.03-.6-2.03-1.3-2.77-.7-.74-1.66-1.22-2.7-1.2-1.67.03-2.88,1.44-3.18,3.01-.17.79-.16,1.6-.02,2.33.07.36.17.7.31,1.01.14.35.3.68.49.98Zm-.87,7.19c.23-.12.14-1,0-2.12-.15-1.11-.38-2.43-.86-3.07-.94-1.27-2.67.46-2.25,1.83.22.79.95,1.63,1.62,2.29.68.66,1.26,1.18,1.48,1.07Zm-10.12,2.94c2,.94,5.48-1.78,4.87-4.97-.58-3.01-4.16-4.8-5.97-3.29-2.3,1.91-1,7.28,1.1,8.26Z"/><path class="cls-2" d="m59.99,201.28l-7.91-14.86c.5-.28,1.09-.59,1.52-.85-.03.01-.03.03-.03.02h0s-.04.04.04-.04l.21-.18,3.35-2.85c1.72,1.32,4.66.95,6.95-1,2.29-1.94,3.13-4.78,2.1-6.69l6.71-5.7,10.9,12.84c-1.52,5.79-4.18,10.25-7.93,13.42-1.88,1.58-4.03,2.85-6.46,3.79-.61.24-1.23.45-1.87.65-.32.09-.65.19-.97.28l-.5.13c-.16.04-.48.21-.72.3-.51.22-.99.45-1.56.54-.53.12-1.18.28-1.49.25-.78.02-1.57,0-2.36-.05Zm12.78-16.28c3.05,1.12,6.29-1.87,5.7-4-.63-2.23-5.72-4.38-7.97-2.43-1.79,1.54-.6,5.36,2.28,6.42Zm-.2,6.66c.99-.7,0-3.82-1.55-4.6-1.53-.77-3.04.77-2.59,2.12.5,1.53,3.18,3.14,4.14,2.48Zm-11.35,3.99c1.1.38,2.43-.03,3.48-1,1.04-.96,1.76-2.44,1.45-4.03-.58-3.01-4.16-4.8-5.97-3.29-1.15.96-1.4,2.77-1.1,4.48.42,1.6,1.08,3.35,2.13,3.84Z"/><path class="cls-2" d="m26.37,203.64l7.42-15.12c1.33.66,2.88,1.09,4.7,1.27.03,1.08.44,2.05,1.19,2.75.8.7,1.75,1.09,2.88.97,1.11-.12,2.08-.72,2.69-1.56.61-.84.86-1.89.71-2.96,1.96-.59,4.04-1.49,6.12-2.59l7.91,14.86c-1.59,2.78-3.7,5.17-6.33,6.97-2.61,1.8-5.75,3.02-9.17,3.37-.85.1-1.72.12-2.59.11-.44-.02-.88-.04-1.31-.07-.42-.04-.82-.1-1.23-.16-1.63-.26-3.26-.71-4.85-1.39-3.16-1.32-6.11-3.57-8.16-6.45Zm21.47-2.72c1.14,1.17,2.92,1.35,4.38.88,1.46-.47,2.56-1.55,2.57-2.66.02-1.17-1.09-2.59-2.43-3.63-1.36-1.05-2.91-1.73-4.11-1.33-.95.32-1.5,1.42-1.65,2.75-.14,1.32.16,2.89,1.24,4Zm-4.04,5.74c.74-.01,1.39-.85,1.67-1.84.29-.99.23-2.16-.25-2.89-.96-1.42-2.98-1.02-3.51.31-.29.75-.16,1.87.26,2.79.41.91,1.13,1.66,1.83,1.63Zm-12.12-5.42c.16,1.09,1.48,2.08,3.06,2.28,1.58.23,3.32-.3,4.2-1.68.84-1.3.81-2.9.41-4.16-.41-1.28-1.15-2.24-2.09-2.37-1.18-.16-2.46.79-3.63,2.02-1.14,1.22-2.13,2.76-1.95,3.91Z"/><path class="cls-2" d="m11.58,172.17l16.06,5.06c-.23.71-.31,1.27-.32,1.51,0,.03,0,.05,0,.08v.28c0,.19.02.38.04.56.02.37.06.72.13,1.05-1.03.29-1.88.84-2.36,1.62-.48.77-.57,1.75-.12,2.62.45.86,1.3,1.42,2.25,1.53.95.13,1.95-.16,2.82-.79,1.21,1.31,2.36,2.18,3.71,2.85l-7.42,15.12c-3.54.19-7.18-.81-10.18-2.6-2.96-1.71-5.63-4.4-7.35-7.79-1.73-3.37-2.45-7.35-1.96-11,.12-.91.29-1.81.54-2.66.23-.77.55-1.96.96-2.84.82-1.86,1.94-3.36,3.21-4.59Zm8.57,20.33c-.59,1.53.05,3.27,1.18,4.39,1.13,1.15,2.71,1.62,3.68,1.07,1.04-.58,1.63-2.27,1.93-3.93.26-1.67.28-3.24-.56-4.09-.66-.66-1.84-.64-3.1-.22-1.24.43-2.57,1.32-3.13,2.77Zm-6.96-1.68c.32.72,1.34,1.07,2.39.97,1.05-.09,2.09-.59,2.59-1.32.92-1.43-.16-3.15-1.58-3.22-.81-.02-1.81.47-2.54,1.19-.73.72-1.13,1.67-.86,2.38Zm1.6-13.68c-.53.2-.97.68-1.24,1.37-.26.68-.37,1.44-.27,2.26.17,1.62,1.18,3.24,2.76,3.68,1.51.42,3-.13,4.1-.86,1.09-.75,1.83-1.64,1.72-2.5-.07-.55-.41-1.05-.92-1.54-.25-.25-.55-.48-.88-.71-.32-.2-.68-.39-1.04-.59-1.45-.78-3.11-1.52-4.23-1.1Z"/><path class="cls-2" d="m31.92,147.21l11.07,12.69-6.68,5.68c-.44-.32-.95-.54-1.51-.66-.54-.13-1.22-.09-1.67-.12-.47-.02-1.08.19-1.6.44-.53.27-1.03.64-1.46,1.1-.86.93-1.27,2.07-1.23,3.12.03,1.06.51,2.03,1.3,2.75-.28.41-.54.82-.77,1.23-.24.4-.45.81-.7,1.3-.45.91-.81,1.77-1.03,2.49l-16.06-5.06c-.36-1.74-.46-3.46-.39-5.12.04-.83.1-1.61.24-2.43.14-.83.34-1.65.58-2.44.96-3.19,2.63-5.97,4.7-8.2,1.05-1.13,2.15-2.07,3.43-2.97l.52-.36c.18-.12.36-.24.48-.3l.85-.43c.58-.28,1.17-.54,1.78-.78,2.44-.96,5.16-1.6,8.14-1.93Zm-10.74,16.94c-1.62-.19-3.13.78-3.96,2.11-.85,1.34-.98,2.88-.26,3.74.75.9,2.52,1.23,4.22,1.17,1.72-.1,3.3-.49,3.95-1.53.52-.83.26-2.04-.46-3.17-.73-1.12-1.95-2.14-3.48-2.32Zm-.69-6.88c-1.04.95.37,3.98,2.06,4.46,1.64.49,2.92-1.18,2.39-2.5-.6-1.5-3.45-2.86-4.45-1.96Zm11.55-4.64c-2.03-.91-5.51,1.81-4.86,4.98.31,1.53,1.45,2.64,2.61,3.28,1.14.65,2.55.69,3.44-.06,2.29-1.91.93-7.22-1.19-8.19Z"/><path class="cls-2" d="m50.79,131.15l19.97,3.69c-.73,1.4-1.74,2.89-3.29,4.24l-8.69,7.39c-.59-.19-1.02-.48-1.6-.58-.55-.12-1.15-.14-1.77-.05-1.24.17-2.54.75-3.69,1.72-2.28,1.94-3.1,4.77-2.06,6.66l-6.68,5.68-11.07-12.69c1.34-5.17,3.61-9.3,6.78-12.39,1.58-1.55,3.39-2.84,5.42-3.87l.38-.19.19-.09c.07-.03.14-.07.14-.04.07.04.14.09.23.13.17.09.37.17.62.24.49.15,1.15.27,2.03.3.82.04,1.83,0,3.08-.14Zm-7.76,12.96c-3.07-1.1-6.32,1.89-5.7,4.01.65,2.21,5.78,4.33,8.03,2.37,1.78-1.54.57-5.34-2.33-6.38Zm.17-6.64c-.99.7.02,3.81,1.57,4.58,1.54.76,3.05-.78,2.59-2.13-.51-1.52-3.21-3.12-4.17-2.46Zm10.68-3.43c-1.35-.17-2.58.15-3.28.83-.36.35-.62.8-.77,1.39-.21.64-.35,1.44-.18,2.23.3,1.5,1.34,2.69,2.54,3.32.6.31,1.24.49,1.84.49.32-.01.55,0,.9-.17.37-.17.73-.4,1.07-.68,1.73-1.45,2.25-3.5,1.59-4.9-.62-1.43-2.3-2.31-3.7-2.51Z"/><path class="cls-2" d="m38.3,118.24l10.98-12.77,6.43,5.55c-.51.95-.6,2.09-.27,3.19.04.14.09.28.14.41.07.15.07.23.28.48.33.42.7.81,1.09,1.21.79.78,1.71,1.51,2.81,2.17,1.08.67,2.36,1.17,3.41,1.73,1.09.54,2.06,1.05,2.96,1.48,1.78.84,3.29,1.38,4.58,1.33.44.9.68,1.52.96,2.49.27.98.46,2.24.46,3.44,0,.59-.04,1.17-.1,1.67-.06.5-.15.91-.24,1.36l-.42,1.4c-.14.47-.42.98-.62,1.47l-19.97-3.69c-.67-.58-1.35-.9-2.15-1.17-.82-.3-1.81-.44-2.53-.37-1.45.11-1.78.35-1.78.35,0,0,.03-.02.06-.06.02-.02.04-.05.06-.08.01-.02.02-.04.04-.05l-.37-.38c-.96-1.01-1.94-2.18-2.56-3.31-1.37-2.31-2.45-4.92-3.24-7.84Zm17.71,7.6c-.52.48-.75.91-.77,1.27-.03.38.21.6.55.94.33.35.68.82,1.06,1.22.38.4.81.73,1.46.9.35.1.76.15,1.25.18.25.01.51.02.79.01.13,0,.27,0,.41-.01l.32-.03c.86-.1,1.86-.37,2.69-.89.83-.51,1.47-1.27,1.72-2.08.12-.4.15-.8.08-1.14-.06-.34-.23-.61-.48-.9-.78-.93-2.69-1.49-4.54-1.31-1.9.15-3.56.95-4.53,1.85Zm-7.53.96c.17.18,1.04-.1,2.15-.48,1.09-.4,2.37-.92,2.91-1.5,1.05-1.15-1.09-2.37-2.36-1.68-.75.38-1.42,1.26-1.95,2.04-.51.79-.91,1.45-.75,1.63Zm-4.8-9.47c-.59,2.12,2.64,5.24,5.73,4.01,1.42-.59,2.36-1.87,2.75-3.16.38-1.29.26-2.56-.61-3.3-2.19-1.94-7.24.21-7.88,2.45Z"/><path class="cls-2" d="m16,98.53l11.56-12.24,6.49,5.79c-1.11,1.85-.37,4.68,1.86,6.67,2.22,1.98,5.15,2.43,6.9,1.13l6.46,5.59-10.98,12.77c-12.15-1.35-19.54-8.24-22.3-19.71Zm17.58,9.2c-.71,3.16,2.81,5.94,4.82,5.03,2.11-.96,3.49-6.29,1.26-8.18-1.77-1.49-5.41.15-6.08,3.15Zm-6.68.67c.83.89,3.82-.49,4.39-2.12.57-1.61-1.17-2.89-2.46-2.28-1.46.69-2.72,3.54-1.93,4.4Zm-5.41-10.61c-.69,2.08,2.5,5.16,5.61,4.15,2.94-.96,4.26-4.71,2.53-6.28-2.19-2-7.41-.05-8.14,2.13Z"/></svg>