<?xml version="1.0" encoding="UTF-8"?><svg id="Réteg_1" xmlns="http://www.w3.org/2000/svg" viewBox="0 0 245.24 237.21"><defs><style>.cls-1{fill:none;}.cls-2{fill:#fff;}</style></defs><path class="cls-1" d="m31.53,105.96c-6.66-6.65-9.98-13.13-9.98-19.43,0-5.95,2.27-11.03,6.82-15.23s10.51-6.3,17.86-6.3c8.05.71,16.1,4.12,24.15,10.24,4.9,3.73,12.41,10.62,17.53,15.43,2.42,2.27,6.38.96,6.99-2.3l1.21-6.57c1.06-6.65,2.27-13.56,3.68-20.74,1.4-7.18,3.32-13.65,5.78-19.43,2.44-5.77,5.6-10.5,9.45-14.18s8.74-5.51,14.7-5.51c6.3,0,11.99,2.19,17.07,6.56,5.07,4.39,7.61,10.6,7.61,18.64,0,12.61-1.66,24.42-4.98,35.45-1.02,3.38-2,6.54-2.94,9.48-1.91,5.96,4.34,11.25,9.91,8.39,8.04-4.13,17.04-8.74,21.39-11.05,8.93-4.73,16.36-7.09,22.32-7.09,7.7,0,13.91,2.28,18.65,6.83,4.72,4.55,7.08,9.64,7.08,15.23,0,4.21-1.84,8.32-5.51,12.34-3.68,4.03-8.32,7.88-13.91,11.56-5.61,3.68-11.73,7.09-18.38,10.24-6.66,3.15-12.96,6.13-18.91,8.93l-4.43,2.1c-2.76,1.31-3.5,4.86-1.53,7.2,2.36,2.78,4.6,5.64,6.74,8.56,3.32,4.55,6.91,9.11,10.77,13.65,4.55,6.3,6.82,11.91,6.82,16.8,0,6.66-2.36,11.91-7.08,15.76-4.73,3.86-10.42,5.78-17.07,5.78-2.8,0-6.66-1.31-11.56-3.94-4.9-2.63-9.98-6.04-15.22-10.24-5.25-4.21-10.33-8.93-15.23-14.18-3.44-3.67-6.35-7.26-8.75-10.77-1.58-2.31-4.78-2.78-6.91-.97l-34.23,29.07c-7.01,4.21-13.48,6.3-19.43,6.3-7.01,0-12.78-2.18-17.33-6.56-4.55-4.37-6.82-9.54-6.82-15.49,0-2.8.96-6.04,2.89-9.71,1.92-3.68,4.81-7.26,8.66-10.77l32.46-27.61c1.27-1.08,1.01-3.08-.48-3.84-3.84-1.97-7.67-4.53-11.49-7.68-4.91-4.02-9.46-7.96-13.65-11.82l-14.7-13.13Z"/><path class="cls-2" d="m43.62,53.33l1.72,33.64c.07,0-.04,0-.1,0-.07,0-.12.01-.18.02l-.34.03c-.19.03-.43.06-.52.08-.05.02-.01,0-.03,0h0c-1.48-1.57-2.98-2.81-4.42-3.22-1.41-.44-2.7,0-2.99.98-.29.97.51,2.05,1.94,2.46,1.43.45,3.38.25,5.48-.23-.01,0,.02,0,0,0,.31.45.69.97,1.19,1.54.23.28.51.58.78.88.13.15.29.3.44.46l.11.11s0,0,0,0l-23.28,24.36-1.38-.51-1.2-.36c-.79-.28-1.59-.56-2.38-.89-1.57-.67-3.13-1.46-4.64-2.44-.78-.51-1.47-.95-2.28-1.65-.89-.78-1.64-1.52-2.43-2.34-1.54-1.62-2.95-3.4-4.16-5.34-2.44-3.85-4.08-8.29-4.66-12.89-.59-4.6-.23-9.36,1.13-13.83,1.35-4.47,3.7-8.63,6.79-12.1,3.08-3.48,6.87-6.3,10.98-8.22,4.11-1.93,8.58-2.91,12.91-2.96,1.09,0,2.16.03,3.22.13,1.06.09,2.12.25,3.02.47,1.88.44,3.56,1.04,5.29,1.8Zm-23.96,35.65c-1.3.94-2.14,2.39-2.39,4.04-.27,1.65.01,3.48.73,5.09.7,1.62,1.79,2.99,2.99,3.88,1.18.88,2.36,1.13,3.46.93,2.3-.47,4.5-3.36,6.12-6.23.4-.75.82-1.4,1.18-2.02.38-.64.69-1.23.96-1.76.52-1.08.8-1.91.53-2.6-.21-.54-.82-.94-1.71-1.32-.89-.37-2.08-.72-3.39-.99-1.32-.27-2.81-.45-4.29-.37-1.5.09-2.94.46-4.19,1.35Zm-8.57-12.27c-.66,1.68.41,3.84,2.1,5.14,1.72,1.34,3.98,1.88,5.66,1.4,1.65-.5,2.56-1.71,2.94-3.02.36-1.31.22-2.81-.71-3.9-1.05-1.22-3.12-2.08-5.2-2.09-2.08-.04-4.14.87-4.78,2.47Zm25.52-13.74c-.79-.82-2.05-1.24-3.54-1.19-1.48.05-3.16.59-4.62,1.57-1.47.97-2.7,2.38-3.36,3.92-.67,1.55-.79,3.21-.22,4.72.52,1.42,1.54,2.54,2.73,3.44,1.18.89,2.51,1.55,3.76,2.06,1.25.51,2.42.87,3.36,1.05.95.18,1.66.16,2.13-.18.59-.44.82-1.3.97-2.49.14-1.2.24-2.69.3-4.32.1-3.21.17-6.84-1.5-8.57Z"/><path class="cls-2" d="m85.2,71.55l15.07,40.4c-2.04.82-4.29,1.33-5.82,1.53-.75.11-1.35.15-2.01.22-.7.02-1.37.07-2.14.04-2.95-.03-6.68-.62-10.9-2.59-.37-1.63-1.11-3.42-2.1-5.21-1-1.91-2.25-3.86-3.66-6.04-2.5-3.97-5.49-7.68-9.06-10.69-1.88-1.58-3.79-2.82-5.76-3.75-.12-.05-.3-.14-.39-.17l-.19-.03-.38-.06c-.25-.04-.5-.04-.76-.04-.5.01-.99.04-1.47.17-1.92.43-3.54,1.74-4.68,3.54-1.42-.7-2.75-1.19-3.98-1.52-.6-.15-1.24-.3-1.74-.36h.02s0,.01,0,0c0-.01,0,0,.08,0l-1.72-33.64c.61-.31,1.17-.59,1.76-.86.58-.26,1.19-.57,1.79-.75,1.2-.38,2.52-.71,3.75-.97,2.19-.58,4.45-.93,6.69-1.06,4.51-.29,8.94.3,13.04,1.48,2.03.61,4.01,1.35,5.85,2.23.46.22.93.44,1.37.68l.67.36.17.09s-.02-.02-.02-.03c-.03-.03,0-.02,0-.03.04-.05.07-.1.08-.12.05-.1-.08.07-.08.77,0,.83.18,2.42,1.02,5.21.42,1.4,1.01,3.1,1.83,5.16.78,2.09,2.11,4.29,3.66,6.05Zm-20.9-2.76c.02-3.25-2.33-5.96-5.24-7.19-2.91-1.25-6.15-.9-7.49.87-1.44,1.86-1.23,5.48-.57,8.72.71,3.26,1.74,6.17,3.76,7.04,1.6.7,3.79-.22,5.8-1.95,1.99-1.76,3.74-4.41,3.74-7.49Zm10.7-4.89c-.37-.41-1.42.61-2.73,1.99-1.28,1.4-2.77,3.17-3.12,4.87-.35,1.67.44,3.07,1.49,3.82,1.05.76,2.26.79,2.96-.31.8-1.23,1.17-3.73,1.41-5.92.21-2.21.34-4.04,0-4.46Zm10.49,20.3c-.64-1.87-1.4-3.56-2.14-4.9-.74-1.34-1.48-2.32-2.19-2.9-1.4-1.13-2.86-.74-4.21,1.69-.3.56-.57,1.2-.79,1.88-.23.73-.41,1.52-.53,2.36-.06.35-.1.72-.12,1.1-.11,1.26-.08,2.6.1,3.99.18,1.39.52,2.8,1.02,4.12.25.67.53,1.32.85,1.94.32.6.66,1.16,1.04,1.68.76,1.08,1.59,1.83,2.47,2.36,1.54.85,2.92.77,3.88.11.99-.64,1.62-1.77,1.96-3.04.34-1.28.39-2.72.22-4.19-.03-.19-.05-.38-.08-.56-.05-.27-.1-.54-.15-.8-.12-.57-.24-1.13-.38-1.69-.28-1.11-.59-2.19-.93-3.17Z"/><path class="cls-2" d="m97.44,31.49l29.57,16.12c-.36.67-.71,1.37-1.05,2.16l-.58,1.36-.56,1.45c-.73,1.96-1.4,4.02-1.98,6.17-2.14-.23-4.25.4-5.95,1.79-.86.8-1.53,1.12-2.37,3.59-.18.51-.35,1.02-.54,1.55-.2.48-.39.97-.56,1.47-.36,1-.67,2.04-.95,3.12-1.1,4.3-1.4,8.65-1.16,12.76.25,4.08,1.02,7.94,2.39,10.46l-2.08,7.45-1.04,3.72c-.58.57-1.19,1.05-1.78,1.58l-3.58,3.11c-.3.29-.6.43-.94.64-.34.21-.74.43-1.15.65-.84.46-1.82.91-2.85,1.31l-15.07-40.4c-.04-1.69-.29-3.43-.74-5.01-.45-1.58-.92-2.97-1.35-4.17-.86-2.41-1.64-4.11-2.28-5.3-.65-1.19-1.16-1.88-1.52-2.26-.35-.39-.54-.47-.54-.47,0,0,.06.03.16.05.06,0,.11.05.21,0,.2-.56.47-1.31.72-1.94,1.06-2.65,2.4-5.25,4.05-7.74,1.64-2.49,3.59-4.86,5.81-7.05,2.18-2.09,4.81-4.38,7.71-6.16Zm-1.43,39.27c-2.7-.91-4.16-.25-4.59,1.51-.22.89-.18,2.1.06,3.58.25,1.47.72,3.22,1.41,5.03.36.95.81,1.95,1.31,2.96.25.5.52,1.01.79,1.5.13.23.3.54.4.7.1.15.21.31.32.47.86,1.24,1.9,2.28,3.07,3.02.58.37,1.19.66,1.82.85.31.1.63.17.94.21.31.04.55-.14.82-.27,1.03-.6,1.92-1.94,2.38-3.92.75-3.16-.05-7.17-1.82-10.04-.88-1.46-1.98-2.67-3.16-3.58-.59-.46-1.2-.84-1.81-1.14-.65-.37-1.31-.68-1.94-.9Zm-7.88-12.05c-.19.45,1.06,1.7,2.69,3.26,1.64,1.52,3.66,3.27,5.21,3.67,3.06.81,3.49-3.91,1.1-5.5-1.33-.95-3.52-1.34-5.39-1.57-1.87-.2-3.41-.29-3.61.13Zm13.72-16.75c-2.21.1-4.25,2.32-5.02,5.16-.79,2.83-.29,6.17,2.1,8.36,2.25,2.07,5.37,2.69,8.02,2.39,2.66-.31,4.85-1.52,5.44-3.45.74-2.45-.82-5.4-3.05-7.96-2.23-2.53-5.17-4.62-7.49-4.5Z"/><path class="cls-2" d="m163.44,32.17l-31.18,12.77s.01,0,0,0c.01-.01,0,0,0,0,0,0,0-.01.04.03-.08-.07-.3-.24-.43-.33-.29-.22-.53-.35-.72-.45.91-1.91,1.42-3.78,1.2-5.25-.2-1.47-1.14-2.54-2.51-2.54-.39,0-.58.06-.81.17-.22.11-.42.28-.59.49-.34.43-.53,1.04-.55,1.74-.05,1.45.69,3.23,1.73,5.07,0,0,0,0,0,0,0,0,0,0,0,0-.02.02-.21.22-.32.36-.26.29-.51.62-.77.96-.51.7-1.03,1.49-1.52,2.41l-29.57-16.12c-.08-2.83.23-5.71.96-8.58.37-1.43.83-2.86,1.41-4.26.3-.72.57-1.36.99-2.14.45-.8.93-1.59,1.44-2.36,1.97-2.97,4.5-5.65,7.46-7.81,2.95-2.17,6.34-3.82,9.92-4.88,1.79-.53,3.64-.91,5.5-1.15,1.85-.23,3.83-.33,5.45-.28,3.42.08,6.97.65,10.35,1.79,3.38,1.13,6.58,2.77,9.32,4.79,2.75,2.02,5.07,4.37,6.9,6.86.25.33.4.59.71.98.28.37.56.74.79,1.11.48.74.95,1.46,1.36,2.23.83,1.52,1.54,3.08,2.07,4.69,1.08,3.2,1.54,6.52,1.37,9.71Zm-42.43-10.82c-1.48-1.18-3.44-1.58-5.39-1.21-1.95.35-3.83,1.49-5.14,2.95-.49.54-.91,1.13-1.26,1.71-.31.56-.53,1.11-.67,1.66-.28,1.09-.21,2.13.22,2.98.82,1.63,3.03,2.81,5.46,3.64,1.22.41,2.5.74,3.71.98.61.13,1.22.19,1.74.32.52.12,1,.21,1.44.27,1.02.15,1.79.14,2.33-.25.47-.34.7-1,.83-1.92.12-.92.14-2.1.04-3.4-.11-1.31-.33-2.72-.82-4.09-.5-1.37-1.27-2.67-2.49-3.65Zm9.44-11.35c-.84-.08-1.68.28-2.49.9-.78.63-1.41,1.51-1.82,2.5-.83,1.98-.72,4.3.23,5.8.95,1.47,2.37,2.06,3.72,2.05,1.35-.04,2.74-.63,3.5-1.87.85-1.37,1.05-3.61.46-5.58-.56-1.96-1.97-3.67-3.6-3.8Zm21.25,18.75c.45-1.03.34-2.35-.31-3.67-.32-.65-.78-1.32-1.35-1.93-.52-.58-1.14-1.11-1.83-1.57-1.39-.92-3.08-1.53-4.75-1.58-1.67-.06-3.28.4-4.55,1.46-2.39,2-3.01,5.17-3.15,7.75-.08,2.63.16,4.7,1.3,5.39.74.45,1.78.43,3.08.21.67-.07,1.26-.38,1.97-.59.77-.28,1.51-.55,2.21-.8,3.03-1.16,6.46-2.51,7.39-4.68Z"/><path class="cls-2" d="m161.8,78.47l-33.56,30.47c-.19-.25-.3-.64-.43-1.01l-.38-1.1-.76-2.2-1.53-4.4-.38-1.1-.19-.55c-.03-.1-.07-.17-.09-.29l-.03-.4-.14-1.6-.07-.8-.03-.4.02-.46.07-1.84.04-.92c0-.3.02-.61.1-.97.27-1.39.46-2.74.78-4.16.8-.56,1.62-1.27,2.45-2.14,2.46-2.41,4.96-5.74,6.99-9.3.5-.89.99-1.8,1.44-2.73.43-.92.8-1.85,1.16-2.81.37-.96.65-1.92.9-2.9.24-.97.49-2.02.6-2.92.08-.55.14-1.09.19-1.63.02-.27.04-.54.07-.81v-.47c-.04-.62-.11-1.21-.24-1.79-.26-1.16-.7-2.23-1.31-3.17-1.21-1.87-3.02-3.18-5.12-3.64.06-1.19.09-2.38.11-3.58v-1.75c0-.28,0-.58-.02-.81-.03-.5-.08-.88-.14-1.12-.08-.32-.04-.21-.05-.23l31.18-12.77c4.15,3.92,6.9,8.8,8.55,13.61l.3.91.15.46.13.35.51,1.39c.33.93.61,1.87.87,2.81.51,1.89.88,3.8,1.12,5.72.24,1.92.33,3.85.29,5.78l-.06,1.45-.09,1.28c0,.08,0,.16,0,.24,0,.07-.03.2-.04.16-.1,0-.6.04-1.63.63-1.83,1.07-5.47,3.93-11.73,11.52Zm-5.67-21.83c2.93-1.37,4.42-4.36,4.57-7.23.03-.71,0-1.42-.12-2.09-.12-.71-.33-1.44-.6-2.05-.57-1.26-1.45-2.18-2.51-2.54-2.22-.77-5.57.66-8.44,2.26-.73.41-1.39.83-2.05,1.28-.64.45-1.21.84-1.71,1.46-.98,1.15-1.62,2.41-1.64,3.74-.06,2.09,1.68,3.94,4.12,5.04,2.44,1.09,5.59,1.42,8.37.13Zm9.04,9.08c.1-.32-.2-.67-.74-1.05-.14-.07-.28-.24-.44-.4-.16-.16-.33-.31-.52-.46-.37-.3-.78-.58-1.23-.83-1.78-1-4.05-1.52-5.71-1.04-1.64.5-2.48,1.76-2.62,3.04-.14,1.3.44,2.52,1.71,2.85,1.44.39,3.76-.08,5.74-.57.99-.25,1.89-.52,2.57-.77.68-.27,1.13-.44,1.23-.77Zm-12.76,17.34c2.14-2.04,3.77-4.14,4.52-5.75.76-1.63.65-2.89-.46-3.79-.56-.46-1.37-.83-2.48-1.03-2.07-.4-4.86-.09-7.46,1.17-2.62,1.24-5.21,3.55-7.02,6.39-.76,1.2-1.25,2.41-1.49,3.57-.26,1.08-.16,1.91.04,2.64.19.76.6,1.27,1.1,1.66.25.2.52.36.82.49.29.13.64.14.98.18.68.05,1.41,0,2.15-.12,1.49-.26,3.03-.87,4.5-1.71.19-.11.37-.22.55-.33.18-.11.43-.29.64-.43.44-.31.87-.62,1.28-.95.84-.65,1.63-1.32,2.33-1.99Z"/><path class="cls-2" d="m190.62,71.77l7.73,32.78c-1.23.29-2.89.83-4.7,1.59l-.68.29-1.67.78c-1.11.49-2.45,1.21-3.71,1.84l-3.81,1.97-1.9.98-.95.49-.47.25c-.14.06-.27.07-.4.11-.91-2.09-3.1-3.52-5.84-4.11-2.75-.59-6.05-.35-9.77.84-3.71,1.18-7.32,3.08-10.61,5.22-3.26,2.15-6.21,4.53-7.97,6.78l-.79.2-.4.1c-.15.06-.19-.03-.29-.04l-1.03-.36-1.15-.44c-.42-.18-.82-.33-1.25-.54-1.69-.82-3.57-1.88-5.26-3.19-1.71-1.29-3.29-2.8-4.57-4.3-1.28-1.5-2.27-2.95-2.91-4.06l33.56-30.47c1.95-.96,4.34-2.16,6.34-3.64,2.02-1.46,3.63-3.13,4.68-4.52,1.06-1.42,1.63-2.47,1.96-3.09.33-.64.4-.89.4-.89,0,0-.08.3-.04.76.03.46.18,1.1.62,1.83.11.18.24.37.39.56.15.19.29.4.61.55l.44.25c.02.06.27.04.46.03l.59-.02c.79-.02,1.58-.02,2.4.01,3.22.1,6.58.53,9.98,1.47Zm-29.29,23.87c.36-1.76.34-2.91.06-3.54-.26-.62-.87-.79-1.81-.89-1.87-.11-4.63.27-7.62,2.63-.78.62-1.62,1.43-2.49,2.39-.43.48-.87,1-1.31,1.55-.11.14-.22.28-.33.42-.1.13-.24.31-.27.37-.1.16-.21.33-.31.5-.83,1.39-1.44,3.11-1.61,4.87-.19,1.77.13,3.52.92,4.86.78,1.34,2.03,2.2,3.41,2.15.28-.03.52-.01.86-.16.35-.17.71-.36,1.06-.58.71-.43,1.43-.94,2.12-1.51,1.38-1.14,2.65-2.53,3.69-3.99,1.04-1.46,1.84-2.98,2.36-4.39.26-.7.45-1.38.58-2,.29-.92.54-1.84.7-2.67Zm10.39-16.39c-.41.09-1.47,2.26-2.78,5.03-1.28,2.76-2.74,6.09-3.03,8.02-.58,3.82,3.66,1.18,4.96-2.43.79-2.07,1.03-4.67,1.14-6.83.08-2.14.1-3.86-.3-3.79Zm14.01,2.86c-.79-.77-1.95-1.16-3.24-1.16-.72.02-1.12,0-1.64.1-.51.09-.92.25-1.36.48-1.7.95-3.29,3.29-4.63,7.12-.3.9-.57,1.82-.77,2.71-.16.83-.26,1.64-.29,2.41-.06,1.53.18,2.91.71,4.02.53,1.11,1.37,1.95,2.43,2.4.53.22,1.12.35,1.75.36.3.03.67-.08,1.04-.2.37-.13.74-.28,1.12-.48,1.92-.98,3.65-2.53,4.88-4.22.59-.81,1.06-1.67,1.41-2.54.18-.78.31-1.61.39-2.45.3-3.34-.14-6.93-1.81-8.55Z"/><path class="cls-2" d="m231.43,121.66l-29.74-17.31s0,0,0,0c2.28-.41,4.27-1.01,5.42-1.97,1.17-.93,1.41-2.18.7-2.91-.69-.73-2.06-.66-3.21.28-1.19.92-2.12,2.61-2.91,4.59h0s0,0,0,0c.02,0,.06.02.09.02.07,0-.04,0-.07-.01-.05-.01-.11,0-.17-.02-.22-.03-.48-.04-.75-.06-.13-.01-.29,0-.43,0h-.22c-.05,0-.04,0-.06,0-.03,0-.15,0-.3.02-.3.02-.8.11-1.42.26l-7.73-32.78c1.29-1.2,2.76-2.28,4.39-3.25.83-.48,1.69-.93,2.62-1.34.88-.41,1.99-.76,2.85-1.08,1.7-.62,3.49-1.13,5.38-1.45.47-.09.94-.16,1.45-.21.59-.04,1.24-.08,1.78-.1,1.12-.03,2.27-.04,3.4.03,4.56.24,9.15,1.43,13.34,3.49,4.19,2.05,7.93,5,11,8.48,3.06,3.48,5.44,7.51,6.84,11.78,1.43,4.27,1.87,8.78,1.37,13.11-.46,4.33-1.97,8.48-4.37,12-2.38,3.53-5.63,6.41-9.25,8.43Zm-17.45-38.36c-.01-3.22-3.07-5.92-6.57-6.64-.83-.2-1.81-.28-2.54-.25-.77.04-1.5.15-2.15.38-1.31.42-2.28,1.21-2.78,2.21-.53,1.07-.5,2.48-.21,3.98.29,1.5.86,3.15,1.53,4.65.67,1.52,1.42,2.93,2.16,4.02.53,1.05,1.1,1.79,1.8,1.96.57.14,1.23-.11,2.05-.63.81-.51,1.76-1.29,2.74-2.21.97-.94,1.97-2.04,2.73-3.3.77-1.27,1.28-2.65,1.25-4.17Zm15.28-.43c-1.1-1.41-3.51-1.72-5.59-1.02-2.1.67-3.85,2.24-4.39,3.87-.5,1.61,0,3.01.97,3.97.97.96,2.42,1.59,3.91,1.4,1.67-.22,3.54-1.44,4.66-3.09,1.14-1.64,1.48-3.77.43-5.12Zm-1.31,27.93c1.16-.23,2.27-1.04,3.06-2.3.8-1.25,1.23-2.93,1.13-4.66-.09-1.73-.68-3.48-1.71-4.85-1.03-1.37-2.48-2.34-4.15-2.67-.79-.16-1.55-.19-2.32-.1-.81.1-1.58.29-2.32.54-1.48.51-2.81,1.26-3.95,2.01-1.14.76-2.1,1.53-2.77,2.22-.66.69-1.05,1.29-.96,1.86.09.73.79,1.38,1.82,2.16,1.02.76,2.36,1.65,3.77,2.55,1.42.9,2.92,1.82,4.4,2.48,1.46.65,2.77.99,4.02.76Z"/><path class="cls-2" d="m184.08,153.37l-30.84-22.12,2.06-1.53,23.76-11.23c2.48,3.51,7.9,4.53,12.51,1.91,2.28-1.3,3.9-3.24,4.67-5.33.81-2.11.6-4.25-.3-6.2,1.78-1.24,3.42-2.5,4.88-3.76l.54-.47.26-.24.06-.06h0s0,0,0,0l29.74,17.31c-.32,1.83-.86,3.66-1.58,5.5-.36.92-.77,1.84-1.22,2.76-.23.46-.46.92-.71,1.37-.23.45-.54.95-.72,1.32-1.29,2.87-2.87,5.52-4.64,7.9-.89,1.2-1.82,2.32-2.8,3.39-.98,1.07-2.02,2.07-3.01,2.97-2.02,1.81-4.18,3.41-6.47,4.76-2.29,1.35-4.69,2.47-7.19,3.35-1.25.44-2.52.82-3.81,1.13-.64.16-1.29.3-1.95.43l-.49.09c-.07,0-.19.04-.22.03l-.1-.03-.4-.12c-2.19-.66-5.38-1.73-10.55-2.74-.47-.14-.96-.28-1.49-.41Zm22.9-23.03c2.85,1.53,6.19.88,8.61-.84,2.43-1.71,3.84-4.41,3.17-6.54-.32-1.14-1.29-2.17-2.52-3.09-1.23-.93-2.75-1.74-4.32-2.36-3.15-1.21-6.4-1.71-8.43-.22-1.6,1.18-1.99,3.64-1.42,6.26.59,2.6,2.23,5.33,4.92,6.77Zm-2.62,13.16c1.15-.52,1.54-2.44,1.25-4.46-.28-2.02-1.23-4.15-2.62-5.18-2.75-2.02-6.11.34-5.8,3.16.34,3.2,4.92,7.48,7.17,6.48Zm-22.78,1.74c4.56,2.27,9.48.41,10.62-6.48.12-3.05-1.38-5.85-3.34-7.67-.98-.92-2.07-1.58-3.17-1.92-.54-.17-1.09-.25-1.62-.24-.13,0-.26.01-.39.03l-.19.03-.27.07c-.36.1-.71.24-1.06.4-1.77.82-3.17,2.15-4.05,3.65-.88,1.5-1.24,3.18-1.13,4.77.2,3.21,2.33,6.09,4.59,7.36Z"/><path class="cls-2" d="m197.17,184.8l-32.14,10.42h0s.06.11-.14-.28c-.3-.56-.7-1.22-1.16-1.92l-.36-.53c-.21-.3-.05-.06-.06-.09.02.02-.08-.08-.11-.12l-.03-.04-.17-.2-.37-.44-2.94-3.59c.32-.45.66-.85.81-1.44.11-.65.15-1.36.13-2.11-.04-1.51-.34-3.19-.83-4.94-.5-1.76-1.17-3.6-2.16-5.44-.49-.92-1.04-1.86-1.65-2.8-.31-.47-.62-.95-.97-1.43l-.52-.72-.27-.36c-.08-.12-.11-.23-.17-.34-1.66-3.63-4.04-6.82-6.61-9.55-1.28-1.36-2.62-2.59-3.93-3.61-.33-.26-.66-.5-.98-.73-.33-.23-.54-.39-.82-.57-.53-.34-1.05-.64-1.59-.86.04-1.94.35-4.41,1.02-6.68.31-1.14.73-2.23,1.13-3.19.2-.48.42-.94.62-1.35.18-.42.54-.82.8-1.23l1.69-2.46.85-1.23.42-.61c.15-.2.24-.42.54-.6l6.04-4.49,30.84,22.12c.6,1.61,1.5,2.84,2.52,3.78.51.48,1.03.84,1.59,1.23.56.38,1.19.74,1.79,1,1.22.54,2.27.68,2.82.75.58.06.79.02.79.02,0,0-.25.05-.59.32-.17.13-.37.32-.57.57l-.04.05s-.03.03,0,.1l.16.4.3.8c.2.54.39,1.09.57,1.65.19.56.36,1.12.53,1.7l.13.43c.08.19.22.45.32.67.22.48.44.88.65,1.42.19.49.48,1.14.62,1.58.11.39.21.8.3,1.2.19.8.36,1.63.51,2.47.3,1.68.51,3.41.6,5.2.23,2.05.27,4.11.09,6.08Zm-29.9-26.11c1.45-.46,2.26-1.01,2.72-1.68.5-.7.91-1.67,1.34-2.57.41-.91.81-1.68.9-2.25.07-.6-.28-1.29-1.15-1.99-.46-.37-1.09-.75-1.86-1.13-.39-.19-.81-.38-1.27-.56-.48-.2-.9-.35-1.33-.49-1.77-.57-3.93-.99-6.16-1.07-2.24-.07-4.51.06-6.19,1.13-1.7,1-2.81,2.79-2.78,4.64.01.72.21,1.42.57,2,.17.31.4.56.63.83.29.28.62.56.95.81,1.34,1.04,2.91,1.85,4.53,2.36,1.62.52,3.28.74,4.78.7.75-.02,1.46-.1,2.1-.24.79-.12,1.56-.28,2.23-.5Zm15.53,3.82c-.2-.43-2.15-.57-4.64-.71-2.47-.11-5.42-.15-6.96.46-1.52.6-1.47,1.78-.63,2.79.81,1.04,2.35,1.82,3.93,1.72,1.79-.11,3.84-1.11,5.5-2.04,1.65-.96,2.96-1.79,2.8-2.21Zm3.02,18.18c.6-.92.76-2.15.5-3.44-.07-.33-.14-.63-.28-.99-.15-.38-.33-.77-.52-1.12-.21-.34-.43-.67-.68-1-.22-.3-.41-.53-.64-.79-.9-.99-2.05-1.82-3.37-2.34-.16-.06-.33-.13-.5-.18-.16-.04-.31-.06-.47-.09-.32-.05-.65-.08-1-.1-.7-.04-1.47-.02-2.29.08-3.11.37-6.1,1.67-7.51,3.97-.71,1.13-1.03,2.5-.88,3.95.04.36.1.73.2,1.09.05.18.11.36.16.54.04.15.07.28.11.42.17.55.44,1.07.81,1.54.47.59,1.06,1.06,1.72,1.44.65.35,1.47.71,2.04.63.33,0,.67,0,.99-.04.33-.03.65-.12,1.07-.08.8.01,1.62-.03,2.46-.12,3.31-.37,6.77-1.41,8.06-3.37Z"/><path class="cls-2" d="m145.37,223.23l16.24-29.51c.91.5,1.72.91,2.42,1.24l.49.22.22.1c.06.02-.04-.02-.04-.01,0,0,0,0,0,0,0,.01,0-.01-.01,0,.05.53.08,1.04.16,1.53.14.48.3.94.48,1.36.18.42.4.83.62,1.18.13.17.14.37.23.54.09.17.19.31.29.46.83,1.18,2.1,1.58,2.95,1.04.86-.53.96-1.81.1-2.99-.83-1.22-2.51-2.26-4.51-3.18,0,0,0,0,0,0l32.14-10.42c2.89,2.88,5.23,6.54,6.54,10.64,1.32,4.09,1.82,8.6,1.3,13.07-.26,2.23-.77,4.45-1.53,6.61-.77,2.15-1.79,4.22-3.02,6.17-2.46,3.91-5.86,7.27-9.78,9.89-3.92,2.63-8.39,4.47-13,5.39-1.16.22-2.29.41-3.54.53-1.06.1-2.1.12-3.13.13-2.29.03-4.61-.19-6.83-.58-4.46-.71-8.6-2.75-12.04-5.37-.44-.33-.85-.66-1.28-1.01-.49-.38-.77-.68-1.07-1-.61-.64-1.17-1.29-1.69-1.95-1.04-1.32-1.95-2.68-2.73-4.07Zm40.39-14.47c1.66.08,3.28-.51,4.56-1.62,1.29-1.1,2.24-2.7,2.7-4.39.46-1.69.46-3.45.02-4.86-.42-1.42-1.21-2.49-2.24-2.98-2.16-1.04-5.62.15-8.73,1.24-1.53.56-2.98,1.11-4.08,1.62-1.1.52-1.87,1-2.11,1.7-.2.54.03,1.23.47,2.05.46.83,1.16,1.81,2.02,2.81.88,1.01,1.92,2.05,3.15,2.89.62.42,1.29.79,2,1.07.69.26,1.43.43,2.23.47Zm-1.21,14.48c1.59-.89,2.14-3.17,1.63-5.2-.49-2.06-1.95-3.86-3.6-4.53-1.66-.66-3.19-.34-4.33.4-1.13.75-1.94,2.01-1.88,3.43.08,1.61,1.18,3.56,2.82,4.85,1.63,1.32,3.83,1.88,5.36,1.04Zm-28.62-4.29c.12,1.13.86,2.24,2.07,3.12,1.2.87,2.86,1.5,4.63,1.51,1.76,0,3.6-.47,5.07-1.35,1.49-.88,2.48-2.15,3.01-3.73.91-2.99-.37-5.95-1.65-8.2-.33-.56-.66-1.09-.97-1.56-.34-.46-.7-.87-1.06-1.2-.77-.65-1.25-1.08-1.85-1.04-.73.04-1.44.67-2.3,1.53-.85.86-1.84,2-2.87,3.23-2.04,2.46-4.32,5.31-4.06,7.69Z"/><path class="cls-2" d="m107.45,191.69l2.51-37.5c2.47.12,4.99.63,6.93,1.27.95.3,1.83.67,2.8,1.08.97.46,1.95.94,2.96,1.59,2.01,1.22,4.09,2.89,5.97,5.04.96,1.04,1.82,2.28,2.68,3.49.87,1.19,1.75,2.35,2.67,3.45-.38,1.19-.43,2.69-.2,4.3.11.81.3,1.63.55,2.48.13.43.24.84.43,1.3.09.36.06.58.11.88.29,2.24,1.42,4.52,3.32,6.32,1.9,1.79,4.23,2.76,6.46,2.88,2.23.12,4.35-.58,5.96-2.01,3.69,2.94,7.43,5.5,11.01,7.48l-16.24,29.51c-6.44.37-12.57-.66-17.97-2.63-5.4-1.97-10.17-4.94-14.15-8.7-1.99-1.88-3.77-3.96-5.35-6.2l-.58-.85-.14-.21s-.06-.08,0-.03c.02,0,.01,0,.02-.01l.06-.08c.08-.12.15-.25.23-.4.15-.31.31-.69.45-1.18.28-.97.49-2.34.55-4.3.02-.97.06-2.13-.08-3.36-.14-1.22-.48-2.47-.96-3.56Zm25.79,11.35c-.61,3.18.93,6.14,3.19,7.95,2.25,1.82,5.16,2.45,7.02,1.27,1.97-1.24,3.19-4.63,3.55-7.99.33-3.38-.16-6.73-2.26-8.32-1.66-1.26-4.17-.94-6.5.39-2.32,1.34-4.43,3.7-5.01,6.71Zm-13.35,1.38c.84.95,2.79.76,4.63-.11,1.85-.87,3.6-2.41,4.17-4.03,1.11-3.22-2.13-5.73-4.73-4.62-2.96,1.26-5.7,6.9-4.07,8.76Zm-7.28-20.81c-.1,1.48.03,2.91.33,4.1.3,1.2.77,2.16,1.42,2.85,1.29,1.37,3.46,1.76,6.49.84,2.93-.8,5.18-3.04,6.36-5.45,1.17-2.43.33-5.93-1.81-8.68-.68-.86-1.4-1.62-2.2-2.15-.79-.52-1.62-.82-2.44-.94-1.64-.22-3.16.3-4.34,1.19-1.2.89-2.08,2.13-2.68,3.49-.29.64-.57,1.53-.76,2.33-.19.82-.32,1.64-.38,2.41Z"/><path class="cls-2" d="m67.6,221.22l-12.12-31.43c.64-.25,1.33-.54,2.07-.91.37-.18.75-.38,1.13-.59l.12-.07h-.02s-.03.03-.02.03h0s0,0,0,0h0s-.02.02.02-.01l.1-.09.41-.34.81-.69,3.24-2.75c3.42,2.66,9.17,2.03,13.6-1.74,2.21-1.88,3.7-4.21,4.39-6.55.05-.15.06-.28.14-.45.11-.21.21-.42.31-.62.2-.41.39-.82.56-1.23.34-.81.63-1.61.84-2.39.43-1.55.59-2.99.37-4.19l6.49-5.51c.54-.45,1.08-.93,1.63-1.36l1.65-1.26c.55-.46,1.12-.72,1.68-1.08.56-.31,1.13-.73,1.69-.95,1.12-.51,2.26-1.09,3.35-1.4.55-.18,1.11-.39,1.64-.54l1.57-.35c1.08-.27,2.01-.38,3.14-.49,1.11-.1,2.33-.12,3.57-.07l-2.51,37.5c-.63,1.16-1.08,2.46-1.34,3.69-.28,1.22-.47,2.29-.59,3.23-.24,1.88-.2,3.25-.05,4.23.08.49.18.88.3,1.2.06.16.12.3.18.42l.09.17s.02,0,0,.03l-.07.09-.14.18-.29.35c-1.54,1.86-3.22,3.55-5.03,5.08-3.63,3.06-7.82,5.48-12.54,7.26-.59.22-1.19.43-1.8.64l-.92.3c-.32.1-.55.13-1.12.45-1,.49-1.97.98-2.97,1.37-1.08.29-2.14.57-3.2.81l-.82.18c-.27.06-.43.05-.65.07-.4.04-.83.06-1.24.08-.82.05-1.67.07-2.51.06-1.69,0-3.4-.12-5.13-.36Zm26.38-31.42c2.89,1.26,5.09,1.13,6.6,0,.76-.57,1.39-1.43,1.89-2.52.49-1.09.86-2.42.99-3.84.06-.75.06-1.55-.02-2.37-.08-.8-.23-1.69-.45-2.39-.44-1.46-1.2-2.85-2.33-3.89-.56-.54-1.21-.96-1.94-1.24-.73-.31-1.52-.44-2.35-.4-1.66.07-3.49.87-5.13,2.26-1.29,1.11-2.24,2.53-2.75,3.99-.51,1.46-.59,2.95-.24,4.31.88,2.55,2.96,4.95,5.73,6.1Zm-.14,13.11c1.92-1.34-.13-7.53-3.18-9.13-3.03-1.57-5.94,1.42-5.02,4.1,1.03,3.03,6.34,6.29,8.2,5.03Zm-22.78,7.4c.94.62,2.27.79,3.73.47.67-.24,1.38-.58,2.08-1.03.6-.36,1.12-.74,1.63-1.21,2.01-1.86,3.37-4.75,2.72-7.91-1.23-5.96-8.31-9.6-11.81-6.68-1.11.92-1.77,2.28-2.08,3.83-.03.18-.1.42-.07.56l.06.5c.05.36.11.72.16,1.08.13.81.26,1.58.37,2.31.53,3.15,1.26,6.74,3.2,8.09Z"/><path class="cls-2" d="m19.3,177.45l31.15,13.04s0,0,0,0c-2.05.75-3.78,1.64-4.68,2.77-.92,1.1-.93,2.39-.14,3.02.79.62,2.07.35,2.99-.78.92-1.1,1.53-2.91,2.01-4.97.24.04.58.08,1.02.1h.35c.06,0,.11,0,.16,0,.12-.01.25-.02.41-.04.63-.08,1.64-.29,2.92-.8l12.12,31.43c-2.2,2.69-4.99,5.1-8.38,6.97-1.7.93-3.56,1.72-5.53,2.33l-1.51.42-1.41.35c-.93.23-1.92.38-2.9.53-2,.25-4.08.34-6.24.2-2.23-.16-4.58-.56-6.84-1.2-4.53-1.28-8.82-3.52-12.48-6.52-3.65-3.01-6.73-6.72-8.9-10.83-2.19-4.1-3.43-8.62-3.69-13.09-.22-4.48.47-8.93,2.14-12.89,1.68-3.96,4.38-7.4,7.46-10.05Zm23.75,35.86c.36,1.59,1.4,2.98,2.76,3.92,1.36.96,3.06,1.5,4.7,1.63,1.6.12,3.32-.18,4.57-.82,1.27-.64,2.14-1.57,2.44-2.65.64-2.28-1.01-5.51-2.75-8.28-.88-1.41-1.78-2.67-2.58-3.66-.86-.98-1.77-1.62-2.64-1.71-1.39-.16-2.71,1.38-4.24,3.52-1.45,2.15-2.94,5.01-2.26,8.06Zm-14.67,3.07c1.32,1.25,3.73,1.14,5.61.07,1.9-1.05,3.27-2.92,3.48-4.67.17-1.72-.58-3.04-1.66-3.87-1.09-.81-2.56-1.24-3.96-.79-1.56.5-3.17,2.06-3.96,3.95-.81,1.86-.77,4.11.5,5.3Zm-3.66-28.35c-1.07.41-1.99,1.4-2.48,2.78-.51,1.37-.61,3.12-.23,4.84.37,1.71,1.25,3.37,2.49,4.57,1.24,1.2,2.8,1.92,4.49,1.96,1.57.05,3.04-.46,4.32-1.18,1.28-.73,2.38-1.67,3.31-2.59.93-.93,1.68-1.84,2.18-2.61.51-.79.75-1.43.58-1.98-.21-.7-.96-1.24-2.04-1.85-1.07-.6-2.52-1.27-4.02-1.96-3.01-1.35-6.33-2.82-8.6-1.96Z"/><path class="cls-2" d="m53.89,142.28l40.47,1.59c-.23,1.16-.3,2.24-.76,3.52-.2.62-.36,1.23-.58,1.86l-.87,1.96c-1.32,2.62-3.18,5.41-6.09,7.92l-8.38,7.13c-2.56-.6-6.22.05-9.93,1.45-.93.35-1.87.76-2.82,1.21-.47.23-.94.47-1.41.72-.22.11-.5.28-.67.36l-.46.2c-1.22.55-2.41,1.3-3.51,2.24-4.42,3.76-5.97,9.33-3.9,13.13l-.81.69-.2.17s-.01.01-.02.02h0s-.4.38-.4.38l-.44.43c-.57.57-1.07,1.11-1.49,1.62-.41.5-.76.97-1.02,1.36-.17.24-.15.26-.16.25,0,0,0,0,0,0l-31.15-13.04c.09-6.72,1.61-12.31,4.06-17.3.61-1.23,1.27-2.42,1.97-3.55l.27-.42.13-.21.2-.27c.27-.37.56-.72.86-1.07l.83-1.27c1.09-1.64,2.28-3.18,3.55-4.61,1.27-1.43,2.63-2.76,4.08-3.99.72-.61,1.47-1.2,2.24-1.76.69-.5,1.86-1.36,1.65-1,.43.35,1.44.92,3.66,1.15,2.25.23,5.74.13,11.11-.87Zm-12.09,23.02c-1.51-.58-3.03-.65-4.44-.36-.72.16-1.33.31-2.16.8-.74.43-1.33.85-1.91,1.38-2.29,2.08-3.36,5.16-2.31,7.13,1.09,2.09,4.45,3.41,7.67,4.18,1.62.37,3.22.6,4.62.56.7-.02,1.35-.12,1.93-.3.56-.16,1.17-.54,1.38-.72l.08-.08.14-.15c.1-.1.19-.21.27-.32.17-.22.32-.46.44-.7.25-.5.42-1.05.5-1.63.17-1.16,0-2.46-.44-3.73-.89-2.54-2.93-4.98-5.77-6.06Zm.16-13.14c-1.92,1.34.13,7.53,3.19,9.13,3.03,1.57,5.94-1.43,5.02-4.11-1.04-3.03-6.35-6.28-8.2-5.02Zm20.02-5.71c-2.56,0-4.83.57-6.27,1.47-1.03.65-1.68,1.49-1.93,2.6-.25,1.11-.12,2.5.54,4.12,1.06,2.6,3.17,4.98,6.04,5.83,1.43.44,3.03.5,4.65.15,1.61-.34,3.22-1.1,4.52-2.2,1.59-1.33,2.56-2.89,2.86-4.35.2-1.18,0-2.29-.61-3.27-.55-.98-1.45-1.8-2.47-2.44-1.04-.65-2.15-1.1-3.44-1.42-1.32-.32-2.67-.49-3.9-.5Z"/><path class="cls-2" d="m23.41,114.46l23.28-24.36,12.24,10.93c-1.1,1.85-1.25,4.26-.68,6.51.58,2.27,1.99,4.56,4.11,6.4.39.32.77.64,1.16.95.46.37.92.72,1.39,1.06.93.68,1.88,1.31,2.84,1.9,1.91,1.17,3.99,2.07,6.2,2.75,1.11.34,2.26.61,3.43.82,1.17.22,2.22.43,3.29.56,2.03.31,3.88.42,5.38.23,2.18,1.86,3.81,3.87,4.96,5.77,1.15,1.89,1.92,3.69,2.43,5.27.25.79.45,1.53.6,2.22.15.71.26,1.22.39,2.28.12,1,.2,2.26.17,3.38-.01.56-.04,1.08-.07,1.52-.03.43-.07.8-.16,1.24l-40.47-1.59c-.43-.2-.83-.37-1.35-.6-.51-.22-1.1-.44-1.74-.61-1.29-.37-2.75-.34-3.9-.4-2.35-.07-4.01,0-5.2.13-1.19.14-1.9.36-2.32.55-.21.09-.34.18-.44.24l-.1.07-.02.02h0s-.32-.28-.32-.28c-1.88-1.64-3.63-3.44-5.23-5.4-.4-.49-.8-.99-1.17-1.49-.35-.49-.69-.99-1.02-1.51-.66-1.02-1.29-2.09-1.89-3.19-1.19-2.2-2.24-4.56-3.16-7.08-.46-1.26-.88-2.56-1.27-3.89-.19-.67-.38-1.35-.56-2.04l-.26-1.04c-.02-.15-.15-.41-.25-.63l-.3-.69Zm33.92,16.94c-1.54,2.42-1.35,4.2.09,5.33.73.57,1.82,1,3.2,1.31,1.38.3,3.06.49,4.83.5.93,0,1.92-.04,2.92-.13.5-.05,1.01-.11,1.5-.18.23-.04.47-.07.71-.11.17-.04.35-.07.53-.11,1.39-.32,2.67-.85,3.73-1.65,1.05-.79,1.88-1.86,2.1-3.18.22-1.3-.2-2.86-1.69-4.27-1.17-1.11-2.96-1.9-4.86-2.28-1.92-.37-3.91-.36-5.59-.05-1.7.31-3.2.93-4.46,1.78-1.27.85-2.3,1.92-3.03,3.04Zm-12.47,2.3c.1.11.22.2.36.27.07.04.14.07.21.1.05,0,.09,0,.14,0,.2-.03.46-.11.76-.23.61-.25,1.4-.67,2.27-1.16,1.72-1,3.75-2.3,4.53-3.74.77-1.42.25-2.78-.78-3.63-1.03-.84-2.51-1.12-3.78-.48-2.87,1.45-5.31,7.18-3.72,8.87Zm-10.54-20.79c-1.35,4.18,4.73,10.1,10.84,7.96,5.77-2.07,8.43-9.46,5.05-12.57-4.29-3.91-14.46.22-15.89,4.61Z"/></svg>