<?xml version="1.0" encoding="UTF-8"?><svg id="Réteg_1" xmlns="http://www.w3.org/2000/svg" viewBox="0 0 422.31 147.6"><defs><style>.cls-1{fill:none;}.cls-2{fill:#fff;}</style></defs><path class="cls-1" d="m41.4,127.8c0-7.51,5.75-6.23,12.3-14.86,3.99-5.28,4.96-17.26,4.96-30.68l.16-35.79c0-9.11-3.99-13.58-12.46-13.58-7.51,0-12.78,2.56-18.05,12.46-4.48,8.47-6.23,12.62-11.51,12.15-6.07-.48-6.23-11.83-4.63-25.89,1.76-15.34,6.39-20.45,14.86-20.45s19.5,5.44,43.62,5.44,35.15-5.44,43.62-5.44,13.1,5.11,14.86,20.45c1.59,14.06,1.44,25.41-4.64,25.89-5.27.47-7.03-3.68-11.5-12.15-5.59-10.23-10.87-12.46-18.86-12.46s-12.3,4.16-12.3,13.58l.16,35.79c0,13.42.96,25.4,4.95,30.68,6.55,8.63,12.3,7.35,12.3,14.86,0,3.51-2.71,7.03-9.74,7.03-6.39,0-12.78-.8-19.17-.8-4,0-11.03.8-19.18.8-7.03,0-9.74-3.52-9.74-7.03Z"/><path class="cls-2" d="m51.14,99.5l18.84,2.54c-.27,1.94-.59,3.91-1.09,6.04-.48,2.1-1.11,4.33-2.19,6.84-.64-.04-1.31.12-2.04.47-.77.37-1.53.9-2.4,1.58-.45.34-.9.71-1.35,1.1-.46.4-.84.62-1.22.94-.19.15-.38.31-.57.48l-.14.13s0-.03,0-.04c.03-.07,0-.06-.04-.03-.13.07-.26.16-.35.26-.41.42-.38.98.25,1.36.62.4,1.87.66,3.41.87l-27.33,7.56c-1.14-1.5-1.9-3.27-2.33-4.97-.43-1.71-.55-3.2-.43-4.78.18-1.57.67-3.4,2.12-5.37.6-.99,1.69-1.96,2.69-2.93,1.07-.95,2.39-1.82,3.47-2.77l1.64-1.4.42-.35c.07-.06.13-.1.22-.19l.28-.3.3-.32.12-.11c.15-.13.34-.31.47-.39.1-.07.09-.04.11-.04l.08.04c.21.12.81-.16,1.51-.79,1.44-1.18,3.34-3.21,5.54-5.43Zm-4.65,18.94c-2.67.17-4.98,1.4-6.11,2.64-1.17,1.23-1.21,2.69-.18,3.1.26.1.59.13.98.11.19-.01.4-.04.62-.07.29-.05.6-.11.91-.17,1.48-.28,3.06-.73,4.64-1.11,1.41-.35,2.83-.7,4.14-1.02,1.14-.28,1.94-.49,2.27-.75.51-.38-.31-.94-1.59-1.6-1.34-.64-3.11-1.29-5.68-1.14Zm-.82-6.76c-.41.36-.66.82-.75,1.29-.07.48.06.98.36,1.43.6.9,1.9,1.57,3.17,1.69,2.55.23,3.79-1.48,3.11-3.02-.44-.79-1.49-1.49-2.49-1.94-1.14-.23-2.6-.13-3.41.55Zm9.55-7.79c-1.21.27-2.11,1.47-2.45,2.83-.37,1.35-.2,2.85.77,4.36.92,1.42,2.3,2.52,3.93,2.64.78.05,1.58-.14,2.3-.56.69-.42,1.25-1.05,1.57-1.85.77-2.02-.14-4.13-1.55-5.52-1.39-1.41-3.31-2.17-4.56-1.89Z"/><path class="cls-2" d="m52.09,67.09l19.01.04-.04,9.95c-2.4.53-4.24,3.27-4.25,6.75-.02,3.47,1.71,6.47,4.07,7.14-.14,3.57-.39,7.22-.9,11.08l-18.84-2.54c-3.18-5.46-4.93-10.48-4.87-15.81.04-5.44,2-11.08,5.82-16.6Zm5.32,21.54c-3.22,1.72-3.29,6.46-1.14,7.69,1.13.63,3.16.41,4.91-.47,1.76-.87,3.25-2.41,3.31-4.17.11-2.8-4.04-4.67-7.08-3.04Zm-5.5-5.06c-.12,1.33,3.25,2.77,5.07,2.06,1.8-.72,1.58-3.16.09-3.77-1.68-.69-5.02.45-5.17,1.71Zm4.92-12.55c-2.27,1.04-2.5,6.02.69,7.83,3.01,1.71,7.17-.05,7.2-2.72.05-3.38-5.5-6.19-7.89-5.11Z"/><path class="cls-2" d="m50.11,40.54l11.96-15.17c2.58,1.95,4.67,4.53,6.15,7.42.74,1.45,1.34,2.98,1.78,4.56.24.79.42,1.59.57,2.4.16.81.3,1.65.37,2.37-.57.31-1.07.86-1.52,1.56-.11.17-.22.36-.33.55-.11.16-.22.33-.33.5-.21.35-.41.73-.59,1.13-.09.2-.17.41-.26.62-.09.16-.17.33-.24.5-.15.34-.28.7-.39,1.07-.21.75-.33,1.56-.33,2.41-.01,3.39,1.8,6.2,4.19,6.72l-.04,9.95-19.01-.04c-3.85-5.55-5.72-11.11-5.68-16.66,0-.69.04-1.39.11-2.08.03-.35.07-.69.12-1.04l.08-.52c.03-.17.06-.37.08-.44.05-.19.11-.39.19-.59.03-.08.08-.23.11-.27l.11-.13c.08-.08.18-.2.28-.27.1-.05.2-.11.31-.18.85-.52,2.12-2,2.31-4.37Zm7.51,14.81c-3.2,1.8-3.02,6.78-.76,7.83,2.38,1.09,7.95-1.7,7.93-5.08-.01-2.67-4.16-4.45-7.18-2.75Zm-5.56-5.06c-.13,1.36,3.27,2.8,5.08,2.05,1.79-.75,1.57-3.18.08-3.79-1.68-.69-5.02.44-5.17,1.74Zm3.33-11.18c-.36.52-.59,1.13-.65,1.7-.1.59-.04,1.15.11,1.7.31,1.05,1.18,2.19,2.78,3.08,1.53.77,3.32.83,4.72.16.69-.35,1.32-.81,1.7-1.53.36-.74.59-1.59.41-2.58-.18-1.25-.84-2.32-1.64-3.08-.87-.74-1.84-1.18-2.86-1.29-1.97-.26-3.8.75-4.57,1.84Z"/><path class="cls-2" d="m29,56.45l-3.92-27.64c.38.46.76.88,1.15,1.21.04.05.11.07.13.13-.02.09.12.04.22.03.21-.03.41-.08.63-.12.42-.1.87-.23,1.35-.38,1.84-.63,4.07-1.64,6.48-2.74,4.84-2.15,8.58-3.88,9.25-6.38l1.77-.05c.24-.01.72,0,1.11.02l1.23.06c.82.04,1.64.14,2.45.25.82.11,1.63.25,2.42.45,3.2.74,6.21,2.1,8.79,4.06l-11.96,15.17c-2.34.86-3.38,2.4-3.74,3.32-.24.26-.86.45-1.14.67-.38.19-.63.4-.89.54-.45.33-.66.53-.85.6-.19.07-.42.07-.91.16-.12.03-.25.01-.4.07l-.23.06c-.36.29-.55.45-.81.7-.45.5-.91,1-1.36,1.5l-.68.72c-.22.25-.42.53-.64.79-1.69,2.06-3.37,4.08-5.02,5.24-.82.71-1.6.94-2.36,1.25-.76.35-1.43.26-2.09.28Zm14.25-22.21c.52.72,1.16,1.28,1.83,1.62.69.38,1.44.56,1.95.62,1.12.1,2.3-.3,3.17-1.25.87-.99,1.42-3,.7-4.85-.35-.95-1.01-1.84-1.94-2.5-.46-.35-.99-.58-1.56-.76-.29-.09-.58-.16-.88-.21-.3-.05-.51-.05-.78-.05-1.6.02-2.96,1.24-3.39,2.73-.46,1.49-.07,3.25.92,4.64Zm-2.15,6.32c.33-.12.41-.97.36-2.1-.04-1.09-.22-2.39-.81-3.16-.58-.76-1.46-.87-2.14-.53-.69.32-1.11,1.09-.95,1.86.18.87.98,1.85,1.74,2.64.77.78,1.47,1.36,1.81,1.3Zm-10.83,5.15c.39.49.91.52,1.48.16.59-.36,1.21-1.15,1.78-2.09.29-.47.56-.99.79-1.52.25-.51.47-1.02.63-1.54.15-.53.27-1.01.34-1.49-.01-.4-.07-.83-.19-1.28-.4-1.63-1.46-3.08-2.93-3.7-.37-.16-.75-.26-1.13-.3-.19-.02-.39-.03-.58-.02-.19,0-.42.06-.5-.01-.52-.12-.88-.08-1.11.16-.53.61-.31,2.58-.06,5.12.14,1.25.3,2.58.52,3.72.22,1.16.56,2.31.96,2.8Z"/><path class="cls-2" d="m5.22,49.2l19.86-20.39c-1.24,2.31-2.32,4.48-2.91,6.34-.62,1.84-.62,3.36,0,3.43.24.03.52-.15.79-.51.55-.69,1.04-2.07,1.37-3.71.34-1.64.56-3.54.76-5.55l3.92,27.64c-1.59,4.87-3.52,8.17-5.51,10.26-1.01,1.03-2.06,1.8-3.32,2.31-.62.26-1.32.44-2.07.58-.75.1-1.56.13-2.4.15-1.06-.06-2.14-.2-3.18-.52-1.05-.3-2.07-.78-2.95-1.33-1.76-1.12-2.97-2.55-3.83-4.29-.84-1.75-1.34-3.81-1.43-6.26-.1-2.44.19-5.22.91-8.15Zm15.78,8.44c.53,1.25,1.73,1.15,2.73.16,1.01-.98,1.91-2.95,2.13-5.01.06-.53.08-1.09.07-1.65-.01-.59-.05-1.05-.11-1.77-.13-1.33-.33-2.63-.53-3.81-.43-2.31-.73-4.3-1.22-3.62-.39.55-1.09,3.2-1.92,6.62-.4,1.7-.81,3.56-1.08,5.39-.13.91-.23,1.81-.28,2.66.03.43.09.72.21,1.02Zm-6.58,6.26c.52.18,1.18-.12,1.76-.6.59-.51,1.12-1.26,1.46-2.02.3-.65.46-1.31.43-1.86,0-.11-.02-.21-.04-.3-.19-.86-.89-1.2-1.67-1.29-.79-.08-1.61-.06-2.14.48-.58.59-.97,1.85-.97,3.05,0,1.2.41,2.31,1.17,2.55Zm-4.53-15.09c-.84,1.7-.99,3.89-.44,5.35.53,1.46,1.72,2.22,2.91,1.46.28-.19.52-.4.78-.74.44-.75.86-1.57,1.26-2.43.79-1.7,1.5-3.52,2.09-5.18,1.19-3.35,2.03-5.97,1.9-6.63-.17-.82-1.75.75-3.67,2.53-.95.92-1.99,1.94-2.95,3.02-.21.25-.42.49-.62.72-.16.19-.32.4-.47.6-.3.41-.57.85-.79,1.29Z"/><path class="cls-2" d="m17.86,6.55l8.81,17.02s-.02-.03,0-.02c0,0,.03-.04-.04.13-.05,0-.22.48-.37.79-1.16-.34-2.31-.21-3.3.34-.48.32-.91.74-1.27,1.25-.33.54-.59,1.22-.73,1.85-.05.31,0,.63.18.89.18.24.46.41.84.49.74.18,1.85-.06,3.11-.48L5.22,49.2c-2.27-1.57-4.02-4.93-4.73-9.56-.36-2.29-.56-4.84-.47-7.51.04-1.32.05-2.7.21-4.03.15-1.33.33-2.67.54-4,.19-.95.4-1.73.65-2.59.25-.84.62-1.74.97-2.58.35-.84.87-1.77,1.34-2.61.5-.86,1.16-1.78,1.78-2.6.37-.47.78-.95,1.18-1.4.41-.46.8-.89,1.3-1.33.95-.88,1.94-1.67,3.02-2.3,2.13-1.29,4.48-2.05,6.83-2.13Zm-6.84,24.91c-1.76,1.26-2.75,3.73-2.94,5.78-.2,2.07.4,3.51,1.52,3.2.6-.16,1.34-.72,2.28-1.59.95-.87,1.98-1.95,2.93-2.95,1.9-2.07,3.46-3.65,3.52-4.46.05-.64-.98-.92-2.39-1.1-1.41-.14-3.26-.09-4.91,1.11Zm-4.67-6.5c-.23.95.42,2.16,1.39,2.79.97.66,2.25.83,3.23.44.97-.39,1.49-1.14,1.6-1.93.15-.77-.11-1.6-.77-2.08-1.48-1.1-4.99-.69-5.45.78Zm10.11-11.49c-.59-.17-1.35-.03-2.05.45-.69.48-1.39,1.24-1.8,2.14-.91,1.79-.8,3.85.42,5.23,1.16,1.3,2.93,1.73,4.41,1.67,1.54-.03,2.76-.59,3.17-1.43.24-.63.18-1.07-.09-1.82-.23-.64-.63-1.46-1.03-2.3-.81-1.66-1.79-3.57-3.04-3.94Z"/><path class="cls-2" d="m54.44,9.02l-2.29,18.87c-3.6-.42-7.2-1.02-10.69-1.69-.1-2.44-2.64-4.83-5.93-5.54-.83-.18-1.62-.23-2.34-.16-.75.06-1.4.25-1.97.53-1.19.54-1.88,1.54-2.25,2.68-.32-.06-.52-.05-.78-.09-.24-.03-.51-.06-.67-.05l-.54-.02c-.09.02-.18.02-.28.01-.1,0-.04-.02-.04,0L17.86,6.55c1.45-1.8,3.41-3.32,5.71-4.32,1.2-.55,2.2-.88,3.36-1.22.52-.15,1.02-.27,1.54-.38.52-.12,1.05-.22,1.51-.29,3.93-.59,7.09-.35,9.85.23,5.49,1.21,9.8,4.05,14.62,8.45Zm-21.8,1.56c-.62-1.73-2.33-2.76-4.17-2.93-.46-.03-.92-.02-1.35.03-.44.07-.88.2-1.25.36-.74.3-1.32.85-1.52,1.44-.43,1.26.56,3.12,1.45,4.72.98,1.65,1.89,2.98,3.28,3.14,2.1.22,4.72-3.45,3.55-6.75Zm6.16-4.46c-1.32-.41-3.47,2.63-3.07,4.56.39,1.89,2.8,2.19,3.7.85,1.01-1.5.63-5-.64-5.41Zm11.24,7.1c-.69-2.36-5.35-3.4-7.76-.65-2.27,2.6-1.4,7.05,1.34,7.59,1.72.34,3.55-.76,4.81-2.26,1.26-1.51,1.96-3.42,1.61-4.67Z"/><path class="cls-2" d="m86.13,9.11l2.18,18.88c-3.61.39-7.22.71-10.82.83-.33-1.19-1.27-2.19-2.55-2.91-1.28-.74-2.92-1.16-4.71-1.16-1.78-.03-3.42.42-4.7,1.13-1.29.7-2.23,1.72-2.56,2.9-3.6-.16-7.21-.46-10.82-.9l2.29-18.87c5.69-3.21,10.71-4.83,15.85-4.81,5.13.02,10.18,1.73,15.84,4.9Zm-20.73,6.24c-1.69-3.24-6.44-3.33-7.68-1.2-.64,1.13-.42,3.15.45,4.93.86,1.74,2.38,3.26,4.14,3.34,2.81.1,4.71-3.98,3.1-7.06Zm5.02-5.49c-1.29-.14-2.73,3.25-2.02,5.06.72,1.8,3.17,1.6,3.75.08.65-1.69-.49-5.01-1.73-5.14Zm12.41,4.36c-.61-1.09-2.12-1.61-3.67-1.43-1.55.15-3.17.95-4.02,2.59-1.63,3.05.25,7.18,3.06,7.07,1.76-.04,3.29-1.58,4.16-3.32.88-1.74,1.11-3.78.48-4.91Z"/><path class="cls-2" d="m122.38,6.07l-7.78,17.48h-.22c-.45,0-1.4.03-2.64.24-.63-2.36-3.41-3.7-6.75-2.97-3.31.72-5.88,3.08-5.98,5.53-3.51.66-7.1,1.23-10.71,1.64l-2.18-18.88c4.82-4.45,9.17-7.22,14.56-8.37,2.71-.56,5.78-.78,9.59-.25.48.07.96.15,1.43.24.49.1,1.03.23,1.53.35.96.24,2.14.63,3.19,1.05,2.29.93,4.4,2.23,5.95,3.94Zm-24.11,6.64c-2.4-2.76-7.05-1.75-7.76.61-.36,1.26.33,3.16,1.58,4.68,1.25,1.53,3.07,2.61,4.8,2.29,2.74-.54,3.64-4.97,1.37-7.58Zm3.76-6.49c-1.35.16-2.03,3.79-.92,5.4,1.11,1.59,3.43.86,3.72-.72.33-1.79-1.48-4.82-2.8-4.68Zm14.05,3.15c-.24-.59-.79-1.05-1.56-1.37-.74-.29-1.66-.4-2.56-.29-1.81.21-3.46,1.28-4.07,3.01-1.14,3.3,1.51,6.96,3.69,6.68,1.37-.14,2.42-1.61,3.28-3.23.87-1.68,1.69-3.54,1.21-4.81Z"/><path class="cls-2" d="m136.18,48.24l-19.97-19.31c2.49.69,4.42.57,3.98-1.6-.29-1.39-1.06-2.47-2.04-3-.49-.25-1.02-.43-1.57-.45-.56,0-1.13.1-1.7.29l-.11-.26-.05-.13-.03-.04c-.04-.05-.07-.11-.08-.17v-.02s-.03.03,0,0l7.78-17.48c2.34-.05,4.78.49,6.99,1.65.56.28,1.08.62,1.61.97.53.35,1.06.72,1.53,1.15.49.42.97.86,1.43,1.33.43.45.82.9,1.22,1.38.85,1.01,1.38,1.82,1.98,2.73.6.92.99,1.74,1.44,2.66.8,1.75,1.36,3.5,1.71,5.18.17.66.36,2.22.5,3.47l.19,1.95c.05.66.05,1.35.07,2.01.06,2.68-.03,5.27-.39,7.61-.34,2.34-.9,4.43-1.66,6.14-.76,1.71-1.74,3.02-2.83,3.93Zm-8.19-27.69c.61-.71.92-1.58.93-2.5.07-.91-.24-1.92-.71-2.81-1.01-1.81-2.81-2.87-4.01-2.38-1.27.47-2.06,2.37-2.81,4.11-.36.87-.68,1.69-.91,2.37-.2.64-.32,1.27-.05,1.68.19.45.61.75,1.18.95.55.23,1.24.36,1.99.37,1.5,0,3.24-.45,4.37-1.78Zm6.83,3.89c-.1-.78-1.08-1.38-2.21-1.59-1.16-.22-2.47-.05-3.24.55-1.53,1.22-.83,3.4.74,3.95.9.29,2.14.11,3.11-.5.49-.3.91-.7,1.2-1.16.14-.22.26-.49.32-.69.07-.19.1-.38.07-.57Zm-3.16,15.16c1.13.24,1.7-1.25,1.48-3.33-.22-2.06-1.21-4.48-2.98-5.63-1.65-1.11-3.47-1.03-4.87-.79-1.4.28-2.41.62-2.36,1.27.07.8,1.62,2.29,3.52,4.25.95.95,1.97,1.96,2.92,2.77.94.81,1.69,1.34,2.3,1.46Z"/><path class="cls-2" d="m112.83,57.11l3.38-28.18c.21,1.81.43,3.51.74,5.02.31,1.5.73,2.81,1.22,3.65.41.71.86,1.11,1.2,1.01.58-.18.47-1.73-.17-3.52-.63-1.82-1.73-3.93-2.99-6.16l19.97,19.31c.83,3.1,1.22,6.1,1.14,8.67-.07,2.59-.57,4.79-1.45,6.6-.9,1.8-2.14,3.27-3.99,4.4-.92.56-1.99,1.03-3.1,1.33-1.1.31-2.24.41-3.35.43-.79-.06-1.55-.11-2.26-.23-.71-.15-1.37-.35-1.97-.61-1.2-.52-2.21-1.28-3.16-2.27-1.88-1.98-3.68-5.09-5.19-9.45Zm16.42-2.14c1.17.75,2.31-.02,2.79-1.52.51-1.49.31-3.7-.58-5.4-.23-.44-.51-.87-.82-1.28-.16-.2-.32-.4-.49-.59-.2-.22-.41-.45-.63-.69-.96-1.02-1.98-1.98-2.94-2.84-1.91-1.66-3.49-3.14-3.62-2.31-.11.66.79,3.22,2.04,6.5.63,1.62,1.36,3.39,2.18,5.05.41.83.84,1.62,1.28,2.34.26.34.5.55.78.73Zm-1.86,8.8c.83-.18,1.32-1.34,1.33-2.61,0-1.29-.39-2.65-1.03-3.24-.62-.58-1.41-.45-2.16-.22-.75.25-1.41.63-1.54,1.4-.15.81.26,2.09.95,3.08.68,1,1.66,1.77,2.45,1.59Zm-11.58-10.36c.25,2.02,1.16,3.96,2.21,4.9,1.02.97,2.33,1.01,2.9-.29.13-.32.2-.61.22-1.04-.06-.87-.18-1.79-.33-2.71-.31-1.85-.77-3.7-1.22-5.4-.93-3.4-1.71-6.04-2.13-6.56-.54-.65-.8,1.39-1.19,3.78-.18,1.22-.36,2.56-.47,3.93-.05.75-.08,1.18-.08,1.76,0,.55.03,1.1.09,1.63Z"/><path class="cls-2" d="m91.04,40.22l-10.34-16.27c2.79-1.66,5.95-2.69,9.22-3.14.82-.12,1.64-.2,2.47-.24.81-.05,1.74-.07,2.23-.05,1.18,0,2.35.07,3.54.16.58,2.53,4.3,4.42,9.05,6.81,2.36,1.19,4.45,2.3,6.25,2.95.45.16.9.3,1.33.41.02,0,.08.04.06,0l-.2-.22c-.05-.05,0-.02,0-.04l.07-.05.14-.11c.09-.08.18-.16.28-.24.37-.35.72-.79,1.09-1.27l-3.38,28.18c-.3.08-.63.1-.97.07-.34-.02-.69-.05-1.04-.09-.73-.2-1.53-.61-2.33-1.03-.81-.54-1.64-1.33-2.49-2.12-.83-.88-1.67-1.9-2.51-2.93-.86-.99-1.65-2.2-2.62-3.1l-.7-.74-.35-.38-.17-.19-.23-.25c-.18-.2-.11-.11-.13-.13h-.03c-.15-.04-.3-.08-.43-.13-.52-.13-.8-.21-.98-.29-.2-.09-.36-.3-.77-.65-.42-.34-1.14-.78-2.01-1.3l-.65-.39-.17-.11s-.03-.07-.05-.1l-.1-.22c-.15-.3-.35-.61-.62-.94-.53-.64-1.33-1.33-2.43-1.85Zm15.58-1.75c-.06.22-.11.43-.14.63.06.32,0,.52.05.79.04.51.16,1.03.33,1.55.31,1.09.83,2.2,1.38,3.17,1.14,1.97,2.48,2.92,3.19,1.83.38-.52.68-1.69.89-2.89.2-1.18.35-2.56.45-3.84.19-2.61.4-4.66-.12-5.27-.21-.27-.58-.27-1.07-.16-.12.03-.25.07-.39.11l-.1.04-.05.02h-.03s.04.07.06.1c0,.09-.17.03-.25.06-.39.04-.78.13-1.14.27-1.47.57-2.59,1.97-3.06,3.6Zm-6.27,2.25c.28.24,1.03-.32,1.86-1.01.83-.72,1.74-1.68,1.97-2.62.11-.46.06-.89-.11-1.24-.18-.33-.47-.6-.81-.77-.7-.31-1.54-.21-2.05.42-.58.69-.85,1.93-.99,3-.11,1.07-.17,2.03.13,2.22Zm-8.82-5.73c.36.5.86.9,1.37,1.13.26.11.53.22.8.28.14.03.27.05.41.06.15.01.34.02.51.02,1.41-.06,2.91-.66,4.01-2.07,1.05-1.34,1.52-3.08,1.12-4.59-.37-1.52-1.69-2.79-3.29-2.87-.51-.04-1.01.03-1.49.18-.49.15-.9.35-1.44.66-1,.58-1.75,1.42-2.19,2.33-.91,1.8-.58,3.83.18,4.89Z"/><path class="cls-2" d="m88.54,65.8l-19.01.04-.05-9.95c2.39-.52,4.21-3.33,4.19-6.73,0-.85-.12-1.66-.33-2.4l-.08-.28-.08-.36c-.06-.24-.13-.47-.19-.7-.13-.46-.29-.88-.46-1.33-.29-.99-.65-1.88-1.06-2.62-.39-.78-.83-1.43-1.37-1.81.65-3.24,1.83-6.35,3.63-9.06,1.79-2.71,4.18-5,6.98-6.65l10.34,16.27c-.04,2.36,1.05,3.94,1.87,4.55.2.16.4.27.57.35.08.01.18.16.24.22l.09.12s.04.06.08.18c.06.19.1.38.14.56.02.11.03.15.05.31l.05.52c.06.69.09,1.39.09,2.08,0,5.55-1.9,11.12-5.68,16.68Zm-5.46-21.43c1.65-.73,2.56-1.71,2.97-2.75.38-1.05.46-2.28-.17-3.42-.66-1.16-2.38-2.36-4.39-2.31-1.03,0-2.06.33-2.99.98-.44.34-.85.75-1.2,1.23-.32.49-.57,1.05-.73,1.66-.23.96-.13,1.94.19,2.71.35.76.91,1.38,1.59,1.78,1.37.81,3.15.77,4.73.13Zm5.5,4.92c.12-1.36-3.3-2.79-5.1-2.03-1.78.76-1.54,3.19-.05,3.79,1.68.68,5.02-.46,5.15-1.76Zm-4.81,12.6c2.26-1.05,2.44-6.03-.76-7.83-3.02-1.7-7.17.08-7.18,2.75-.02,3.38,5.56,6.17,7.94,5.08Z"/><path class="cls-2" d="m89.35,98.33l-18.88,2.22c-.45-3.81-.64-7.42-.76-10.97,2.38-.63,4.11-3.63,4.11-7.09-.02-3.4-1.86-6.19-4.25-6.7l-.05-9.95,19.01-.04c3.9,5.53,5.82,11.09,5.83,16.63,0,5.38-1.81,10.42-5.01,15.9Zm-6.23-20.77c3.19-1.82,2.96-6.79.69-7.83-2.39-1.08-7.94,1.73-7.89,5.11.03,2.67,4.2,4.43,7.2,2.72Zm5.61,5.03c.12-1.35-3.3-2.78-5.1-2.02-1.78.76-1.54,3.19-.05,3.78,1.68.67,5.02-.49,5.15-1.76Zm-4.46,12.46c2.15-1.2,2.13-5.96-1.08-7.7-3.04-1.65-7.18.19-7.1,2.98.05,1.75,1.53,3.3,3.27,4.19,1.76.9,3.77,1.15,4.92.53Z"/><path class="cls-2" d="m105.8,127.97l-27.51-6.04c1.45-.27,2.61-.59,3.18-1.04.59-.44.6-1.04.21-1.48-.04-.04-.03-.02-.03-.01h0s-.11-.11-.11-.11c-.18-.19-.35-.38-.53-.56-.35-.36-.75-.69-1.21-1.19-.45-.45-.88-.88-1.31-1.31-.4-.41-.79-.79-1.18-1.13-1.48-1.33-2.9-2.13-4.14-2.07-1.67-4.73-2.22-8.64-2.71-12.47l18.88-2.22c2.21,2.29,4.06,4.38,5.49,5.84.34.41.69.63.96.94l.39.29.17.14.14.04c.16.09.26,0,.28,0,.07.04.24.21.38.37l.21.24c.23.23.61.73.86.91l1.62,1.43c.52.48,1.05.96,1.65,1.42l1.69,1.4c.54.47.97.98,1.45,1.47l.68.74c.21.25.34.49.52.74.31.49.67.99.9,1.46.2.46.39.93.59,1.39.15.45.23.87.33,1.3.33,1.68.22,3.1-.05,4.66-.27,1.54-.88,3.3-1.81,4.87Zm-19.25-17.97c1.1-1.46,1.3-2.98,1.01-4.4-.31-1.39-1.17-2.64-2.37-2.95-1.27-.3-3.16.41-4.61,1.77-1.47,1.34-2.42,3.39-1.8,5.35.51,1.56,2.08,2.53,3.64,2.51,1.61,0,3.12-.93,4.14-2.28Zm7.3.64c-.99-1.07-1.65-.74-2.79-.42-1.05.39-2.2,1.04-2.71,1.85-.48.82-.32,1.66.24,2.28.56.57,1.45.92,2.44.78,1.09-.16,2.26-.84,2.85-1.72.62-.88.69-2.02-.03-2.76Zm5.98,12.35c.94-.4.78-1.69-.47-2.89-1.21-1.22-3.66-2.48-6.27-2.55-.61-.02-1.19.01-1.73.09-.51.07-.98.18-1.41.31-.87.27-1.61.64-2.22,1.01-1.18.75-1.94,1.39-1.43,1.77.64.48,3.22.81,6.35,1.42,1.54.29,3.2.6,4.63.81.31.04.62.08.91.12.23.03.44.04.64.04.4,0,.73-.04.98-.14Z"/><path class="cls-2" d="m70.91,140.67l.15-19.01c1.91.02,3.75.09,5.51.18l1.72.09c.24,1.21.59,2.29,1.19,3.09.58.79,1.4,1.29,1.99,1.31.59.02.73-.48.16-1.3-.54-.83-1.79-1.92-3.34-3.09l27.51,6.04c.43.99.84,2.02,1.04,3.06.22,1.05.26,2.1.2,3.14-.14,2.08-.82,4-1.76,5.66-.97,1.64-2.19,3.03-3.71,4.15-1.51,1.13-3.31,1.96-5.53,2.5-2.23.52-4.87.65-7.65.36-2.77-.28-5.58-.79-8.22-1.44-.66-.16-1.32-.33-1.94-.5l-.93-.27c-.14-.04-.34-.09-.43-.13l-.24-.12c-.65-.34-1.29-.7-1.93-1.09-1.27-.78-2.52-1.65-3.79-2.61Zm22.54-5.24c2.23,1.01,4.63.74,6.07-.4.72-.57,1.18-1.32,1.34-2.04.14-.74-.02-1.43-.42-1.9-.22-.25-.52-.46-.86-.62-.17-.08-.36-.15-.55-.21-.28-.09-.58-.17-.88-.26-1.46-.42-3.12-.77-4.67-1.07-3.15-.58-5.83-1.24-6.56-.9-.58.28.14,1.43,1.31,2.96.6.77,1.35,1.61,2.27,2.44.46.42.96.84,1.52,1.23.45.3.92.56,1.45.79Zm-1.45,5.76c.97-.07,1.25-1.01.96-2.02-.28-1.02-1.14-2.15-2.21-2.89-2.17-1.49-4.28-1.44-4.13.05.1.83.88,2.09,1.98,3.13,1.06,1.02,2.49,1.81,3.4,1.74Zm-17.2-5.17c.23.58.71,1.04,1.32,1.36.31.16.65.29,1.02.37.37.09.95.15,1.43.16,2.07.07,4.15-.57,4.54-2.15.39-1.47-.56-3.34-1.48-4.81-.97-1.48-1.82-2.57-2.47-2.63-.42-.04-.81.28-1.28.81-.69.52-1.43,1.24-1.96,2.06-1.09,1.63-1.59,3.6-1.11,4.81Z"/><path class="cls-2" d="m34.93,129.59l27.33-7.56c-1.42,1.2-2.55,2.29-3.01,3.1-.48.8-.29,1.26.3,1.25.59-.01,1.36-.51,1.85-1.29.51-.78.74-1.86.85-3.06l3-.19,2.73-.14,1.53-.04h.83s.72,0,.72,0l-.15,19.01c-.68.48-1.15.94-1.76,1.38-.59.44-1.21.87-1.84,1.26-.64.4-1.29.77-1.95,1.11-.34.16-.67.33-1.01.49l-.51.23-.13.06-.23.06-.49.12c-2.6.63-5.36,1.14-8.14,1.44-2.76.28-5.6.46-8.04.07-4.89-.79-7.95-2.91-10.1-5.91-1.07-1.49-1.86-3.27-2.24-5.24-.38-1.97-.26-4.13.46-6.15Zm24.01,6.18c.29.79.96,1.34,1.83,1.69.44.17.92.29,1.43.37.49.08,1.09.1,1.44.09,1.61-.04,3.05-.74,3.5-1.9.47-1.22-.05-3.18-1.15-4.8-.55-.81-1.23-1.54-1.99-2.05-.38-.25-.78-.45-1.18-.58-.25-.06-.26-.12-.4-.15-.11-.03-.21-.05-.32-.04-.65.05-1.39,1.14-2.2,2.6-.77,1.46-1.52,3.3-.96,4.78Zm-8.92,5.59c.96.12,2.41-.59,3.54-1.68,1.12-1.07,1.86-2.39,1.87-3.29,0-1.78-2.36-1.44-4.12-.11-.96.76-1.76,1.88-2.08,2.93-.32,1.03-.06,1.96.79,2.15Zm-9.15-9.07c-.73.94-.19,2.68,1.41,3.56,1.56.94,4.01.99,6.21-.2.52-.27.99-.56,1.43-.89.51-.41.97-.83,1.38-1.25.83-.84,1.48-1.66,2.01-2.42,1.01-1.5,1.61-2.61,1-2.81-.76-.25-3.4.61-6.57,1.42-1.55.41-3.21.87-4.66,1.38-.3.11-.59.22-.87.32-.19.07-.38.15-.54.24-.33.18-.61.39-.8.65Z"/><path class="cls-1" d="m225.37,127.8c0-7.51,5.75-6.23,12.3-14.86,3.19-4.31,4.48-9.91,4.79-21.57-.16-6.55-2.88-8.95-10.54-8.95h-40.27c-9.74,0-11.66,4.16-11.18,13.1v-.32c.47,9.11,1.76,13.9,4.63,17.74,6.55,8.63,12.3,7.35,12.3,14.86,0,4.16-3.83,7.03-9.74,7.03-6.39,0-12.3-1.28-19.17-1.28s-11.03,1.28-19.18,1.28c-5.91,0-9.74-2.88-9.74-7.03,0-7.51,5.75-6.23,12.3-14.86,3.99-5.28,4.95-17.26,4.95-30.68v-15.5c0-13.42-.96-25.4-4.95-30.68-6.55-8.63-10.71-8.94-10.71-14.22,0-4.79,3.84-7.67,9.75-7.67,4.79,0,10.86,1.28,17.58,1.28s11.02-1.28,17.57-1.28c5.91,0,9.75,2.88,9.75,7.67,0,5.28-4.16,5.59-10.71,14.22-3.19,4.31-4.48,9.59-4.79,21.57.16,7.35,2.88,9.43,11.34,9.43h40.1c8.95,0,10.87-3.68,10.54-13.1-.47-9.26-1.76-14.06-4.63-17.9-6.55-8.63-10.71-8.94-10.71-14.22,0-4.79,3.84-7.67,9.75-7.67,4.79,0,10.86,1.28,17.58,1.28s11.02-1.28,17.58-1.28c5.91,0,9.74,2.88,9.74,7.67,0,5.28-4.16,5.59-10.71,14.22-3.99,5.28-4.95,17.26-4.95,30.68v15.5c0,13.42.96,25.4,4.95,30.68,6.55,8.63,12.3,7.35,12.3,14.86,0,4.16-3.83,7.03-9.74,7.03-6.39,0-12.3-1.28-19.17-1.28s-11.03,1.28-19.18,1.28c-5.91,0-9.74-2.88-9.74-7.03Z"/><path class="cls-2" d="m173.84,95.21h19.01v.1c-2.39,0-4.22.03-4.22.06s1.83.06,4.22.06v.1h-19.01c-7.74-.11-7.6-.21,0-.32Zm5.47.21c-3.19.02-2.99.06-.72.07,2.38.01,7.95-.02,7.91-.05-.02-.03-4.18-.04-7.19-.03Zm-5.59-.05c-.12.01,3.28.03,5.09.02,1.78,0,1.56-.03.07-.04-1.68,0-5.02,0-5.16.02Zm4.86-.12c-2.27,0-2.47.06.72.07,3.01.02,7.17,0,7.19-.03.03-.03-5.53-.06-7.91-.05Z"/><path class="cls-2" d="m203.2,123.46l-27.05-1.91c1.19-.48,2.13-.98,2.58-1.61.11-.16.2-.31.25-.48l.08-.23c-.06-.17-.19-.43-.29-.64-.12-.22-.23-.44-.35-.67-.14-.26-.29-.52-.43-.78-.3-.52-.61-1.04-.93-1.58-2.53-4.31-4.91-7.51-7.46-7.69-1.01-4.52-1.26-8.33-1.48-12.02l18.98-.99c2.08,2.51,3.73,4.89,5.04,6.71.65.91,1.2,1.66,1.64,2.21.44.56.73.91.93,1.26.05.09.11.18.14.28.07.1.03.13.15.33l.16.27.07.14.02.04.07.11.16.22c.42.56.84,1.1,1.38,1.58,1.02.99,1.95,1.99,2.98,2.96.48.49,1.01.97,1.41,1.47.38.51.75,1.01,1.1,1.5,1.25,1.99,1.69,3.85,1.66,5.35-.02,1.52-.31,2.77-.79,4.18Zm-19.98-16.92c1.27-1.29,1.66-2.88,1.5-4.36-.17-1.47-.93-2.82-2.1-3.23-1.23-.42-3.18.16-4.75,1.37-1.56,1.2-2.73,3.1-2.32,5.05.31,1.54,1.71,2.62,3.25,2.8,1.56.21,3.23-.43,4.43-1.65Zm6.67,1.47c-.16-.38-1.08-.37-2.18-.21-1.09.17-2.36.52-3.04,1.22-.67.68-.66,1.57-.25,2.22.42.65,1.21,1.01,1.96.78.88-.25,1.78-1.12,2.46-1.98.69-.85,1.2-1.65,1.05-2.02Zm5.46,12.16c.97-.44.65-1.69-.9-3.06-1.53-1.37-4.23-2.56-6.32-2.43-2.03.12-3.35,1.23-4.33,2.27-.94,1.07-1.52,1.94-1.05,2.38.59.55,2.85.68,5.7.91,1.41.1,2.92.2,4.22.21,1.29.02,2.13-.04,2.67-.28Z"/><path class="cls-2" d="m172.36,140.32l1.25-18.97,2.52.2h0c.63,1.26,1.31,2.39,2.16,3.21.82.82,1.8,1.34,2.39,1.28.59-.05.56-.73-.28-1.59-.81-.88-2.39-1.89-4.27-2.9l27.05,1.91c1.59,1.54,2.67,3.56,3.24,5.64.6,2.08.63,4.28.12,6.33-.49,2.06-1.45,3.89-2.67,5.41-1.22,1.54-2.74,2.75-4.5,3.66-1.76.91-3.75,1.51-6.13,1.75-2.36.24-5.08.01-7.8-.57-2.72-.57-5.42-1.42-7.88-2.39-.62-.24-1.22-.49-1.8-.74l-.86-.38c-.25-.12-.62-.26-.72-.37-.61-.47-1.22-.97-1.83-1.48Zm22.79-6.4c2.17.43,4.31-.63,5.06-2.37.38-.85.47-1.79.24-2.6-.22-.81-.69-1.49-1.24-1.9-.29-.22-.66-.37-1.04-.48-.19-.05-.39-.1-.59-.13-.28-.04-.58-.08-.88-.12-1.45-.18-3.01-.24-4.44-.27-1.42-.02-2.78-.02-3.81.04-1.05.06-1.79.18-2.04.54-.38.54.72,1.79,2.38,3.37.84.77,1.85,1.61,3.02,2.39.58.39,1.21.76,1.88,1.1.47.2.94.35,1.46.44Zm-.45,6.19c.84-.22.95-1.19.52-2.15-.42-.96-1.36-1.89-2.49-2.41-2.24-.93-4.42-.68-3.96.65.27.75,1.3,1.88,2.52,2.73,1.2.84,2.61,1.4,3.41,1.17Zm-17.89-4.18c.62,1.2,2.69,2.04,4.74,2.13,2.05.11,3.79-.65,3.73-2.2,0-.36-.1-.74-.25-1.12-.18-.42-.42-.86-.71-1.29-.57-.87-1.29-1.73-1.99-2.5-1.43-1.53-2.62-2.68-3.28-2.75-.82-.09-1.2,1.25-1.8,2.89-.54,1.64-1.12,3.58-.43,4.84Z"/><path class="cls-2" d="m134.52,133.94l26.26-12.34c-1.11,1.28-1.96,2.41-2.21,3.21-.28.8.03,1.26.63,1.2.59-.05,1.24-.59,1.53-1.38.16-.4.21-.86.24-1.37.37-.55.61-1.14.71-1.75,1.88-.18,3.92-.31,5.98-.33,2.06-.03,4.06.05,5.97.17l-1.25,18.97c-1.34.88-2.6,1.67-3.76,2.4-1.16.72-2.24,1.36-3.37,1.92-.56.28-1.14.54-1.74.78-.14.1-1.01.27-1.65.42-.68.14-1.36.28-2.04.42-2.74.53-5.56.87-8.24.93-2.7.09-5.23-.19-7.35-.84-.5-.18-1.01-.37-1.51-.55-.47-.2-.89-.45-1.32-.68-.44-.22-.84-.47-1.2-.75-.38-.26-.74-.54-1.07-.84-1.35-1.19-2.44-2.59-3.23-4.18-.79-1.6-1.31-3.42-1.35-5.39Zm26.51,1.24c1.19,1.48,2.9,2.05,4.4,2.03,1.51-.03,2.89-.65,3.42-1.78.54-1.18.17-3.19-.89-4.86-1.05-1.68-2.86-3-4.7-2.83-.71.07-1.37.39-1.81.88-.24.47-.49,1.11-.69,1.85-.39,1.47-.67,3.3.28,4.71Zm-7.63,6.25c1.02.01,2.35-.89,3.19-2.03.86-1.13,1.27-2.48,1.04-3.37-.47-1.74-2.74-1.28-4.23.23-.81.86-1.38,2.11-1.43,3.18-.07,1.08.46,1.94,1.42,1.98Zm-11.53-6.66c-.51.94.44,2.2,2.21,2.64,1.75.48,4.27-.02,6.31-1.51.48-.35.91-.73,1.28-1.12.41-.43.76-.87,1.06-1.3.61-.87,1.06-1.72,1.39-2.47.63-1.5.96-2.59.31-2.63-.8-.05-3.19,1.23-6.18,2.63-1.47.7-3.04,1.47-4.38,2.22-.28.16-.55.32-.82.47-.19.11-.37.23-.52.35-.31.24-.54.48-.68.73Z"/><path class="cls-2" d="m148.83,102.43l18.66,3.61c-.39,2.04-.89,4.18-1.71,6.54-.38,1.15-.91,2.42-1.52,3.71-.35.67-.7,1.35-1.11,2.05-.45.7-.91,1.39-1.39,2.07-.61-.19-1.32-.2-2.04-.12-.18.02-.37.06-.55.09-.08-.09-.17-.17-.28-.21-.21-.1-.42-.17-.63-.22-.82-.21-1.65,0-2.11.39-.46.38-.36.79.47,1.02.8.25,2.33.31,4.16.27l-26.26,12.34c-1.77-1.15-3.1-2.75-3.96-4.46-.93-1.71-1.36-3.66-1.57-5.36-.17-1.72-.12-3.19.32-4.84.43-1.64,1.45-3.54,3.24-5.5,1.08-.96,2.04-1.96,3.4-2.82l1.93-1.32c.61-.43,1.21-.87,1.82-1.3.6-.43,1.26-.83,1.74-1.31.13-.12.26-.21.4-.36l.21-.21c.07-.08.06-.05.1-.07l.31-.17c.09-.04.21-.1.26-.1l.14.04c.1.02.23.1.36.06.13,0,.3-.04.48-.07l.57-.28c.42-.17.85-.54,1.35-.83.95-.72,2.05-1.59,3.2-2.61Zm-6.94,18.3c-2.59.5-4.62,1.82-5.25,3.53-.67,1.7-.02,3.37,1.1,3.6.29.07.63.05,1-.03.19-.04.38-.1.58-.17.29-.11.58-.22.89-.33,1.47-.57,3.06-1.31,4.52-2.01,2.99-1.45,5.49-2.56,6.03-3.18.41-.5-.66-.84-2.3-1.22-.83-.17-1.82-.33-2.96-.39-.57-.03-1.18-.04-1.82,0-.58.03-1.17.1-1.79.22Zm-2.49-5.26c-.8.7-.51,1.68.45,2.29.94.63,2.41.97,3.83.9,1.41-.07,2.52-.48,3.11-.99.58-.53.69-1.22.16-1.79-.59-.64-1.94-1.14-3.48-1.26-1.56-.13-3.21.18-4.07.85Zm13.21-8.49c-1.23.16-2.22,1.2-2.71,2.35-.14.27-.21.58-.28.89-.08.29-.11.62-.11.97-.04.36-.05.76,0,1.18.02.45.07.93.25,1.34.62,1.58,2.27,2.38,3.71,2.9.36.13.71.23,1.03.31.35.04.54.23.95.07.36-.09.71-.25,1.05-.48.35-.29.68-.65.95-1.06,1.37-2.17.77-4.58-.49-6.13-1.23-1.59-3.09-2.48-4.35-2.34Z"/><path class="cls-2" d="m150.19,70.29h19.01v9.99c-1.2.26-2.25,1.08-3.01,2.3-.76,1.24-1.23,2.84-1.26,4.61-.06,3.52,1.58,6.61,3.93,7.35-.23,3.66-.59,7.41-1.37,11.49l-18.66-3.61c-2.92-5.42-4.58-10.37-4.43-15.64.03-1.31.17-2.63.41-3.96.25-1.34.61-2.78,1.09-4.16.96-2.79,2.39-5.58,4.29-8.37Zm5.26,21.61c-3.25,1.67-3.44,6.36-1.37,7.66,1.12.68,3.13.54,4.94-.29,1.79-.82,3.33-2.35,3.44-4.14.17-2.85-3.93-4.8-7.01-3.23Zm-5.42-5.14c-.15,1.31,3.21,2.81,5.04,2.13,1.81-.7,1.63-3.16.15-3.77-1.67-.7-5.03.39-5.18,1.65Zm4.91-12.52c-2.27,1.05-2.47,6.05.72,7.87,3.01,1.72,7.17-.07,7.19-2.75.03-3.39-5.53-6.21-7.91-5.12Z"/><path class="cls-2" d="m146.95,40.67l16.48-9.47c1.6,2.81,2.36,5.15,3.02,7.39.65,2.24,1.05,4.29,1.38,6.29-2.25,1.04-3.57,4.45-3.31,8.07.27,3.63,2.18,6.51,4.59,7,.11,3.55.1,7.09.1,10.35h-19.01c-3.86-5.66-5.78-10.8-6.15-15.76-.18-2.47.03-4.85.56-7.17.27-1.17.6-2.27,1.01-3.42.39-1.06.86-2.22,1.33-3.28Zm8.57,17.86c-3.1,1.92-2.83,6.77-.57,7.82,2.38,1.1,7.96-1.74,7.85-5.27-.09-2.79-4.35-4.4-7.27-2.56Zm-5.86-4.58c-.02,1.26,3.45,2.46,5.22,1.61,1.74-.85,1.33-3.3-.22-3.74-1.75-.49-4.94.91-4.99,2.13Zm2.81-12.39c-.92.82-1.15,2.26-.77,3.68.36,1.44,1.35,2.9,3.05,3.58,1.6.64,3.38.43,4.71-.34,1.34-.76,2.19-2.12,1.95-3.6-.31-1.87-2.1-3.33-4.03-3.89-1.9-.58-3.96-.27-4.9.58Z"/><path class="cls-2" d="m146.19,8.33l14.65,19.14c-1.8-.9-3.49-1.58-4.75-1.71-1.24-.16-2.02.26-1.76.8.26.54,1.36.94,2.55,1.1,1.21.16,2.55.05,3.95-.18h0s0-.01-.03-.04c0,0-.02-.02,0,0l.06.08.12.15.47.6.27.35.36.51c.46.68.97,1.4,1.34,2.07l-16.48,9.47c-.29-.06-.59-.02-.85-.02l-.38.02c-.16-.03-.33-.07-.51-.13l-.52-.16-.13-.04-.21-.14c-.14-.1-.27-.19-.41-.27-.53-.34-1.11-.67-1.68-1.03-.58-.37-1.16-.74-1.73-1.11-.62-.39-1.24-.77-1.86-1.15-1.27-.78-2.43-1.66-3.61-2.55-2.2-1.82-3.77-3.77-4.72-5.59-.95-1.83-1.43-3.53-1.5-5.54-.29-4.05,1.36-8.69,4.69-11.58,3.29-2.94,7.89-3.99,12.66-3.06Zm-2.64,20.3c-1.25.77-.89,2.5.52,4.06.68.76,1.55,1.46,2.39,1.91.82.47,1.61.71,2.29.63,1.43-.17,2.67-1.77,3.7-3.15.98-1.43,1.84-2.51,1.24-3.08-.48-.46-2.18-.7-4.34-.9-1.07-.09-2.23-.14-3.29-.08-.53.03-1.03.09-1.48.19-.4.1-.75.24-1.03.43Zm-8.85-5.01c.07.83,1.19,1.69,2.56,2.2,1.36.52,2.95.7,3.71.45.78-.27.69-.86.37-1.59-.36-.72-.9-1.58-1.68-2.07-.88-.56-2.11-.77-3.15-.57-1.05.19-1.89.81-1.81,1.59Zm10.62-10.2c-1.4-.63-3.5-.31-4.77,1.07-1.33,1.31-1.51,3.57-.22,5.05.29.35.62.65,1.01.9.62.34,1.26.62,1.9.86,1.28.48,2.57.79,3.72,1.01,2.33.41,4.11.56,4.53.05.52-.64-.64-2.33-1.93-4.32-.66-.97-1.4-2.01-2.21-2.94-.18-.2-.36-.4-.54-.59-.14-.15-.3-.3-.46-.43-.32-.27-.67-.51-1.04-.66Z"/><path class="cls-2" d="m187.86,7.85l-11.7,19.59-.9.09c-.82-2.33-4.18-3.81-8.07-3.9-1.94-.04-3.68.3-5.05.94-.34.16-.66.34-.95.54-.19.09-.15.22-.2.33-.03.12-.05.24-.07.37-.08.5-.09,1.07-.08,1.67l-14.65-19.14c1.07-1.25,2.51-2.38,4.43-3.19,1.9-.82,4.25-1.27,6.79-1.49,1.27-.11,2.59-.18,3.94-.21l1.02-.02c.3-.01.77,0,.85-.04l.94-.12c1.23-.14,2.38-.19,3.47-.16,1.09.03,2.15.13,3.27.31.56.09,1.13.2,1.73.33l.92.21c.1.02.12.04.28.05l.51.03.99.06c5.26.3,9.88,1.45,12.55,3.76Zm-25.31,6.19c-.65-1.65-2.98-2.66-5.04-2.93-2.1-.28-3.77.28-3.78,1.39-.02.6.35,1.36.95,2.27.6.92,1.37,1.92,2.11,2.84,1.53,1.85,2.66,3.36,3.48,3.43.34.03.64-.2.96-.61.25-.42.88-.98,1.2-1.66.71-1.36.84-3.15.13-4.72Zm5.08-5.31c-1.16-.14-2.7,3.18-2.08,5.02.64,1.83,3.14,1.66,3.7.14.62-1.7-.51-5-1.62-5.16Zm13.07,3.88c-.2-1.12-2.02-1.58-4.11-1.27-2.3.34-3.53,1.19-4.37,2.85-.74,1.56-.66,3.34.03,4.73.34.69.84,1.27,1.43,1.66.29.19.61.34.95.43.17.05.34.08.51.09.14.02.41,0,.45,0,.81-.07,1.7-1.57,2.92-3.4,1.16-1.83,2.46-3.96,2.2-5.1Z"/><path class="cls-2" d="m190.78,39.59l-15.01-11.66.39-.49c1.56.08,3.04.07,4.33-.2,1.28-.25,2.32-.84,2.36-1.44.06-.59-.83-.89-2.13-.57-1.3.3-2.9,1.16-4.56,2.22l11.7-19.59c2.46-.73,4.88-1.06,7.16-.9,2.27.17,4.4.81,6.27,1.91,1.89,1.08,3.47,2.68,4.66,4.56,1.16,1.89,1.86,4.02,2.11,6.17.12,1.08.11,2.16-.01,3.17-.1,1.03-.3,1.95-.61,2.86-.62,1.79-1.68,3.55-3.35,5.37-1.6,1.81-4.14,3.59-6.62,5.04-1.19.67-2.4,1.35-3.63,2.05-.56.3-1.12.6-1.69.91-.26.13-.55.31-.81.46l-.55.13Zm4.94-22.21c.94-1.54.23-3.5-1.32-4.45-1.52-1-3.67-.99-5.04-.15-.36.22-.69.49-.99.81-.32.33-.51.6-.87,1.1-.65.92-1.21,1.94-1.71,2.89-.94,1.92-1.81,3.52-1.12,3.98.56.35,2.43-.05,4.79-.75,1.17-.36,2.45-.82,3.68-1.43.61-.31,1.21-.65,1.77-1.04.33-.28.6-.6.81-.96Zm6.75,3.79c.02-.91-.91-1.6-2.01-1.78-1.13-.19-2.39.1-3.17.8-.76.7-1.1,1.62-1.14,2.4-.05.78.16,1.44.83,1.63.74.2,2.11-.07,3.3-.65.58-.3,1.12-.68,1.52-1.09.38-.42.63-.88.66-1.31Zm-12.52,12.13c1.5.06,3.63-1.17,4.85-2.69,1.21-1.51,1.37-3.04.17-3.68-.29-.16-.62-.26-1.01-.32-.51-.05-1.06-.06-1.64-.04-1.16.04-2.41.21-3.56.39-2.31.41-4.14.78-4.63,1.23-.62.56.39,1.43,1.54,2.62,1.19,1.14,2.66,2.46,4.29,2.5Z"/><path class="cls-2" d="m189.06,60.03l-11.52,16.37c-2.67-1.48-4.97-3.76-6.53-6.39-1.55-2.65-2.5-5.64-2.84-8.88,1.04-.8,2.13-2.61,2.82-4.72.38-1.02.76-2.02,1.01-3.15.26-.95.42-1.71.5-2.67.14-1.85-.1-3.65-.65-5.17-.26-.77-.6-1.47-1.02-2.04-.4-.59-.88-1.06-1.43-1.36.46-2.21,1.13-4.64,2.22-7.16.54-1.25,1.19-2.51,1.91-3.71.37-.59.73-1.18,1.15-1.76.2-.27.43-.62.6-.83l.5-.63,15.01,11.66c-.04.82.15,1.35.29,1.92.14.56.31,1.06.48,1.54.34.95.68,1.8.92,2.73.5,1.85.69,4.03.49,6.42-.05.59-.12,1.21-.22,1.82-.03.2-.04.17-.07.24l-.07.15c-.05.1-.11.2-.17.31-.25.1-.62.21-1.09.58-.46.35-1.02.92-1.5,1.76-.48.84-.79,1.89-.8,3Zm-6.74-13.51c1.71-.63,2.73-1.99,3.19-3.28.44-1.29.37-2.62-.42-3.57-.85-.97-2.75-1.63-4.78-1.26-2,.34-4.02,1.82-4.47,3.83-.37,1.58.47,3.02,1.77,3.83,1.32.82,3.08,1.04,4.71.45Zm5.01,5.37c.22-1.22-3.02-2.9-4.9-2.38-1.87.55-1.82,3.04-.36,3.72,1.64.76,5.04-.15,5.26-1.33Zm-3.96,10.52c.75-1.23.9-2.59.69-3.68-.25-1.09-.98-2.05-2.55-2.72-1.49-.61-3.29-.67-4.71.2-1.4.82-2.54,2.69-2.26,4.65.32,2.49,2.37,3.89,4.29,3.91.98.02,1.9-.22,2.64-.63.36-.19.78-.51,1.1-.8.33-.3.58-.61.8-.93Z"/><path class="cls-2" d="m217.68,60.46l1.24,18.97h-10.73c-.58-2.38-3.53-4.2-7.1-4.2-3.56,0-6.64,1.83-7.39,4.22h-2.68s-.34,0-.34,0h-.17s-.3-.01-.3-.01l-1.24-.06c-.83-.04-1.66-.07-2.46-.2-1.63-.17-3.2-.5-4.72-.94-.75-.24-1.5-.47-2.19-.81l-1.06-.47-1.01-.55,11.52-16.37c1.24-.67,2.12-1.45,2.71-2.14.3-.35.52-.67.69-.97l.12-.22s0-.07.08-.1l.25-.1c.34-.13.68-.26,1.01-.38,2.69-.96,5.28-1.43,7.87-1.42,5.16.02,10.27,1.95,15.88,5.75Zm-21.16,5.47c-.8-1.6-2.41-2.34-3.98-2.41-.19,0-.4,0-.58,0-.14.01-.28.03-.42.06-.28.06-.56.17-.83.3-.54.26-1.08.68-1.49,1.22-.87,1.14-1.34,3.1-.56,4.83.38.89,1.07,1.69,2.03,2.27.55.3.83.51,1.25.67.4.15.82.24,1.26.23,2.81-.02,4.84-4.17,3.31-7.18Zm5.23-5.59c-1.29-.12-2.86,3.28-2.2,5.09.67,1.78,3.13,1.56,3.77.07.71-1.68-.33-5.02-1.57-5.16Zm12.34,4.86c-1.15-2.27-5.95-2.47-7.78.72-1.74,3.01,0,7.15,2.81,7.17,3.57.03,6.19-5.51,4.97-7.9Z"/><path class="cls-2" d="m235.68,54.37l19-.55c.1,3.06-.06,6.54-.72,9.65-.71,3.13-1.97,6.02-3.92,8.46-1.2-.39-2.91.09-4.97.72-2.05.66-4.48,1.36-7.14,1.95-1.34.26-2.6.6-3.81.86-.3.08-.6.16-.89.24-.17.05-.27.08-.34.12l-.26.11c-.34.15-.65.32-.94.51-1.16.75-1.91,1.81-2.04,3h-10.73s-1.24-18.96-1.24-18.96c2.55-1.94,5.03-3.38,7.53-4.33,1.25-.48,2.5-.83,3.76-1.07.32-.06.63-.11.95-.15.09-.04.02-.08.04-.11,0-.06-.02-.08-.02-.08-.03-.02.3.6,1.35.91.51.15,1.14.2,1.88.05.74-.15,1.58-.5,2.51-1.3Zm-5.91,11.56c-2.24-3.19-7.03-2.99-7.88-.72-.9,2.39,2.44,7.92,6,7.89,2.8-.03,4.01-4.16,1.87-7.17Zm2.47-5.68c-.32-.02-.35.82-.35,1.89.02,1.07.11,2.37.66,3.26.54.9,1.45,1.2,2.2,1.1.37-.07.69-.25.89-.5.2-.26.28-.62.2-1.01-.17-.88-1.02-2.03-1.8-2.99-.79-.94-1.49-1.74-1.8-1.76Zm8.15-2.65c-1.15.16-1.85.98-2.11,2.09-.24,1.13-.28,2.67.24,4.52.14.44.32.89.51,1.29.16.36.37.71.61,1.04.48.64,1.14,1.2,1.88,1.52,1.47.66,3.44.31,4.44-1.35.62-1.03.79-2.3.56-3.5-.2-1.2-.77-2.33-1.49-3.21-1.45-1.78-3.44-2.53-4.65-2.39Z"/><path class="cls-2" d="m220.83,24.61l25.8,2.86c-1.15.49-2.08,1.02-2.52,1.67-.12.15-.18.35-.27.47.07.33.27.8.45,1.19.19.41.51,1.01.79,1.51.28.53.59,1.06.89,1.61,2.46,4.36,4.75,7.51,7.31,7.73.48,2.23.76,4.29.97,6.26.09.97.19,1.94.25,2.88l.1,1.44.08,1.6-19,.55c-1.02-1.06-1.95-2.38-2.79-3.51-.76-1.09-1.5-2.13-2.21-3.15-.64-.93-1.19-1.73-1.63-2.31-.44-.6-.73-.96-.93-1.32-.09-.18-.19-.37-.25-.56-.05-.13-.25-.43-.36-.64l-.09-.18s-.06-.1-.12-.18l-.16-.23-.6-.85c-.87-1.08-1.63-2.19-2.47-3.24-.84-1.05-1.64-2.1-2.27-3.15-1.32-2.09-1.91-4.15-1.89-5.84-.01-1.72.34-3.12.91-4.59Zm18.8,18.19c-1.29,1.27-1.7,2.87-1.54,4.35.16,1.47.9,2.84,2.08,3.25,1.24.42,3.18-.14,4.76-1.35,1.56-1.19,2.75-3.07,2.37-5.01-.3-1.54-1.67-2.62-3.21-2.82-1.55-.23-3.23.38-4.45,1.58Zm-6.65-1.6c.15.38,1.08.39,2.18.26,1.1-.15,2.37-.48,3.06-1.16.68-.67.7-1.57.29-2.22-.39-.66-1.18-1.04-1.95-.81-.86.24-1.79,1.1-2.5,1.93-.71.83-1.23,1.62-1.09,2Zm-4.69-12.75c-.96.46-.68,1.9.81,3.42,1.5,1.5,3.89,2.81,5.86,2.72,1.92-.09,3.24-1.27,4.2-2.34.92-1.1,1.51-2.02,1.07-2.5-.54-.6-2.67-.81-5.36-1.17-1.33-.16-2.75-.31-3.99-.37-1.23-.06-2.05-.02-2.59.24Z"/><path class="cls-2" d="m252.68,8.82l-.61,19c-1-.03-1.99-.08-2.94-.15l-1.42-.11-1.07-.09h0c-.39-1.24-.86-2.36-1.56-3.18-.67-.82-1.55-1.36-2.15-1.33-.59.02-.66.66.01,1.53.65.88,2.03,1.92,3.69,2.99l-25.8-2.86c-1.48-1.67-2.35-3.82-2.7-5.97-.36-2.16-.14-4.39.56-6.41,1.45-4.06,4.43-7.08,8.36-8.64,1.96-.79,4.24-1.23,6.79-1.24,2.55-.01,5.35.48,8.05,1.2,1.35.36,2.67.78,3.94,1.21.62.22,1.24.44,1.87.67l.89.34c.18.1.32.2.47.31,1.21.83,2.38,1.74,3.6,2.72Zm-22.6,5.81c-2.14-.61-4.36.28-5.33,1.93-1.02,1.63-.69,3.66.41,4.52.28.23.61.41.98.54.18.06.38.12.58.16.27.05.55.1.84.16,1.38.24,2.82.35,4.22.44,2.78.13,5.18.32,5.73-.28.43-.5-.44-1.74-1.81-3.32-.7-.78-1.55-1.63-2.56-2.44-.51-.4-1.05-.79-1.65-1.14-.44-.23-.9-.42-1.42-.56Zm1.15-6.23c-.89.17-1.14,1.14-.81,2.15.31,1.01,1.15,2.02,2.23,2.63,2.14,1.11,4.31.97,4.05-.43-.16-.79-1.03-1.99-2.15-2.93-1.1-.94-2.47-1.58-3.32-1.42Zm17.47,4.95c-.22-.59-.6-1.06-1.44-1.43-.79-.37-1.81-.62-2.84-.69-2.07-.17-4.02.46-4.23,2.03-.25,1.41.95,3.4,2.04,4.91,1.14,1.54,2.13,2.68,2.78,2.77.82.11,1.47-1.21,2.41-2.81,1.1-1.59,1.72-3.54,1.27-4.77Z"/><path class="cls-2" d="m288.09,20.1l-26.12,7.33c1.35-1.22,2.42-2.35,2.83-3.19.43-.84.21-1.33-.38-1.29-.59.03-1.34.57-1.78,1.38-.47.81-.63,1.9-.67,3.1l-.84.08c-.96.09-1.95.17-2.96.23-2.01.12-4.09.14-6.1.07l.61-19c1.27-.93,2.44-1.77,3.57-2.55.57-.39,1.13-.75,1.69-1.1.29-.17.57-.34.85-.5l.43-.24.22-.12.11-.06c.05-.02.15-.05.23-.07,5.1-1.56,11.11-2.79,15.97-2.09,4.84.71,8.21,2.91,10.54,6.11,1.15,1.59,1.98,3.51,2.35,5.56.35,2.07.18,4.27-.56,6.33Zm-23.64-6.56c-.34-.76-1.04-1.28-1.94-1.57-.45-.15-.94-.24-1.46-.29-.25-.02-.53-.04-.76-.04-.2,0-.39,0-.59,0-1.53.09-2.89.77-3.36,1.92-.48,1.2-.03,3.19,1.11,4.81.57.82,1.3,1.53,2.12,2.02.76.49,1.94.72,2.16.68.65-.08,1.32-1.22,2.05-2.72.68-1.5,1.32-3.38.67-4.82Zm8.51-5.87c-.93-.15-2.36.65-3.39,1.74-1.04,1.09-1.7,2.44-1.65,3.32.12,1.76,2.48,1.33,4.13.01.9-.76,1.62-1.9,1.85-2.95.24-1.05-.07-1.98-.94-2.13Zm9.36,9.65c.75-.98.29-2.83-1.3-3.84-1.54-1.07-3.99-1.2-6.1-.05-.5.26-.95.57-1.36.9-.49.42-.92.85-1.31,1.28-.78.86-1.39,1.73-1.87,2.5-.93,1.56-1.46,2.73-.86,2.98.74.31,3.27-.5,6.23-1.23,1.46-.38,3.02-.81,4.39-1.3.29-.11.56-.21.83-.31.19-.07.37-.16.54-.25.33-.18.61-.41.8-.67Z"/><path class="cls-2" d="m273.25,51.35l-18.9-2.05c.22-1.91.47-3.84.85-5.88.36-2.01.88-4.17,1.62-6.47,1.28,0,2.6-.75,4.04-2.1.33-.32.73-.71,1.12-1.12.4-.41.74-.86,1.2-1.33.42-.47.84-.95,1.28-1.44.16-.18.33-.35.5-.53l.36-.43c.35-.44.33-1.09-.26-1.54-.57-.47-1.7-.77-3.1-1.02l26.12-7.33c1.16,1.53,1.81,3.3,2.22,4.88.36,1.59.52,3.18.13,5.08-.4,1.88-1.4,4.05-3.23,6.14-.84,1.05-1.87,2.07-2.81,3.11-.89,1.08-1.9,2.06-2.79,3.18l-.42.52-.27.31c-.21.23-.13.13-.18.13-.06-.08-.17.02-.38.1-.4.33-1.02.9-1.73,1.7-1.43,1.56-3.24,3.74-5.4,6.08Zm3.06-19.7c2.44-.18,4.83-1.66,5.95-3.08,1.16-1.41,1.24-2.76.28-3.12-.26-.1-.59-.12-.99-.1-.2.01-.41.04-.64.07-.28.05-.58.1-.88.16-1.36.27-2.93.66-4.39,1.03-2.97.77-5.41,1.24-5.98,1.8-.46.45.3,1.12,1.47,1.9,1.23.75,2.84,1.51,5.16,1.34Zm.67,7.63c.74-.86.81-2.08.26-3.09-.53-1-1.64-1.74-2.74-1.86-1.09-.1-1.97.28-2.44.93-.47.63-.61,1.49-.12,2.13.53.73,1.66,1.3,2.64,1.73.93.47,1.97.6,2.39.16Zm-7.94,7.76c1.2-.32,2.05-1.6,2.33-3.02.29-1.42.02-3.02-1.09-4.42-1.07-1.33-2.65-2.19-4.22-2.14-1.57.03-3.09,1.02-3.55,2.56-.61,1.97.43,3.98,1.89,5.3,1.46,1.34,3.39,2.03,4.63,1.71Z"/><path class="cls-2" d="m272.59,84.04l-19.01.13v-10.08c2.38-.52,4.21-3.33,4.21-6.75,0-3.46-1.76-6.45-4.13-7.08.1-3.56.29-7.18.69-10.96l18.9,2.05c3.31,5.5,5.12,10.58,5.09,15.99-.01,5.56-1.96,11.21-5.74,16.7Zm-5.44-21.6c3.2-1.77,3.21-6.56,1.04-7.75-1.14-.62-3.17-.35-4.91.56-1.75.91-3.21,2.46-3.25,4.22-.06,2.8,4.09,4.63,7.12,2.96Zm5.55,5.05c.12-1.36-3.27-2.77-5.08-2.04-1.79.74-1.56,3.19-.07,3.8,1.68.69,5.02-.45,5.16-1.76Zm-4.86,12.65c2.27-1.05,2.47-6.05-.72-7.87-3.01-1.71-7.17.07-7.19,2.75-.03,3.39,5.53,6.21,7.91,5.12Z"/><path class="cls-2" d="m279.86,112.62l-17.91,8.94h0s.01.02.01.02c0,0,.03.04-.03-.04l-.27-.34-.58-.72c-.47-.65-.95-1.36-1.39-2.06-1.69-2.83-2.52-5.23-3.23-7.5,1.05-.69,1.72-2.08,2.15-3.66.39-1.61.54-3.44.26-5.34-.52-3.75-2.5-6.59-4.94-7.03-.23-3.66-.32-7.21-.35-10.7l19.01-.13c3.92,5.39,6.01,10.48,6.62,15.01.31,2.25.27,4.36-.12,6.11-.05.25-.1.43-.17.62-.06.18-.13.44-.21.59-.07.16-.16.34-.26.52l-.28.5c-.13.16-.14.43-.13.76v.24s0,.07.02.13l.09.23.33.85c.51,1.06,1.01,2.05,1.38,3.02Zm-12.29-16.83c3.01-2.04,2.6-6.8.33-7.81-2.4-1.05-7.93,1.92-7.69,5.51.19,2.85,4.51,4.27,7.36,2.3Zm6.07,4.18c-.04-1.21-3.58-2.18-5.29-1.26-1.7.94-1.12,3.37.45,3.69,1.77.35,4.87-1.28,4.84-2.42Zm-1.29,11.77c.65-1.08.59-2.19.06-3.43-.55-1.2-1.69-2.45-3.44-2.95-1.65-.46-3.41-.11-4.65.82-1.25.91-1.95,2.43-1.44,4.01.6,1.99,2.87,3.41,4.94,3.52,2.11.14,3.84-.89,4.53-1.97Z"/><path class="cls-2" d="m273.43,141.29l-11.48-19.74c1.67,1.16,3.29,2.15,4.69,2.6,1.39.48,2.5.32,2.54-.29.03-.59-.87-1.32-2.26-1.72-1.39-.42-3.14-.54-4.98-.6l17.91-8.94c1.33.49,2.84,1.02,4.13,1.66.65.31,1.38.65,1.98.99.6.34,1.19.7,1.78,1.06,2.23,1.45,3.86,2.94,5.03,4.43,1.17,1.49,1.96,3.12,2.34,5.13.47,2.01.39,4.21-.06,6.27-.5,2.06-1.49,4.09-2.89,5.69-1.38,1.63-3.1,2.85-5.04,3.65-3.87,1.62-8.63,1.47-13.7-.21Zm10.03-17.58c.62-.32.93-.87.93-1.47-.02-.59-.31-1.24-.84-1.85-1.04-1.23-3.09-2.35-4.92-2.43-.94-.05-1.95.18-2.82.5-.86.32-1.69.75-2.41,1.14-1.42.84-2.63,1.41-1.98,1.94.52.42,2.54.98,5.06,1.64,1.26.31,2.65.6,3.99.75.67.07,1.33.11,1.94.09.4-.04.73-.15,1.04-.31Zm6.15,6.9c.24-.85-.54-1.98-1.57-2.75-1.04-.78-2.42-1.22-3.26-1.03-.9.2-1.17.9-1.24,1.69-.06.79.1,1.69.64,2.27.62.66,1.82,1.07,2.98,1.07,1.14,0,2.21-.45,2.45-1.26Zm-14.66,5.84c1.4.95,3.56,1.18,5.16.46,1.62-.67,2.54-2.29,1.82-3.74-.17-.34-.38-.63-.69-.93-.55-.43-1.15-.82-1.78-1.17-1.26-.72-2.61-1.3-3.85-1.79-2.52-.96-4.52-1.6-5.15-1.38-.78.29.05,1.84.95,3.7.47.91,1.02,1.91,1.65,2.83.35.5.56.79.88,1.14.31.33.65.64,1.01.88Z"/><path class="cls-2" d="m231.5,140.87l15.08-19.27c-.02.6-.02,1.17.05,1.67.03.25.08.49.15.71.02.05,0,.11.07.16l.23.14c.16.09.32.17.49.25,1.38.63,3.16.94,5.13.89,3.92-.1,7.12-1.62,7.9-3.98l1.35.11,11.48,19.74c-2.75,2.18-7.48,3.16-12.76,3.58l-.48.05c-.15.02-.36.02-.41.05l-.49.12-.95.22c-.62.14-1.22.25-1.8.34-1.16.18-2.25.28-3.31.31-1.07.02-2.17-.03-3.4-.16l-.47-.05-.24-.03-.12-.02s-.16,0-.24,0c-.68-.01-1.36-.02-2.04-.03-1.34-.04-2.66-.11-3.91-.25-2.52-.27-4.83-.78-6.78-1.51-1.97-.72-3.44-1.86-4.54-3.03Zm26.27-6.06c.4.82.99,1.45,1.68,1.9.34.23.71.4,1.09.54.49.15,1.01.26,1.53.32,2.09.28,3.93-.17,4.16-1.29.27-1.16-.99-3.27-2.12-5.08-.57-.9-1.11-1.73-1.58-2.33-.23-.3-.45-.55-.66-.72-.11-.09-.21-.16-.31-.21-.06-.03-.11-.05-.17-.06-.05-.01-.2-.03-.3-.04-1.41-.11-2.68.85-3.35,2.24-.67,1.39-.74,3.18.02,4.72Zm-4.81,5.5c1.15.09,2.52-3.29,1.84-5.11-.72-1.81-3.21-1.52-3.69.03-.55,1.72.74,4.97,1.86,5.08Zm-13.72-3.76c0,1.13,1.67,1.68,3.76,1.43,2.07-.24,4.37-1.27,5.11-2.94,1.55-3.18-1.3-7.08-2.2-7-.81.07-1.97,1.58-3.53,3.41-.75.92-1.54,1.9-2.15,2.82-.61.91-1,1.68-.99,2.28Z"/><path class="cls-2" d="m231.86,109.59l14.74,12h-.01c-1.63-.11-3.19-.15-4.57.07-1.35.19-2.5.72-2.59,1.31-.12.58.71.93,2.1.67,1.39-.24,3.18-1.04,5.06-2.04l-15.08,19.27c-4.89,1.19-9.43.54-12.89-1.9-1.74-1.2-3.16-2.9-4.13-4.82-.97-1.93-1.44-4.01-1.47-6.11-.02-1.05.12-2.08.25-3.04.18-.96.45-1.84.78-2.66.73-1.63,1.76-3.11,3.38-4.7,1.64-1.6,4.06-3.25,6.77-4.61,1.4-.66,2.87-1.25,4.11-1.83,1.28-.57,2.56-1.06,3.55-1.61Zm-6.95,21.3c-1.11,1.5-.57,3.51.87,4.58,1.41,1.11,3.53,1.25,4.99.51.38-.19.74-.43,1.07-.72.17-.14.32-.29.47-.45.18-.19.36-.39.55-.6.82-.92,1.57-1.94,2.24-2.91,1.29-1.95,2.44-3.57,1.79-4.09-.53-.4-2.54-.09-5.07.49-1.28.31-2.65.71-4.02,1.28-.68.28-1.36.61-2,.99-.36.26-.63.55-.89.91Zm-6.16-4.15c-.05.44.13.84.44,1.16.35.32.84.55,1.37.67,1.07.25,2.32.03,3.21-.62.87-.65,1.29-1.55,1.43-2.32.14-.77,0-1.42-.65-1.62-.75-.23-2.15-.02-3.38.5-1.25.5-2.27,1.39-2.42,2.22Zm13.57-10.88c-1.64-.1-3.92,1.03-5.17,2.37-1.26,1.33-1.5,2.66-.33,3.29.29.15.61.26,1,.33.53.07,1.11.09,1.73.09,1.22,0,2.55-.12,3.77-.26,2.45-.31,4.4-.58,4.95-.97.68-.48-.31-1.28-1.47-2.41-.59-.54-1.27-1.12-2-1.58-.74-.46-1.6-.83-2.47-.86Z"/><path class="cls-2" d="m235.6,89.47l6.73-17.77c1.83.66,4.05,1.87,5.99,3.59,2,1.75,3.51,4,4.47,6.08.22.5.43,1.01.62,1.52.2.52.31.93.45,1.41.29.97.43,1.75.58,2.59.14.82.2,1.5.28,2.25l.06,1,.06,1.25c-1.22.75-2.3,1.45-3.1,2.71-.81,1.25-1.35,2.87-1.51,4.75-.15,1.86.08,3.67.6,5.21.53,1.53,1.31,2.84,2.42,3.43-.5,2.22-1.18,4.64-2.32,7.15-.57,1.25-1.21,2.5-1.97,3.7-.36.6-.79,1.2-1.21,1.79-.42.58-.77.98-1.16,1.48l-14.74-12c-.02-.35-.04-.69-.06-1.03-.07-.3-.15-.58-.21-.84-.15-.56-.31-1.06-.47-1.53-.33-.94-.66-1.8-.9-2.74-.48-1.85-.64-3.98-.44-6.35.11-1.17.3-2.41.6-3.66.16-.62.32-1.27.53-1.91.1-.14.19-.09.29-.14.1-.14.21-.34.31-.43.43-.55.93-.56,1.9-.34.47.1,1.06.14,1.49-.05.11-.05.21-.1.32-.18.07-.07.14-.15.2-.25.16-.19.16-.41.19-.67Zm4.78,13.37c-1.72.62-2.75,1.96-3.22,3.25-.45,1.29-.41,2.61.37,3.57.81.97,2.75,1.67,4.76,1.32,2.01-.31,4.05-1.77,4.52-3.77.39-1.58-.43-3.03-1.73-3.86-1.3-.84-3.07-1.07-4.7-.5Zm-4.97-5.4c-.21,1.21,3,2.91,4.88,2.41,1.87-.53,1.84-3.03.38-3.71-1.64-.78-5.03.13-5.27,1.3Zm4.08-10.78c-.73.98-.99,1.76-.74,2.92.06.29.15.61.29.91.12.34.29.64.5.9.19.26.42.62.71.94.29.32.62.6,1.01.85,1.47.91,3.26.99,4.7.46.72-.26,1.35-.67,1.81-1.19.11-.13.22-.27.31-.41.09-.18.17-.39.24-.61.11-.43.15-.97.13-1.36-.02-.53-.19-1.13-.4-1.64-.23-.53-.57-1.07-.94-1.5-.42-.48-.87-.87-1.37-1.18-.52-.33-1.05-.55-1.57-.68-2.22-.57-3.95.65-4.68,1.6Z"/><path class="cls-2" d="m204.99,89.05l-1.23-18.99h10.28c.64,2.38,3.58,4.21,7.05,4.21,3.46,0,6.31-1.83,6.83-4.22h2.57s1.29,0,1.29,0l1.69.03c1.19.04,2.47.14,3.91.35.7.1,1.54.28,2.29.44.42.11.87.24,1.3.37.43.13.85.25,1.35.46l-6.73,17.77c-.65.78-1.43,1.5-2.35,2.17-.22.16-.44.32-.7.49-.27.16-.44.31-.77.46-.68.3-1.36.57-2.04.81-2.71.96-5.41,1.43-8.12,1.42-5.42-.02-10.89-1.95-16.63-5.75Zm21.25-5.47c.93,1.6,2.62,2.34,4.22,2.41,1.66.06,2.89-.53,3.49-1.61.59-1.15.44-3.16-.61-4.91-.48-.85-1.29-1.65-1.98-2.19-.73-.55-1.56-.89-2.42-.89-2.73.02-4.45,4.18-2.69,7.19Zm-4.92,5.59c1.34.12,2.7-3.28,1.91-5.09-.79-1.78-3.23-1.56-3.79-.07-.63,1.68.6,5.02,1.88,5.16Zm-12.72-4.86c1.17,2.27,6.11,2.47,7.8-.72,1.61-3.01-.32-7.16-3.05-7.18-3.46-.03-5.99,5.52-4.75,7.91Z"/><path class="cls-2" d="m187.09,95.17l-18.98,1.02c-.14-3.24-.07-6.62.58-9.77.69-3.14,1.95-6.04,3.89-8.51.59.18,1.34.16,2.18,0,.81-.18,1.79-.43,2.8-.78,2.07-.67,4.49-1.41,7.14-2.07.65-.2,1.31-.32,1.95-.47.64-.14,1.24-.37,1.85-.49,1.16-.28,2.53-.69,2.91-1.04,1.15-.76,1.91-1.81,2.07-3h10.28s1.23,18.98,1.23,18.98c-2.62,1.94-5.23,3.38-7.86,4.33-1.32.48-2.64.83-3.97,1.07-.48.06-.33.11-.35.15v.11c.02.06.03.08.03.08,0,0-.06-.13-.27-.32-.21-.19-.58-.42-1.09-.57-1.02-.27-2.56-.21-4.38,1.25Zm5.77-11.59c2.11,3.19,7.02,2.99,7.9.72.92-2.38-2.32-7.93-5.77-7.9-2.73.02-4.12,4.17-2.12,7.18Zm-2.37,5.73c.32,0,.34-.83.33-1.91-.03-1.08-.13-2.4-.68-3.26-.54-.84-1.46-1.21-2.2-1.03-.75.12-1.25.76-1.08,1.53.18.87,1.04,2.01,1.82,2.95.8.94,1.49,1.69,1.81,1.72Zm-8.16,2.76c1.15-.18,1.85-1.01,2.11-2.11.25-1.13.31-2.64-.24-4.48-.14-.43-.32-.87-.52-1.28-.17-.36-.38-.71-.62-1.03-.49-.64-1.16-1.19-1.89-1.49-1.48-.65-3.45-.27-4.46,1.39-1.28,2.11-.54,4.98.95,6.68,1.47,1.76,3.47,2.47,4.68,2.32Z"/><path class="cls-1" d="m297.68,74.44c0-34.03,27.8-61.84,60.23-61.84,19.49,0,23.17,6.39,34.19,4.79,10.55-1.59,14.22-1.28,14.7,5.59.33,4.95-2.72,26.52-5.75,30.52-3.68,4.79-9.11,5.28-14.7-3.67-8.31-13.26-18.06-21.25-32.75-21.25s-25.09,8.94-29.56,21.73c-3.2,11.34,2.39,11.51,11.03,12.15,27.95,2.24,22.84-11.34,32.91-11.34,8.47,0,13.1,9.91,14.38,20.45,1.6,13.1.64,22.37-4.15,23.81-5.92,1.76-10.23-2.88-13.58-9.11-3.51-6.39-10.23-9.43-27.96-8.47-6.87.48-14.38.48-9.27,12.3,5.44,12.63,21.89,21.25,39.79,21.25,15.01,0,26.36-7.99,33.54-18.21,3.84-5.43,6.08-7.99,9.76-6.23,2.22,1.12,2.39,5.28.31,10.39-8.31,20.61-24.12,38.99-52.89,38.99-34.03,0-60.23-27.8-60.23-61.84Z"/><path class="cls-2" d="m300.83,39.16l16.31,9.76c-1.37,2.3-2.55,4.71-3.54,7.18-2.36-.54-5.01,1.09-5.79,3.99-.22.71-.27,1.42-.21,2.1.06.68.21,1.32.49,1.89.57,1.15,1.48,2,2.63,2.39-.42,2.63-.63,5.29-.65,7.96h-19.01c-3.83-6.16-4.91-13.39-3.04-19.83.87-3.24,2.51-6.25,4.66-8.89,2.18-2.64,4.96-4.86,8.15-6.55Zm-3.15,23.32c-1.73.6-2.81,2.27-3.06,3.95-.32,1.68.25,3.34,1.32,3.94,1.15.64,3.16.28,4.92-.52,1.72-.82,3.27-2.06,3.46-3.57.17-1.19-.66-2.36-1.96-3.17-1.3-.8-3.04-1.21-4.68-.64Zm-4.19-6.53c-.57,1.46,2.44,3.77,4.36,3.4,1.88-.35,2.36-2.69,1.1-3.75-1.38-1.2-4.94-1.05-5.46.34Zm9.45-10.79c-1.25-.05-2.55,1.1-3.16,2.7-.68,1.57-.57,3.56.57,4.96,1.13,1.34,2.84,1.89,4.35,1.86,1.51-.03,2.87-.59,3.31-1.7.63-1.38-.08-3.25-1.13-4.84-1.08-1.59-2.63-2.93-3.94-2.97Z"/><path class="cls-2" d="m327.23,13.83l9.03,16.72c-2.33,1.26-4.56,2.72-6.68,4.34-.89-.82-2.08-1.22-3.36-1.16-.64.02-1.27.2-1.9.47-.63.27-1.24.66-1.76,1.19-1.09,1.01-1.66,2.35-1.8,3.59-.12,1.27.26,2.49,1.03,3.41-1.72,2.06-3.28,4.24-4.66,6.53l-16.31-9.76c-.15-7.27,2.64-13.97,7.5-18.56,1.18-1.18,2.55-2.16,3.95-3.08,1.46-.85,2.95-1.64,4.58-2.2,3.2-1.18,6.75-1.69,10.37-1.49Zm-14.6,18.46c-1.78-.35-3.57.51-4.64,1.84-1.12,1.29-1.5,2.99-.88,4.06.66,1.13,2.57,1.87,4.49,2.07,1.9.18,3.88-.09,4.8-1.3.78-.92.63-2.37-.07-3.73-.69-1.33-1.99-2.59-3.7-2.94Zm-.27-7.75c-.59.48-.57,1.61-.15,2.68.43,1.08,1.26,2.11,2.17,2.46,1.84.7,3.36-1.15,2.87-2.65-.57-1.72-3.74-3.45-4.89-2.49Zm13.61-4.5c-1.04-.65-2.75-.33-4.09.72-.67.53-1.26,1.2-1.64,1.99-.36.8-.53,1.68-.38,2.59.28,1.71,1.47,3.05,2.79,3.81,1.33.76,2.74.92,3.72.22.62-.44,1.01-1.15,1.24-1.99.24-.82.31-1.78.25-2.75-.13-1.94-.78-3.87-1.89-4.58Z"/><path class="cls-2" d="m363.07,6.14l-1.14,18.97c-1.35-.12-2.83-.09-4.2-.12l-1.95.05c-.65.03-1.3.1-1.95.15-.31-1.19-1.08-2.18-2.18-2.78-1.09-.65-2.49-.83-3.93-.57-1.42.35-2.62,1.09-3.35,2.12-.75.99-1.06,2.22-.86,3.43-2.49.83-4.92,1.89-7.24,3.16l-9.03-16.72c1.78-3.21,4.19-5.82,6.95-7.9,2.77-2.06,5.94-3.43,9.25-4.17,3.33-.66,6.8-.69,10.18.07,1.68.38,3.39.94,4.94,1.66,1.55.76,3.05,1.58,4.52,2.65Zm-22.15,7.87c-1.36-1.29-3.31-1.38-4.94-.85-1.61.58-2.85,1.76-2.85,3.04-.01,1.32,1.25,2.92,2.78,4.07,1.57,1.2,3.34,1.88,4.77,1.4.56-.2,1-.64,1.31-1.21.32-.55.51-1.25.56-2,.1-1.51-.35-3.25-1.62-4.44Zm3.85-6.77c-1.56.23-2.22,3.91-1,5.47.6.77,1.46.96,2.22.77.77-.16,1.44-.73,1.62-1.52.42-1.79-1.34-4.86-2.84-4.71Zm13.98,3.5c-.51-1.17-2.13-1.74-3.84-1.62-1.71.19-3.46,1.06-4.17,2.79-.68,1.61-.38,3.38.33,4.71.35.67.81,1.23,1.32,1.6.51.39,1.08.62,1.68.58,1.5-.14,2.83-1.47,3.78-3.21.95-1.67,1.44-3.64.89-4.85Z"/><path class="cls-2" d="m396.41,10.19l-2.44,19.45-2.31.26c-1.25.13-2.57.13-3.86.13-1.3-.06-2.62-.13-3.85-.32-.11-.62-.44-1.23-.91-1.81-.44-.6-1.02-1.18-1.71-1.71-.65-.54-1.38-1.04-2.17-1.46-.74-.43-1.6-.78-2.4-1.02-3.3-1.01-5.98.26-6.91,2.5-2.58-.58-5.16-.92-7.94-1.08l1.14-18.97c3.14-1.78,6.56-2.8,9.99-3.12,3.42-.33,6.87.17,9.5.96,1.36.41,2.36.81,3.26,1.29.82.42,1.48.92,2.14,1.42l.52.42.57.4c.38.32.83.58,1.3.89.16.37,1.81.52,2.85.8,1.13.24,2.22.63,3.22.98Zm-21.8,3.22c-.5-1.77-2.1-2.91-3.77-3.28-1.68-.35-3.35.02-4.02,1.11-.7,1.12-.46,3.14.25,4.92.72,1.82,1.87,3.37,3.35,3.67,1.18.23,2.4-.53,3.28-1.78.87-1.23,1.38-2.96.91-4.64Zm6.5-3.97c-1.25-.5-3.68,2.35-3.41,4.31.24,1.92,2.64,2.41,3.62,1.12.55-.72.77-1.96.73-3.08-.04-1.12-.33-2.1-.95-2.36Zm10.3,6.15c-.31-.54-.81-.93-1.39-1.15-.58-.27-1.23-.38-1.9-.36-1.33.02-2.86.55-4.06,1.92-1.11,1.31-1.58,3.04-1.25,4.56.16.76.52,1.46,1.04,2.01.54.53,1.28.89,2.11,1,2.18.2,4.17-1.24,5.09-3.05.96-1.8,1.01-3.8.36-4.93Z"/><path class="cls-2" d="m411.09,43.16l-18.26-5.77h0s0,.02,0,.02l.04-.22.1-.56.37-2.27.33-2.28.27-2.13c1.19.11,2.27-.06,3.08-.46.79-.32,1.32-.99,1.33-1.58.03-.59-.54-.89-1.39-.57-.86.3-1.92,1.19-2.99,2.31h0s2.44-19.45,2.44-19.45c2.21-1.12,4.75-2.08,7.21-2.37,2.47-.31,4.88-.1,7.09.81,2.24.89,4.15,2.56,5.51,4.45,1.37,1.9,2.25,4.19,2.63,6.71.08.64.17,1.27.23,1.92l-.03,2.03c.02,1.34-.23,2.75-.43,4.11-.43,2.63-1.14,5.43-1.76,6.45-.67,1.43-1.47,2.81-2.41,4.15-.47.67-.96,1.34-1.51,1.99-.14.18-.27.3-.41.52l-.47.77c-.32.5-.64.97-.97,1.43Zm-4.05-24.19c.2-.47.33-.97.37-1.47,0-.47-.03-1-.23-1.43-.32-.94-1.1-1.6-1.95-2.01-1.77-.77-3.93-.36-4.96.75-.56.58-.86,1.32-1.07,2.2-.21.9-.31,1.84-.37,2.75-.08,1.8-.2,3.28.51,3.71.58.34,1.81,0,3.37-.72.76-.36,1.6-.84,2.41-1.48.4-.32.79-.68,1.16-1.09.29-.36.57-.76.77-1.21Zm6.35,3.2c0-1.04-.99-1.65-2.05-1.69-1.11-.04-2.29.48-3.06,1.35-1.48,1.74-1.43,3.87.02,4.23.83.18,2.1-.19,3.18-.96.54-.38,1.03-.86,1.39-1.38.34-.51.52-1.05.52-1.54Zm-6.13,15.39c2.44-.69,3.35-5.73.35-8.11-1.42-.9-3.26-.57-4.73-.13-.74.23-1.39.53-1.87.83-.24.15-.43.31-.57.48-.07.06-.13.19-.19.35-.05.15-.09.3-.11.46-.43,3.17,4.59,6.8,7.11,6.12Z"/><path class="cls-2" d="m381.43,54.22l11.4-16.83c-.1,1.77-.08,3.44.28,4.7.33,1.26,1.07,1.99,1.58,1.66.51-.3.62-1.39.22-2.58-.38-1.22-1.16-2.49-2.08-3.78l18.26,5.77c.24,1.19.44,2.44.59,3.76.13,1.3.16,2.62.18,3.99-.05,2.67-.38,5.41-1.21,7.67-.18.61-.43,1.1-.67,1.63-.24.52-.5,1.04-.76,1.54-.6.9-1.19,1.81-1.96,2.59-1.51,1.62-3.38,2.9-5.46,3.7-1.03.42-2.15.65-3.26.84-1.13.12-2.27.13-3.38,0-2.22-.3-4.28-1.08-6.09-2.36-3.63-2.54-6.37-7.04-7.64-12.3Zm20.83-.64c1.27.63,2.74-.35,3.46-2.13.4-.84.55-1.92.54-2.86,0-.94-.24-1.82-.68-2.45-.89-1.32-2.81-1.88-4.47-2.32-.83-.21-1.6-.38-2.17-.43-.59-.05-.96.02-1.09.44-.19.63.37,2.36,1.16,4.51.39,1.05.87,2.18,1.44,3.19.29.5.59.98.93,1.39.27.29.56.51.88.67Zm-2.24,9.07c.86-.3,1.39-1.58,1.43-2.89.03-1.34-.38-2.7-1.03-3.29-.31-.28-.67-.4-1.03-.39-.34.03-.71.15-1.05.36-.68.42-1.33,1.06-1.52,1.85-.2.92.1,2.13.75,3.07.64.95,1.63,1.56,2.45,1.29Zm-13.15-9.05c-.03.81.2,1.69.62,2.54.47.78,1.08,1.58,1.86,2.04,1.49,1.03,3.38.97,4.23-.41.21-.34.34-.69.43-1.09.07-.6.08-1.23.05-1.86-.06-1.27-.28-2.55-.53-3.71-.53-2.31-1.04-4.13-1.57-4.54-.66-.51-1.56.75-2.69,2.16-.55.72-1.13,1.53-1.59,2.38-.46.84-.76,1.62-.8,2.49Z"/><path class="cls-2" d="m358.31,35.58l2.99-18.77c4.5.7,9.06,2.17,13.18,4.31-.24,1.25.3,2.66,1.2,4.12.45.74,1.03,1.45,1.68,2.15.63.72,1.38,1.4,2.2,2.05,3.22,2.56,6.68,3.79,8.94,2.67,1.39,1.54,2.7,3.11,3.88,4.69l.44.58-11.4,16.83c-.91-.4-1.85-.9-2.79-1.56-.47-.32-.95-.66-1.43-1.02l-.72-.55-.36-.29-.46-.4c-1.35-.58-2.49-1.1-3.59-1.63-2.18-1.06-3.91-2.15-5.36-3.32-1.46-1.16-2.61-2.46-3.86-4.08-1.25-1.61-2.62-3.6-4.55-5.8Zm18.97,4.33c-.53,1.78,0,3.4.89,4.61.47.58,1.02,1.09,1.62,1.4.62.33,1.21.38,1.91.37.65-.11,1.26-.62,1.83-1.3.29-.34.56-.72.84-1.08.25-.39.47-.84.65-1.3.36-.92.55-1.93.5-2.9-.08-.95-.4-1.87-1.01-2.58-1.01-1.11-2.64-1.31-4.07-.75-1.45.57-2.68,1.87-3.16,3.51Zm-7.13,1.06c.39.41,1.35.16,2.35-.4.99-.56,2-1.41,2.32-2.32.32-.9-.04-1.71-.64-2.2-.63-.46-1.5-.55-2.16-.12-1.48,1-2.59,4.34-1.86,5.04Zm-7.47-9.28c.09.6.41,1.15.85,1.63.45.48,1.07.78,1.72,1.07,1.34.47,2.98.54,4.57-.41,1.46-.85,2.46-2.35,2.65-3.9.21-1.55-.46-3.09-1.89-3.83-.93-.41-1.95-.52-2.94-.3-1,.23-1.93.72-2.7,1.34-1.55,1.27-2.44,3.14-2.27,4.4Z"/><path class="cls-2" d="m334.75,44.33l-14.94-11.75c2.84-3.62,6.3-6.86,10.25-9.45.95.77,2.51,1.09,4.23.96,1.75-.09,3.72-.56,5.77-1.29,1.01-.41,1.97-.77,2.84-1.25.87-.49,1.66-.95,2.35-1.48,1.37-1.08,2.34-2.25,2.54-3.48,1.15-.14,2.3-.29,3.44-.31,1.14-.04,2.31-.12,3.39-.06,2.19.03,4.43.23,6.67.58l-2.99,18.77c-2.48,1.58-4.7,2.96-6.44,4.03-1.76,1.13-3.22,1.94-4.75,2.48-1.53.55-3.15.82-5.14,1.11-1.99.29-4.37.56-7.25,1.13Zm13.07-14.04c.29.35.61.64.94.87.34.25.69.46,1.05.62.72.32,1.46.4,2.18.43,1.42-.03,2.79-.58,3.36-1.69.58-1.17.32-3.17-.71-4.89-.51-.87-1.21-1.66-2.07-2.16-.85-.5-1.84-.87-2.84-.71-.79.1-1.49.45-2.02.96-.53.54-.89,1.25-1.06,2-.35,1.52.09,3.26,1.18,4.57Zm-2.74,6.54c.5-.15.75-1.09.8-2.19.04-1.12-.15-2.42-.75-3.19-1.2-1.57-3.51-.43-3.4,1.16.05.91.68,2,1.37,2.84.7.84,1.48,1.5,1.97,1.38Zm-11.6,1.79c.58.23,1.22.23,1.82.04.62-.18,1.25-.48,1.77-.97,1.08-.91,1.91-2.34,1.89-4.15-.03-1.73-.83-3.33-2.07-4.25-1.22-.92-2.97-1.18-4.28-.22-.86.56-1.42,1.44-1.71,2.42-.31.96-.35,2.01-.15,3.01.36,1.99,1.52,3.63,2.73,4.12Z"/><path class="cls-2" d="m337.12,55.92l-3.32,18.82-.93-.05-.49-.03-.62-.06-2.47-.23-2.4-.37c-.81-.11-1.53-.35-2.3-.52-3-.79-5.55-2.07-7.69-3.87.56-1.13.29-2.68-.23-4.6-.54-1.94-1.09-4.29-1.41-6.77-.06-.63-.14-1.23-.25-1.81-.08-.59-.12-1.17-.22-1.72-.22-1.1-.29-2.17-.55-3.11-.12-.47-.29-.93-.43-1.34-.12-.42-.26-.8-.43-1.15-.34-.69-.78-1.24-1.32-1.54l.3-1.15c.09-.38.19-.77.38-1.14l.96-2.27c.33-.74.6-1.56.99-2.23l1.11-2.08.56-1.04.28-.52.23-.36.93-1.43c.6-.96,1.32-1.87,2.02-2.78l14.94,11.75c.06.75.05,1.41.13,2.11.07.67.08,1.37.16,1.9.2.39.39.72.58.99.2.26.44.41.64.54.42.26.78.34,1.04.35.26.02.39-.03.39-.03.02-.04-.72.34-1.18,1.34-.23.48-.39,1.09-.37,1.82.01.36.07.76.19,1.19.06.21.14.44.23.67.1.23.38.47.57.72Zm-11.86-5.38c2.03-.86,3.23-1.87,3.79-2.86.51-1,.57-2.23-.17-3.25-.73-1.02-2.62-1.89-4.66-1.62-1.02.14-2.14.53-3.11,1.23-.93.74-1.76,1.76-2.23,2.91-.28.92-.27,1.81-.03,2.51.12.35.29.66.52.92.26.26.55.47.89.63.66.31,1.45.41,2.29.31.42-.05.86-.14,1.3-.27.47-.13.95-.31,1.41-.51Zm5.8,2.1c.1-.32-.86-.34-2.04-.3-1.19.05-2.66.18-3.76.75-1.11.55-1.62,1.48-1.65,2.23.04.75.58,1.28,1.53,1.09,1.04-.19,2.46-1.08,3.65-1.9,1.17-.83,2.21-1.55,2.27-1.87Zm1.83,7.75c-.01-2.35-2.43-2.52-7.02-1.34-.54.17-1.08.37-1.56.57-.39.14-.77.32-1.11.54-.69.43-1.27,1.02-1.63,1.71-.7,1.32-.44,3.1,1.11,3.98,1.97,1.11,4.97.45,6.98-.96,2.05-1.36,3.16-3.3,3.24-4.49Z"/><path class="cls-2" d="m364.88,44.84l3.2,20.46-1.53,1.48c-1.12-.63-2.83-.5-4.77-.08-1.98.45-4.22,1.14-6.46,1.95-1.1.35-2.16.88-3.06,1.28-.9.41-1.72.89-2.43,1.42-.73.55-1.28,1.04-1.71,1.6-.43.56-.72,1.16-.82,1.77-2.25.29-4.25.29-6.3.33-.54,0-.96.04-1.6,0l-1.86-.1-3.73-.2,3.32-18.82c1.21-.91,2.16-1.69,3.13-2.39,1.16-.76,2.29-1.36,3.34-1.88.48-.3.95-.56,1.41-.78.23-.11.46-.22.69-.31.24-.09.39-.23.58-.32.37-.2.74-.36,1.12-.48.29-.16.55-.3.85-.37.34-.06.45-.18.71-.2.27,0,.43-.06.66-.05.24.04.49-.04.8-.03.09-.02.14.03.26-.03l.37-.16c.25-.1.5-.2.77-.29,1.06-.75,2.08-1.58,3.18-2.14.54-.29,1.07-.6,1.61-.84.54-.2,1.09-.4,1.65-.6,2.21-.62,4.45-.8,6.64-.2Zm-17.32,16.23c-1.14-1.48-2.72-2.02-4.2-2.01-1.5-.04-2.9.62-3.43,1.76-.54,1.16-.21,3.2.84,4.85.52.83,1.22,1.59,2.03,2.12.81.53,1.73.88,2.72.74,1.55-.19,2.69-1.31,3.08-2.86.39-1.53,0-3.28-1.04-4.6Zm2.72-6.43c-.47.08-.66,1.01-.7,2.14-.02,1.14.11,2.43.69,3.21.56.75,1.43.88,2.16.62.74-.23,1.21-1.03,1.14-1.79-.08-.89-.77-1.95-1.47-2.8-.73-.86-1.35-1.43-1.82-1.39Zm11.4-3.14c-.46-.32-1.12-.33-1.86-.05-.71.32-1.51.91-2.19,1.7-.77.9-1.04,1.41-1.3,2.22-.22.7-.29,1.5-.15,2.42.22,1.66,1.1,3.21,2.51,4,.71.4,1.47.54,2.28.47.4-.04.81-.15,1.19-.31.33-.15.64-.36.92-.62.18-.17.34-.35.48-.55.11-.16.09-.24.13-.39.04-.27.04-.6.02-.98-.05-.76-.2-1.75-.35-2.79-.15-1.04-.35-2.16-.61-3.11-.25-.93-.57-1.64-1.07-2.01Z"/><path class="cls-2" d="m389.49,76.86l-19.38-3.41v-.13c-.04-.18-.01-.07-.14-.9-.15-1.25-.42-2.42-.68-3.56,1.11-.46,1.98-1.32,2.44-2.4.21-.51.36-1.14.34-1.7,0-.29-.04-.58-.09-.88-.02-.15-.08-.28-.12-.41l-.07-.18c-.21-.48-.93-.7-1.62-.32-.71.35-1.42,1.24-2.09,2.33l-3.2-20.46c.45-.39.95-.64,1.45-.92.51-.27,1.03-.54,1.57-.8.54-.18,1.1-.34,1.67-.5l.87-.22.87-.11c2.38-.41,4.82-.02,7.21.73,2.38.8,4.6,2.2,6.57,4.01.49.45.92.98,1.37,1.48.43.52.93.99,1.29,1.58.76,1.17,1.56,2.23,2.21,3.57l.48,1.03.31.71c.18.46.34.93.5,1.39.33.94.54,1.86.72,2.79.36,1.86.45,3.69.36,5.5-.11,1.81-.43,3.58-.93,5.3-.24,1.13-.51,2.27-.82,3.32-.3,1.06-.7,2.17-1.1,3.13Zm-12.38-22.42c.45-2.01-.82-4.14-2.58-5.18-.45-.24-.88-.48-1.34-.58-.46-.1-.9-.14-1.31-.14-.82.04-1.49.4-1.84.89-.38.55-.46,1.25-.41,2.24.05,1.01.22,2.12.41,3.14.2,1.02.37,2.05.56,2.79.18.8.38,1.33.71,1.61.52.39,1.54-.08,2.78-.86,1.21-.8,2.65-2.05,3-3.91Zm7.97,2.09c-.43-1.08-1.7-1.51-2.87-1.41-1.18.1-2.27.78-2.78,1.69-.96,1.79.23,3.71,1.82,3.8.91.02,2.04-.54,2.87-1.33.41-.4.75-.85.95-1.31.18-.45.24-.89.01-1.43Zm-.84,15.02c1.05-.7,1.47-2.38,1.07-4.08-.18-.85-.61-1.68-1.17-2.35-.59-.67-1.35-1.18-2.24-1.4-1.71-.4-3.4.24-4.58,1.14-1.22.93-1.92,2.09-1.7,3.21.32,1.4,1.88,2.5,3.68,3.21.9.36,1.86.57,2.72.64.87.07,1.66,0,2.22-.38Z"/><path class="cls-2" d="m366.72,98.81l3.4-25.36c.57,2.15,1.22,4.06,2.01,5.3.78,1.27,1.61,1.64,1.85,1.09.25-.54-.1-1.72-.81-2.87-.73-1.18-1.81-2.35-3.05-3.52l19.38,3.41c2.22,4.56,3.6,10.31,3.4,15.25,0,1.28-.21,2.38-.39,3.54-.11.55-.27,1.06-.42,1.58-.16.51-.3,1.05-.52,1.5-.77,1.92-1.89,3.47-3.28,4.76-1.38,1.27-3.15,2.32-5.25,2.81-.25.09-.52.11-.75.25l-.79.12c-.53.08-1.06.13-1.59.15-.53.04-1.06.05-1.59-.02-.53-.03-1.06-.1-1.57-.2-4.18-.77-7.66-3.53-10.02-7.78Zm16.9-10.35c1.39.46,2.5-.81,2.72-2.71.27-1.88-.3-4.14-1.45-5.24-.6-.6-1.37-.95-2.25-1.21-.89-.26-1.83-.4-2.7-.5-.87-.1-1.68-.17-2.25-.15-.59.03-.95.14-.97.58-.02.67.97,2.33,2.36,4.4.69,1.02,1.47,2.1,2.3,3.04.41.47.84.9,1.27,1.26.34.26.65.43.98.54Zm1.43,10.02c.59-.54.51-2,.1-3.37-.46-1.41-1.28-2.74-1.98-3.19-.34-.21-.66-.23-.91-.09-.25.14-.44.43-.63.78-.31.74-.59,1.73-.45,2.66.12,1.02.76,2.09,1.57,2.78.76.66,1.78.98,2.29.43Zm-14.46-2.54c.47,1.54,2,2.98,3.8,3.18,1.78.26,3.6-.81,3.95-2.6.09-.4.11-.81.06-1.27-.17-.75-.4-1.49-.66-2.21-.53-1.44-1.2-2.8-1.85-3.98-1.35-2.41-2.48-4.12-3.15-4.2-.83-.06-1.23,2.03-1.75,4.47-.23,1.21-.46,2.55-.56,3.86-.02.29-.04.57-.05.84,0,.22,0,.43,0,.65.02.43.08.87.22,1.27Z"/><path class="cls-2" d="m341.08,84.27l-3.58-18.9,4.47-.11h.56c.2-.02.38-.02.47-.02h.72s1.45.04,1.45.04c1.95.05,3.96.17,6.07.42.17,1.21,1.11,2.41,2.45,3.39.67.49,1.5,1,2.39,1.4.92.46,1.92.84,3.04,1.25,2.22.74,4.54,1.5,6.6,2,1.03.29,2.02.45,2.87.56.21.02.43.04.62.04.15-.01.21-.17.31-.25.19-.2.38-.42.58-.65h0s-3.4,25.37-3.4,25.37c-2.97.21-6.38-.7-10.11-4.57-.9-.95-1.76-2.1-2.65-3.13-.28-.03-.39.13-.53.14-.35.1-.63.02-1.19-.16-1.03-.4-2.8-1.25-4.93-2.37-1.09-.55-2.21-1.23-3.45-1.95-.3-.19-.61-.38-.92-.58-.29-.2-.36-.39-.57-.6-.36-.41-.79-.85-1.28-1.32Zm18.96-1.65c-.08.45-.09.85-.09,1.25,0,.2,0,.39.03.58.06.22.13.49.22.74.32,1.04.86,2.14,1.44,3.03,1.19,1.81,2.46,2.62,3.2,1.76.76-.83,1.13-3.67,1.46-6.19.3-2.56.59-4.57.04-5.16-.12-.12-.26-.2-.46-.21-.1,0-.2,0-.32,0-.15-.04-.4-.12-.59-.15-.83-.16-1.67.03-2.37.38-1.41.72-2.29,2.29-2.56,3.97Zm-6,3.12c.39.23,1.15-.41,1.85-1.22.72-.83,1.47-1.92,1.55-2.88.09-.97-.5-1.63-1.23-1.87-.73-.25-1.59,0-2.04.62-.53.72-.71,1.98-.71,3.08,0,1.12.2,2.05.58,2.27Zm-10.29-6.23c.5,1.14,1.92,1.78,3.42,1.82,1.51.03,3.13-.52,4.25-1.95,1.07-1.36,1.43-3.12,1.05-4.61-.36-1.49-1.52-2.75-3.01-2.88-1.91-.2-3.68,1.1-4.74,2.78-1.08,1.66-1.5,3.64-.98,4.84Z"/><path class="cls-2" d="m337.79,93.75l-14.4,12.33c-2.27-2.43-4.16-5.15-5.74-7.92l-1.07-2.12c-.35-.71-.75-1.41-.96-2.14l-.76-2.16c-.23-.72-.58-1.45-.67-2.16.59-.21,1.08-.66,1.48-1.25.2-.3.37-.63.52-1,.07-.18.14-.38.2-.57.08-.2.17-.4.25-.6.6-1.68.9-3.71,1.41-6.05.19-.57.32-1.15.46-1.72.21-.55.31-1.13.53-1.64.4-1.04.76-2.01,1.07-2.84.59-1.68.78-3.09.19-4.2,2.08-1.51,4.58-2.64,7.58-3.3,2.97-.72,6.38-.77,9.63-1.04l3.58,18.9c-1.86,3.95,1.14,5.86,1.09,5.74,0,0-.71-.25-1.67.14-.95.38-2.15,1.42-2.7,3.59Zm-8.28-13.46c2.55.97,4.43,1.36,5.6,1.29,1.16-.08,1.83-.74,1.73-1.89-.14-1.21-1.35-3.15-3.47-4.57-2.1-1.47-5.13-2.24-7.1-1.35-1.54.71-1.87,2.2-1.2,3.48.32.63.85,1.19,1.55,1.65.35.23.74.44,1.17.62.55.27,1.14.54,1.73.76Zm5.17,6.71c.11-.26-.95-1.07-2.21-2.04-1.29-.96-2.89-2.07-4.18-2.39-.63-.15-1.17-.12-1.52.06-.32.19-.51.52-.53.9.04.78.64,1.71,1.71,2.25,1.16.63,2.78.95,4.15,1.16,1.34.2,2.51.31,2.59.06Zm-2.63,7.27c.4-.4.61-.9.66-1.4.06-.51-.13-.97-.41-1.49-.28-.51-.8-1-1.49-1.53-.68-.53-1.6-1.08-2.75-1.59-.54-.24-1.08-.46-1.61-.64-.45-.17-.9-.3-1.33-.38-.86-.17-1.66-.16-2.34.07-.7.22-1.16.66-1.45,1.29-.26.62-.4,1.44,0,2.31.46,1.1,1.16,2.16,2.21,2.91,1.04.76,2.21,1.27,3.32,1.51,2.26.48,4.33-.2,5.19-1.04Z"/><path class="cls-2" d="m363.3,104.54l-1.5,18.95c-4.06-.28-8.09-1.02-12.07-2.07-.04-2.49-2.68-5.05-6.32-6.6-.92-.37-1.84-.64-2.72-.86-.89-.2-1.76-.29-2.58-.29-1.62-.05-3.06.33-3.97,1.19-.93-.52-1.82-1.18-2.73-1.77-.91-.58-1.78-1.28-2.65-1.96l-1.3-1.03-1.27-1.15-1.26-1.17-.31-.29-.41-.47-.82-.94,14.4-12.33c.31-.03.53-.11.86-.12.35.02.7.05,1.05.07.69.04,1.28.13,1.94.16.65.04,1.25.1,1.83.18.58.07,1.19.11,1.73.2.28.04.54.09.81.15l.82.13c.54.1,1.04.23,1.54.37,1.05.22,1.97.62,2.96.98,3.82,1.62,7.38,4.48,11.98,8.68Zm-20.63-.38c0-1.84-.98-3.23-2.13-4.14-.6-.42-1.24-.74-1.87-.88-.64-.14-1.29-.09-1.85.19-1.17.59-2.17,2.33-2.38,4.31-.1.98-.02,2.04.32,2.98.35.91.94,1.72,1.76,2.25,1.31.81,2.95.5,4.15-.43,1.21-.95,2.01-2.55,2.01-4.28Zm6.6-3.04c-.51-.29-1.41.26-2.2,1.04-.79.79-1.51,1.9-1.56,2.88-.11,1.95,2.31,2.67,3.36,1.49.61-.68.93-1.9.99-3,.07-1.12-.1-2.13-.6-2.41Zm9.87,7.72c-.74-2.29-4.97-3.49-7.61-.96-1.24,1.18-1.81,2.87-1.66,4.42.15,1.54,1.06,2.86,2.51,3.27,1.85.44,3.82-.53,5.12-2.05,1.32-1.51,1.99-3.41,1.64-4.67Z"/><path class="cls-2" d="m389.25,96.16l12.69,14.15c-3.18,2.85-6.74,5.39-10.61,7.44-.86-.88-2.29-1.32-3.96-1.4-.83-.02-1.72.04-2.66.17-.94.14-1.89.4-2.89.69-1.96.66-3.68,1.5-4.99,2.56-1.31,1-2.21,2.21-2.39,3.45-1.08.13-2.17.23-3.26.34-1.08.09-2.16.1-3.25.14-1.11.05-2.06-.03-3.1-.04-1.02-.02-2.03-.06-3.05-.17l1.5-18.95c1.3-.81,2.52-1.71,3.69-2.37,1.11-.76,2.12-1.34,3.08-1.95,1.93-1.13,3.64-1.97,5.43-2.55,3.55-1.14,7.65-1.16,13.75-1.51Zm-14.92,13.37c-.58-.71-1.28-1.19-2.01-1.46-.74-.31-1.51-.45-2.24-.4-1.46.02-2.82.69-3.35,1.8-.53,1.16-.19,3.2.89,4.86,1.06,1.65,2.93,3.01,4.89,2.74,1.54-.15,2.64-1.48,2.98-2.95.34-1.5-.06-3.24-1.16-4.59Zm3.02-6.53c-.55.1-.86,1.07-.95,2.2-.09,1.11.07,2.41.66,3.2,1.16,1.54,3.5.57,3.48-1.07,0-.91-.56-2.03-1.23-2.91-.67-.88-1.43-1.5-1.97-1.43Zm12.15-.91c-1.1-.62-2.54-.3-3.76.5-.59.44-1.16.95-1.58,1.63-.41.69-.7,1.47-.77,2.37-.11,1.71.58,3.37,1.75,4.39.58.51,1.27.87,2,1.01.71.11,1.46,0,2.15-.36,1.72-.96,2.48-3.1,2.35-5.1-.11-1.99-1-3.8-2.13-4.45Z"/><path class="cls-2" d="m417.45,98.42l-17.92-6.35c.27-.73.36-1.42.34-1.25,0,.13-.07.51.27,1.69.09.28.24.72.41,1.05.1.24.23.47.36.7.14.23.27.42.47.72.19.27.4.53.62.77.22.24.51.55.79.8.55.47,1.29,1.03,2.06,1.4.08-.04.23-.06.27-.12l.15-.16.32-.31c.22-.2.45-.41.68-.6.28-.16.55-.33.85-.51.39-.12.7-.34,1.16-.5.85-.36,1.81-.98,2.07-1.38.3-.41.13-.49-.1-.25-.55.56-1.04,1.95-1.04,3.23,0,.64.09,1.3.3,1.87.18.61.41,1.26.81,1.72-2.43,3.35-5.24,6.53-8.42,9.38l-12.69-14.15c.47-3.02.87-5.6,1.45-7.89.13-.59.29-1.15.46-1.68.03-.11.11-.3.19-.49l.24-.54c.16-.35.35-.72.54-1.08.79-1.45,1.75-2.96,3.54-4.82.22-.23.51-.49.77-.73.27-.25.52-.47.88-.75.34-.27.68-.53,1.03-.78.41-.28.86-.56,1.3-.82.4-.25,1-.54,1.54-.78l.83-.36c.31-.12.64-.23.97-.33,1.26-.41,2.77-.67,4.2-.72.72-.01,1.45.01,2.15.08.66.09,1.31.21,1.95.36.63.15,1.12.34,1.67.54.56.2,1.02.42,1.47.66l.67.36.88.51c.84.52,1.7,1.15,2.32,1.78.67.64,1.27,1.34,1.71,2,.24.34.46.69.67,1.04.18.33.33.64.48.97,1.17,2.64,1.22,4.69,1.12,6.34-.13,1.67-.55,2.92-1.02,4.1-.98,2.25-2.32,3.91-3.8,5.28Zm-17-6.9c-1.87-.14-3.39.73-4.37,1.83-.97,1.13-1.46,2.55-.97,3.7.52,1.2,2.21,2.29,4.18,2.63,1.96.37,4.16-.1,5.3-1.64.43-.6.66-1.34.59-2.01-.07-.65-.34-1.35-.75-1.98-.83-1.27-2.25-2.37-3.98-2.54Zm-.62-8.05c-.38.34-.58.83-.62,1.36-.02.52.11,1.1.35,1.64.5,1.07,1.42,2.01,2.37,2.27.94.25,1.76-.11,2.3-.7.56-.57.88-1.4.82-2.23-.1-.94-.78-1.99-1.92-2.52-1.12-.53-2.53-.5-3.31.17Zm14.17,9.15c.6-.22,1.11-.78,1.41-1.63.29-.84.39-1.99-.08-3.33-.25-.67-.62-1.37-1.23-1.99-.57-.62-1.38-1.11-2.2-1.33-1.26-.17-2.28.16-2.99.9-1.26,1.43-.52,3.29-.59,4.67,0,.73-.15,1.32-.28,1.74-.08.2-.08.41-.17.48-.23-.03-.45-.12-.65-.24-.19-.08-.36-.23-.49-.38-.16-.14-.27-.39-.3-.5-.02-.07-.03-.15-.03-.23,0-.05.02-.09.04-.14.05-.12.13-.15.23-.18.11-.05.23-.03.38-.01.58.07,1.37.46,2.18.88,1.64.83,3.48,1.75,4.76,1.28Z"/><path class="cls-2" d="m397.17,128.79l-12.47-14.34c.94-.86,1.92-1.68,2.78-2.67.44-.48.91-.93,1.34-1.42l1.26-1.54c2.12,1.24,5.08.42,6.75-2.14,1.67-2.53,1.2-5.69-.7-7.14.65-1.25,1.26-2.54,1.87-3.83l.86-2,.43-1,.25-.64,17.92,6.35c.08.5.14.99.19,1.49.05.44.11.88.16,1.31.09.86.15,1.71.18,2.56.09,1.7-.11,3.35-.36,4.99-.56,3.25-1.76,6.33-3.55,9.08-3.56,5.5-9.63,9.69-16.89,10.94Zm10.04-21.33c1.84-.02,3.38-1.24,4.15-2.73.4-.74.63-1.53.66-2.25,0-.73-.19-1.39-.6-1.86-.87-.99-2.87-1.37-4.79-1.18-1.92.2-3.83.88-4.49,2.3-.55,1.11-.16,2.48.82,3.66.98,1.17,2.51,2.09,4.25,2.07Zm2.03,7.46c.92-1.23-1.18-4.29-3.15-4.55-1.95-.28-2.98,1.9-2.17,3.23.94,1.54,4.45,2.5,5.32,1.32Zm-12.21,7.5c1.16.41,2.75-.32,3.84-1.64,1.03-1.37,1.63-3.22.9-4.92-.69-1.62-2.16-2.64-3.61-3.06-1.43-.39-2.92-.28-3.68.64-.94,1.2-.9,3.09-.33,4.95.57,1.85,1.65,3.6,2.88,4.03Z"/><path class="cls-2" d="m362.81,142.71l-1.32-18.96c.68,0,1.32-.12,1.97-.2l1.95-.24c.66-.04,1.27-.23,1.9-.36l1.88-.4c.49,1.14,1.38,1.97,2.53,2.4,1.14.41,2.58.55,3.88-.06.66-.27,1.24-.64,1.73-1.06.49-.41.84-1,1.1-1.55.51-1.12.57-2.34.15-3.47,1.07-.63,2.11-1.32,3.16-2.01l1.49-1.16c.51-.37,1.01-.75,1.47-1.21l12.47,14.34c-2.16,7.05-7.45,12.65-13.96,15.18-6.51,2.59-13.99,2.09-20.4-1.26Zm20.81-11.26c.78.49,1.67.69,2.56.67.89-.02,1.72-.37,2.48-.79.74-.44,1.37-1.01,1.78-1.61.39-.64.55-1.33.43-1.95-.26-1.3-1.84-2.6-3.55-3.4-1.74-.8-3.67-1.27-4.89-.44-.99.62-1.38,1.93-1.2,3.46.19,1.5.93,3.14,2.4,4.07Zm-2.66,7.35c1.53-.5,1.58-4.21.08-5.54-1.46-1.34-3.55-.19-3.67,1.41-.06.9.45,2.05,1.19,2.93.73.88,1.67,1.41,2.39,1.2Zm-14.44-1.26c.68,1.06,2.38,1.5,4.05,1.03,1.67-.42,3.28-1.52,3.71-3.38.42-1.71-.17-3.4-1.07-4.61-.91-1.2-2.11-1.89-3.28-1.69-1.47.27-2.54,2.01-3.24,3.73-.68,1.78-.89,3.81-.17,4.92Z"/><path class="cls-2" d="m326.9,135.21l8.9-16.79c1.19.56,2.34,1.2,3.54,1.73,1.24.45,2.47.91,3.69,1.38-.19,1.24.14,2.42.91,3.39.77.97,1.96,1.78,3.39,2.14,1.46.21,2.87-.03,3.96-.62.55-.3,1.01-.68,1.38-1.13.37-.48.65-1.04.8-1.63l3.98.2c1.33.03,2.68-.1,4.02-.12l1.32,18.96c-1.47,1.03-3.01,1.94-4.6,2.72-1.59.7-3.24,1.19-4.91,1.59-.84.2-1.68.36-2.52.49-.84.12-1.69.1-2.53.1-1.69-.02-3.37-.17-5.04-.44-1.64-.39-3.25-.95-4.81-1.61-.78-.34-1.55-.69-2.29-1.1-.73-.46-1.44-.95-2.14-1.46-1.38-1.05-2.72-2.13-3.9-3.44-1.16-1.36-2.22-2.82-3.17-4.35Zm23.52,1.73c.71,1.79,2.46,2.57,4.16,2.74,1.7.13,3.31-.34,3.84-1.54.55-1.23.06-3.15-.87-4.86-.94-1.74-2.28-3.19-3.8-3.25-.6-.03-1.18.23-1.69.62-.51.36-.97.91-1.32,1.58-.7,1.32-.99,3.09-.31,4.72Zm-6.25,4.68c1.52.37,3.61-2.76,3.12-4.66-.24-.94-.95-1.44-1.73-1.55-.77-.16-1.6.05-2.08.7-1.1,1.45-.72,5,.7,5.51Zm-11.4-8.8c0,1.33,1.28,2.41,2.9,2.96,1.62.54,3.56.49,4.92-.87,1.27-1.22,1.7-2.96,1.58-4.46-.06-.75-.26-1.44-.58-1.97-.33-.53-.74-1.02-1.31-1.22-1.41-.55-3.21.26-4.77,1.47-1.52,1.17-2.75,2.74-2.74,4.09Z"/><path class="cls-2" d="m300.54,109.72l16.43-9.56,1,1.73c.32.59.77,1.09,1.14,1.63l1.16,1.62.57.82c.21.26.44.5.66.75-.79.91-1.14,2.1-1.04,3.37.05.63.21,1.28.49,1.92.27.63.75,1.16,1.27,1.67,1.09.98,2.32,1.65,3.61,1.66,1.29.03,2.47-.39,3.37-1.21l1.56,1.22c.52.4,1.11.7,1.66,1.06l1.67,1.05.83.53.89.43-8.9,16.79c-7.24.46-14.25-1.97-18.97-6.78-.61-.58-1.2-1.18-1.76-1.81-.51-.67-1-1.36-1.46-2.07-.91-1.43-1.77-2.88-2.4-4.48-1.17-3.26-1.95-6.66-1.77-10.35Zm18.92,13.99c-.29,1.8.7,3.5,2.01,4.6,1.36,1.04,3.1,1.32,4.14.66,1.1-.71,1.74-2.66,1.85-4.57.05-.96-.02-1.91-.27-2.72-.26-.79-.6-1.57-1.21-2.01-.95-.72-2.4-.52-3.73.25-1.32.77-2.52,2.1-2.79,3.8Zm-7.74.55c1.05,1.16,4.46-.31,5.08-2.21.63-1.86-1.26-3.33-2.8-2.73-1.73.66-3.28,3.82-2.28,4.94Zm-4.95-13.47c-.63,1.06-.2,2.73.85,4.07.26.34.56.65.89.93.35.26.75.47,1.15.64.82.33,1.71.46,2.61.29,1.71-.34,3-1.58,3.72-2.92.71-1.35.84-2.78.06-3.68-.9-1.22-2.8-1.55-4.75-1.36-1.94.2-3.86.91-4.52,2.03Z"/><path class="cls-2" d="m291.05,74.44h19.01l.2,4.05.04,1.01.15,1,.29,2c-1.15.39-2.1,1.24-2.7,2.4-.53,1.14-.62,2.56-.28,4.01.29,1.46,1.23,2.6,2.28,3.31,1.05.72,2.26.99,3.45.76.11.31.2.64.33.95l.43.91.84,1.82c.29.6.52,1.23.86,1.81l1.01,1.72-16.43,9.56c-3.33-1.64-5.9-3.99-8.15-6.61-1.09-1.32-1.91-2.79-2.7-4.27-.38-.75-.74-1.51-1.06-2.28-.31-.78-.5-1.59-.71-2.39-.4-1.62-.67-3.27-.81-4.93-.02-1.68.1-3.38.34-5.05.12-.84.28-1.67.47-2.5.25-.83.54-1.66.86-2.48.63-1.63,1.4-3.23,2.28-4.77Zm9.2,21.63c-.6.7-.93,1.54-1.04,2.42-.05.44-.06.88,0,1.32.08.42.2.84.37,1.23.65,1.58,1.88,2.77,3.12,2.74,1.3-.02,2.88-1.34,4-2.93,1.13-1.6,1.78-3.42,1.16-4.81-.4-1.14-1.71-1.73-3.23-1.77-1.52-.04-3.23.48-4.37,1.8Zm-6.92-3.51c.12.75,1.1,1.29,2.23,1.44,1.14.16,2.47-.07,3.2-.7,1.51-1.27.73-3.53-.87-3.81-1.81-.33-4.78,1.59-4.56,3.06Zm2.67-14.07c-.55.3-.96.86-1.22,1.56-.12.35-.22.73-.25,1.13-.01.4.02.82.1,1.23.31,1.68,1.31,3.35,3.01,3.97,1.61.59,3.36.19,4.68-.6,1.32-.8,2.21-1.97,2.04-3.17-.1-.76-.55-1.44-1.2-2.05-.65-.6-1.39-1.14-2.27-1.55-1.72-.82-3.73-1.18-4.89-.54Z"/></svg>